<?xml version="1.0" standalone="no"?>
<!DOCTYPE svg PUBLIC "-//W3C//DTD SVG 20010904//EN"
 "http://www.w3.org/TR/2001/REC-SVG-20010904/DTD/svg10.dtd">
<svg version="1.0" xmlns="http://www.w3.org/2000/svg"
 width="450.000000pt" height="450.000000pt" viewBox="0 0 450.000000 450.000000"
 preserveAspectRatio="xMidYMid meet">

<g transform="translate(0.000000,450.000000) scale(0.100000,-0.100000)"
fill="#000000" stroke="none">
<path d="M2098 4038 l-3 -103 -67 -3 -66 -3 -7 96 c-7 92 -9 96 -29 91 -11 -3
-25 -6 -29 -6 -5 0 -7 -39 -5 -87 l3 -88 -70 -5 -70 -5 3 -75 c2 -41 5 -82 8
-91 4 -14 50 -17 400 -23 228 -5 400 -4 405 1 5 5 6 44 3 86 l-7 77 -68 0 -69
0 0 118 0 119 -40 1 -40 2 0 -105 0 -105 -75 0 -75 0 -1 90 c-1 50 -2 96 -3
103 -1 7 -20 13 -48 15 l-47 3 -3 -103z m140 -210 c3 -24 0 -28 -22 -28 -22 0
-26 4 -26 31 0 26 3 30 23 27 16 -2 23 -11 25 -30z m-240 -1 c2 -12 -3 -17
-17 -17 -15 0 -21 6 -21 21 0 25 33 22 38 -4z m372 -2 c0 -20 -5 -25 -25 -25
-20 0 -25 5 -25 25 0 20 5 25 25 25 20 0 25 -5 25 -25z m140 -5 c0 -25 -4 -30
-25 -30 -20 0 -25 5 -25 23 0 28 7 37 32 37 13 0 18 -8 18 -30z m-635 0 c0 -8
-8 -16 -17 -18 -13 -2 -18 3 -18 18 0 15 5 20 18 18 9 -2 17 -10 17 -18z m245
5 c0 -8 -9 -15 -20 -15 -11 0 -20 7 -20 15 0 8 9 15 20 15 11 0 20 -7 20 -15z"/>
<path d="M2702 4042 c-58 -51 -92 -101 -92 -135 0 -21 15 -45 58 -90 59 -63
71 -99 48 -136 -6 -9 23 -45 105 -128 159 -160 178 -167 266 -108 29 19 57 35
62 35 18 0 23 -22 10 -46 -12 -22 -10 -27 14 -52 l27 -27 72 73 73 72 -28 27
c-23 24 -30 26 -45 15 -31 -22 -42 -24 -57 -12 -13 11 -9 19 25 60 54 64 59
96 26 157 -33 60 -176 213 -183 195 -3 -8 -16 -3 -40 19 -28 24 -42 30 -63 25
-19 -3 -33 1 -45 14 -9 10 -29 24 -45 30 -26 11 -31 9 -59 -22 -36 -39 -38
-53 -9 -69 19 -10 25 -7 55 27 39 46 44 38 7 -12 -26 -33 -27 -64 -2 -64 6 0
26 14 44 31 40 38 54 22 18 -20 -21 -26 -24 -34 -14 -46 17 -20 33 -19 55 5
10 11 23 20 28 20 6 0 1 -10 -11 -23 -26 -28 -27 -40 -7 -57 13 -11 20 -9 40
10 30 29 33 18 4 -18 l-20 -27 20 -9 c16 -7 26 -4 41 9 16 15 22 15 35 5 24
-20 18 -38 -30 -89 -60 -64 -117 -103 -138 -95 -25 9 -22 15 28 64 25 24 45
48 45 52 0 4 -9 12 -21 18 -18 10 -26 6 -65 -34 -58 -61 -67 -59 -15 3 46 54
48 63 25 82 -15 12 -22 8 -61 -35 -24 -27 -47 -46 -50 -42 -4 3 5 19 19 34 39
42 57 73 51 88 -10 27 -41 14 -79 -33 -21 -25 -40 -41 -42 -35 -2 7 13 31 32
54 38 44 40 55 14 72 -13 8 -25 0 -59 -37 -23 -26 -44 -45 -47 -43 -3 3 12 24
32 46 62 69 27 111 -37 46 -40 -43 -51 -44 -73 -11 -24 37 -11 71 56 136 66
65 67 89 2 31z m308 -92 c6 -11 7 -20 2 -20 -10 0 -32 21 -32 32 0 16 19 8 30
-12z m113 -112 c95 -120 110 -143 103 -165 -7 -20 -102 -123 -154 -165 -19
-16 -45 -28 -59 -28 -31 0 -99 49 -173 124 -41 43 -51 59 -42 68 9 9 25 -2 68
-45 67 -68 91 -77 137 -48 55 34 147 136 147 164 0 16 -22 48 -66 96 -58 63
-72 91 -44 91 5 0 42 -42 83 -92z m35 19 c87 -101 115 -150 107 -188 -8 -37
-126 -165 -194 -209 -69 -47 -86 -40 -218 92 -62 62 -110 114 -107 117 3 3 37
-29 77 -70 124 -130 174 -157 235 -125 37 19 177 165 186 194 10 29 -21 82
-103 179 -34 40 -61 75 -61 78 0 15 21 -4 78 -68z m-383 -143 c9 -9 13 -19 10
-22 -3 -3 -15 4 -27 16 -13 12 -17 22 -11 22 6 0 19 -7 28 -16z m519 -236
c-10 -12 -35 -38 -56 -57 -32 -28 -41 -31 -54 -21 -13 12 -8 21 43 72 49 50
59 56 71 44 12 -12 12 -17 -4 -38z m-87 26 c3 -8 1 -20 -6 -27 -14 -14 -47 15
-37 32 10 16 36 13 43 -5z"/>
<path d="M1510 3989 c0 -6 16 -29 35 -52 28 -32 35 -49 35 -81 -1 -46 -8 -58
-67 -103 -47 -37 -53 -39 -92 -19 -26 14 -30 13 -61 -13 -33 -27 -35 -36 -15
-83 5 -14 -6 -31 -46 -68 -46 -42 -60 -50 -93 -50 -35 0 -46 7 -93 55 -29 30
-53 58 -53 62 0 10 90 92 230 208 58 48 107 89 110 92 16 15 -44 -16 -90 -46
-68 -45 -290 -230 -290 -241 0 -21 112 -139 141 -149 66 -23 89 -15 157 51 44
43 61 66 56 77 -18 43 -16 60 9 72 18 8 30 8 45 0 34 -18 46 -14 115 41 l67
53 0 55 c0 50 -4 59 -41 103 -40 46 -59 58 -59 36z"/>
<path d="M1400 3904 c-36 -31 -67 -61 -68 -66 -2 -5 8 -24 23 -43 37 -50 76
-48 144 6 28 22 51 47 51 54 0 37 -47 105 -73 105 -7 0 -41 -25 -77 -56z m104
-17 c8 -23 6 -31 -19 -57 -35 -36 -65 -46 -94 -30 -31 16 -26 33 26 79 53 47
73 49 87 8z"/>
<path d="M1658 3791 c-1 -6 -30 -38 -63 -73 -33 -35 -122 -129 -199 -211
l-139 -147 49 -54 c27 -29 85 -114 128 -190 53 -91 84 -135 93 -132 7 3 55 30
105 59 51 30 161 93 243 141 83 48 154 91 159 96 9 9 -161 310 -176 310 -10 0
-7 2 -285 -159 -105 -61 -195 -111 -199 -111 -3 0 80 89 185 199 105 109 191
203 191 209 0 12 -66 72 -80 72 -4 0 -10 -4 -12 -9z m52 -64 c0 -18 -2 -19
-10 -7 -13 20 -13 43 0 35 6 -3 10 -16 10 -28z m-85 -79 c5 -23 3 -38 -3 -38
-11 0 -22 33 -22 70 0 35 17 13 25 -32z m-89 -94 c6 -48 -10 -26 -20 26 -4 24
-3 31 4 24 6 -6 13 -28 16 -50z m331 -51 c-3 -10 -5 -2 -5 17 0 19 2 27 5 18
2 -10 2 -26 0 -35z m-418 -43 c0 -29 -2 -31 -9 -15 -5 11 -9 34 -9 50 -1 23 2
26 9 15 5 -8 9 -31 9 -50z m312 -23 c-8 -8 -11 1 -11 29 0 53 14 67 18 19 2
-21 -1 -42 -7 -48z m-106 -44 c-10 -42 -18 -18 -9 29 6 32 9 37 12 19 2 -12 1
-34 -3 -48z m-296 -35 c1 -44 -16 -33 -21 13 -2 22 -1 42 1 45 8 7 19 -27 20
-58z m191 -3 c0 -25 -4 -45 -10 -45 -11 0 -14 49 -4 74 10 26 14 18 14 -29z
m-116 -62 c-7 -44 -24 -68 -24 -36 0 25 17 73 25 73 3 0 3 -17 -1 -37z"/>
<path d="M1163 3711 c-35 -32 -63 -63 -63 -69 0 -6 14 -27 31 -47 41 -46 80
-47 131 -2 56 48 54 85 -5 160 -8 9 -18 17 -23 17 -5 -1 -37 -27 -71 -59z"/>
<path d="M2057 3663 c-4 -3 -7 -17 -7 -30 0 -19 16 -31 100 -73 57 -29 100
-56 100 -65 0 -8 -7 -40 -15 -72 -8 -32 -16 -84 -17 -115 -1 -49 2 -62 23 -84
35 -38 72 -54 110 -48 25 4 109 -17 304 -76 148 -44 280 -80 295 -78 38 5 85
82 100 165 18 105 17 107 -161 187 -338 153 -415 190 -437 210 -29 26 -110 26
-148 1 -23 -15 -28 -14 -122 35 -99 51 -113 55 -125 43z m110 -66 c32 -18 75
-41 95 -50 34 -16 58 -37 42 -37 -13 0 -204 105 -204 113 0 11 4 10 67 -26z
m220 -84 c-8 -107 -74 -293 -104 -293 -18 0 -16 21 3 48 27 39 65 165 71 237
5 60 14 84 32 85 2 0 1 -35 -2 -77z m-50 31 c-9 -9 -28 6 -21 18 4 6 10 6 17
-1 6 -6 8 -13 4 -17z m96 -44 c-17 -124 -81 -300 -109 -300 -8 0 -1 20 17 54
32 59 79 226 80 285 0 28 2 32 8 16 5 -11 6 -36 4 -55z m133 -4 c210 -93 447
-205 457 -215 29 -29 -14 -14 -179 60 -98 44 -225 101 -281 126 -60 26 -103
51 -103 59 0 8 2 14 4 14 2 0 48 -20 102 -44z m-242 -41 c-15 -71 -46 -155
-64 -177 l-19 -23 -1 45 c0 38 18 128 34 175 2 6 15 10 30 10 24 0 26 -3 20
-30z m391 -160 c132 -46 255 -89 273 -95 23 -9 32 -18 32 -33 0 -48 -13 -51
-91 -24 -136 47 -474 165 -491 172 -13 5 -16 14 -12 34 10 38 14 43 32 36 9
-3 125 -44 257 -90z m-52 -145 c150 -44 281 -84 292 -89 18 -8 19 -9 3 -16
-14 -5 -444 114 -576 160 -12 4 -8 25 4 25 3 0 128 -36 277 -80z"/>
<path d="M3326 3359 c-113 -99 -206 -182 -206 -183 0 -10 372 -406 381 -406 7
0 264 231 399 356 12 12 12 18 -5 47 -24 40 -336 367 -351 367 -6 0 -104 -81
-218 -181z m304 -64 c-5 -22 -10 -54 -10 -72 0 -31 1 -32 83 -51 45 -11 75
-22 67 -25 -23 -8 -148 -37 -160 -37 -6 0 -10 23 -10 55 0 55 -12 69 -37 44
-8 -8 -15 -5 -26 11 -11 16 -21 19 -42 14 -36 -9 -52 -44 -36 -81 14 -34 76
-77 102 -70 11 3 19 2 19 -1 0 -15 -55 -162 -61 -162 -4 0 -12 36 -19 81 l-13
81 -73 -4 c-41 -2 -74 -1 -74 2 0 3 12 13 28 22 15 9 37 27 49 40 l22 24 -28
69 c-16 39 -24 71 -20 73 5 2 34 -8 65 -22 31 -14 64 -26 73 -26 9 1 36 18 61
40 24 22 45 38 47 37 1 -2 -2 -20 -7 -42z"/>
<path d="M903 3477 c-67 -23 -128 -48 -135 -54 -19 -20 -2 -16 140 31 106 35
132 41 126 28 -13 -32 -16 -227 -5 -301 6 -40 10 -75 9 -76 -3 -3 -213 76
-253 95 -37 17 -126 50 -135 50 -27 0 -4 -20 40 -35 52 -17 62 -28 34 -39 -27
-10 -69 -7 -91 9 -19 13 -21 13 -27 -8 -8 -33 16 -50 79 -55 51 -4 59 -2 84
22 l28 27 142 -56 c78 -30 144 -55 147 -55 13 0 32 72 39 145 7 82 -7 228 -26
284 -15 42 -42 40 -196 -12z m194 -148 c6 -130 -2 -239 -17 -239 -30 0 -47
322 -20 385 l12 30 10 -25 c5 -14 12 -82 15 -151z m-327 -153 c0 -18 -37 -36
-73 -35 l-42 2 44 7 c25 4 47 12 49 18 3 11 22 17 22 8z"/>
<path d="M2097 3232 c-10 -10 -17 -24 -17 -30 0 -7 -17 -12 -44 -12 -37 0 -48
-5 -71 -32 -21 -25 -25 -38 -21 -62 10 -50 47 -72 129 -79 40 -3 79 -8 87 -11
12 -5 19 6 29 46 25 95 25 140 1 171 -25 32 -69 36 -93 9z"/>
<path d="M750 2991 c-77 -25 -109 -43 -167 -96 -128 -114 -139 -275 -24 -343
40 -23 57 -27 126 -27 71 0 89 4 147 33 86 42 160 109 192 174 91 182 -63 327
-274 259z m160 -12 c191 -44 143 -289 -78 -397 -84 -41 -155 -49 -227 -27 -67
22 -96 57 -103 124 -13 144 159 298 348 310 8 0 35 -4 60 -10z"/>
<path d="M785 2936 c-16 -7 -38 -22 -48 -34 -18 -19 -17 -22 50 -119 76 -112
81 -114 138 -56 72 75 54 178 -38 212 -37 14 -65 13 -102 -3z m101 -101 c6
-16 -12 -45 -27 -45 -12 0 -31 39 -24 50 10 15 45 12 51 -5z"/>
<path d="M655 2856 c-19 -14 -19 -16 -3 -50 22 -45 4 -61 -24 -23 -22 30 -45
34 -73 13 -18 -13 -18 -16 -4 -33 8 -10 40 -57 69 -105 30 -49 58 -88 61 -88
4 0 17 8 30 19 l22 18 -21 35 c-18 30 -20 37 -8 47 10 9 19 3 40 -29 27 -40
27 -40 51 -23 15 11 23 25 21 35 -7 29 -119 198 -131 198 -6 0 -20 -6 -30 -14z"/>
<path d="M3771 2942 c-80 -36 -84 -39 -104 -87 -20 -50 -57 -235 -57 -287 0
-36 50 -94 74 -85 25 10 30 36 11 57 -19 21 -17 58 4 114 11 27 14 28 56 22
34 -6 60 -2 107 15 85 30 106 51 114 111 5 40 12 51 30 59 34 12 30 23 -6 16
-23 -5 -32 -2 -40 12 -8 16 -5 21 20 30 40 13 38 25 -2 18 -22 -3 -48 3 -79
19 l-45 23 -83 -37z m123 -6 c24 -10 38 -25 49 -55 20 -48 21 -67 6 -108 -9
-26 -21 -35 -83 -57 -57 -21 -80 -25 -110 -19 -36 8 -41 13 -59 64 -32 90 -15
123 85 165 64 27 70 28 112 10z m-208 -211 c4 -23 0 -49 -10 -75 -20 -51 -20
-98 0 -121 9 -10 11 -19 5 -23 -13 -8 -51 41 -51 66 0 43 33 197 41 192 4 -2
11 -20 15 -39z"/>
<path d="M3800 2889 c-25 -12 -55 -25 -67 -30 l-23 -8 21 -58 c12 -32 25 -62
29 -66 4 -5 44 10 88 32 l81 41 -23 52 c-27 61 -41 66 -106 37z"/>
<path d="M1253 2919 c-49 -24 -94 -76 -125 -146 -18 -38 -22 -67 -23 -143 0
-84 3 -101 29 -152 63 -128 180 -178 286 -123 42 22 102 93 98 118 -4 27 -67
41 -150 32 -55 -6 -57 -5 -79 27 -18 24 -25 50 -27 99 -5 78 15 130 55 148 23
11 29 9 54 -15 26 -25 31 -26 93 -19 36 3 69 11 72 16 19 32 -61 139 -123 165
-47 20 -112 17 -160 -7z m169 -51 c28 -19 58 -56 58 -70 0 -16 -56 -8 -85 12
-59 39 -119 20 -155 -49 -45 -90 -31 -217 30 -276 30 -29 35 -30 111 -27 43 1
79 -1 79 -6 0 -22 -74 -65 -120 -70 -110 -10 -190 94 -190 247 0 87 22 149 72
205 58 67 135 80 200 34z"/>
<path d="M2269 2930 c-11 -7 -32 -561 -22 -571 5 -4 58 -9 118 -11 l110 -3 3
72 3 71 -66 7 c-53 6 -65 11 -63 24 3 12 13 15 43 13 51 -3 67 8 69 49 4 52
-1 57 -60 65 l-55 6 3 72 3 71 70 5 70 5 -3 55 c-2 30 -7 58 -10 62 -9 8 -201
15 -213 8z"/>
<path d="M2824 2929 c-6 -8 -24 -65 -39 -127 -15 -62 -30 -111 -32 -108 -3 2
-16 48 -30 102 -34 135 -34 136 -91 132 l-47 -3 -7 -280 c-5 -193 -4 -283 4
-292 15 -18 73 -16 89 3 7 9 13 31 13 50 0 44 11 43 26 0 22 -67 48 -67 71 -1
12 35 14 37 16 15 10 -73 9 -73 68 -68 30 3 57 7 59 9 9 8 16 544 8 556 -13
20 -95 28 -108 12z"/>
<path d="M3083 2928 c-12 -16 -95 -557 -87 -569 8 -14 140 -11 151 4 5 6 15
38 22 70 7 32 16 56 19 52 4 -3 14 -34 22 -68 l16 -62 67 -3 c52 -2 69 0 73
12 5 14 -73 553 -83 569 -8 13 -190 8 -200 -5z m171 -46 c3 -10 16 -96 31
-192 14 -96 29 -200 34 -230 10 -61 5 -73 -30 -68 -20 2 -28 15 -47 78 -35
112 -40 122 -60 118 -16 -3 -28 -42 -58 -175 -4 -19 -11 -23 -44 -23 -46 0
-47 3 -30 105 10 61 60 394 60 400 0 5 112 11 127 7 7 -2 14 -11 17 -20z"/>
<path d="M3162 2831 c-15 -9 -37 -133 -28 -156 4 -12 16 -15 48 -13 51 4 56
15 38 100 -13 59 -34 84 -58 69z m28 -117 c0 -8 -4 -14 -10 -14 -5 0 -10 9
-10 21 0 11 5 17 10 14 6 -3 10 -13 10 -21z"/>
<path d="M2074 2922 c-15 -10 -22 -46 -25 -127 -1 -38 -4 -74 -7 -79 -2 -4
-20 31 -39 80 -44 113 -53 124 -114 124 -42 0 -49 -3 -53 -22 -3 -13 -8 -142
-11 -287 -7 -289 -9 -281 52 -281 56 0 63 7 63 64 0 29 3 56 7 59 7 8 46 -43
63 -82 6 -16 23 -33 36 -40 33 -15 91 -14 101 2 10 15 33 569 24 578 -10 10
-85 19 -97 11z m-109 -139 c21 -54 46 -118 55 -143 17 -44 45 -64 55 -38 3 7
8 72 12 143 7 121 9 130 28 130 11 0 20 -4 20 -10 -1 -5 -5 -119 -9 -253 -5
-133 -13 -245 -18 -248 -27 -17 -55 10 -108 101 -69 122 -81 122 -95 1 -9 -83
-23 -113 -40 -87 -3 6 -3 121 1 256 l7 245 28 0 c25 0 30 -7 64 -97z"/>
<path d="M1622 2902 c-9 -6 -18 -83 -31 -268 -10 -142 -16 -265 -13 -271 3 -9
27 -13 73 -13 63 0 69 2 74 23 3 12 4 137 3 277 l-3 255 -45 3 c-25 1 -51 -2
-58 -6z"/>
<path d="M4001 2696 c-48 -49 -62 -92 -48 -146 9 -36 95 -169 147 -230 41 -48
40 -15 -1 36 -18 22 -54 72 -80 113 -40 61 -49 81 -49 119 0 41 5 50 50 95 28
27 50 51 50 53 0 16 -33 -3 -69 -40z"/>
<path d="M4028 2633 c-52 -40 -52 -71 0 -35 25 18 32 19 47 8 17 -12 15 -15
-18 -40 -38 -29 -38 -34 -3 -81 11 -15 18 -17 26 -9 8 8 7 14 -5 24 -21 17
-19 37 5 50 21 11 28 64 11 74 -5 3 -7 15 -4 26 8 28 -5 25 -59 -17z"/>
<path d="M825 2491 c-48 -22 -69 -44 -90 -95 l-16 -39 -18 29 c-72 118 -256
79 -276 -59 -8 -50 19 -117 55 -139 27 -17 25 -28 -4 -28 -13 0 -27 -7 -30
-16 -5 -13 -15 -15 -41 -11 -33 5 -35 4 -35 -21 0 -15 3 -43 6 -63 6 -34 9
-37 38 -35 l31 1 0 -120 0 -120 73 -3 c64 -3 72 -5 68 -20 -4 -9 -24 -60 -45
-112 -22 -52 -36 -99 -32 -103 5 -5 25 -7 46 -5 l37 3 41 103 c23 56 44 102
47 102 3 0 22 -42 44 -93 54 -128 58 -133 100 -135 20 -1 36 3 36 8 0 6 -25
62 -55 126 -30 64 -55 118 -55 120 0 2 61 4 135 4 148 0 138 -4 137 63 0 15 1
27 4 27 2 0 52 -22 110 -50 58 -27 110 -50 114 -50 15 0 17 28 11 242 l-6 216
-110 -84 -110 -84 -3 55 c-3 53 -4 55 -32 55 l-30 0 44 40 c80 74 84 182 9
255 -57 55 -128 68 -198 36z m-41 -293 l39 -38 -93 0 -94 0 36 33 c19 17 39
43 43 57 8 24 8 24 19 5 6 -11 29 -37 50 -57z"/>
<path d="M4097 2469 c-9 -6 -17 -14 -17 -19 0 -16 30 -11 37 5 8 21 1 25 -20
14z"/>
<path d="M3603 2440 c-71 -28 -146 -98 -180 -168 -24 -49 -28 -69 -28 -142 1
-144 57 -235 181 -296 65 -33 84 -37 147 -37 149 0 274 93 319 236 20 63 23
68 26 40 2 -17 -4 -54 -12 -82 -16 -54 -14 -57 30 -45 19 5 23 16 28 77 4 40
10 82 13 95 4 17 -4 31 -35 60 -22 20 -52 61 -66 90 -62 123 -154 184 -290
189 -64 2 -92 -1 -133 -17z m182 -40 c12 -20 -7 -27 -82 -34 -60 -5 -73 -4
-73 8 0 8 7 19 16 24 24 13 131 15 139 2z m154 -81 c28 -30 54 -88 47 -105 -9
-22 -26 -16 -37 13 -6 16 -22 43 -35 61 -36 47 -15 73 25 31z m-426 -25 c12
-4 10 -15 -9 -62 -13 -31 -24 -63 -24 -69 0 -7 -7 -13 -15 -13 -22 0 -19 55 7
106 12 24 23 44 24 44 1 0 9 -2 17 -6z m217 -104 c0 -11 -2 -20 -4 -20 -2 0
-6 9 -9 20 -3 11 -1 20 4 20 5 0 9 -9 9 -20z m-50 -10 c0 -5 -5 -10 -11 -10
-5 0 -7 5 -4 10 3 6 8 10 11 10 2 0 4 -4 4 -10z m108 -34 c-1 -2 -14 1 -28 5
-16 4 -19 7 -7 8 9 1 17 7 17 14 0 6 5 4 11 -6 6 -10 9 -20 7 -21z m-98 -16
c0 -5 -6 -10 -14 -10 -8 0 -17 -6 -19 -12 -4 -8 -6 -7 -6 4 -1 9 7 19 17 21 9
3 18 5 20 6 1 0 2 -3 2 -9z m100 -25 c0 -1 -10 -10 -22 -21 -12 -10 -18 -13
-14 -6 4 7 3 19 -3 26 -9 11 -6 12 14 8 14 -2 25 -5 25 -7z m194 9 c20 -8 20
-44 1 -91 -20 -47 -33 -63 -49 -57 -10 4 -9 17 5 57 10 29 18 62 19 75 0 24 1
25 24 16z m-271 -24 c-3 -12 0 -20 8 -20 7 0 10 -3 6 -6 -3 -3 -15 -3 -26 1
-19 6 -19 7 -3 26 20 24 21 24 15 -1z m-180 -105 c46 -52 53 -75 22 -75 -16 0
-95 87 -95 105 0 12 10 25 19 25 3 0 28 -25 54 -55z m307 -85 c0 -26 -98 -58
-139 -45 -34 10 -26 35 12 36 17 1 43 5 57 9 36 11 70 12 70 0z"/>
<path d="M1615 2246 c-261 -70 -275 -75 -275 -93 0 -25 150 -587 160 -596 7
-8 448 99 463 113 9 8 -55 279 -72 310 -5 9 -21 65 -35 125 -47 189 -46 185
-64 184 -9 0 -89 -20 -177 -43z m44 -82 c7 -30 11 -57 9 -59 -5 -4 -115 -35
-126 -35 -10 0 -38 108 -30 115 6 5 102 33 119 34 11 1 19 -15 28 -55z m101
16 c0 -5 -2 -10 -4 -10 -3 0 -8 5 -11 10 -3 6 -1 10 4 10 6 0 11 -4 11 -10z
m-320 -80 c0 -5 -4 -10 -10 -10 -5 0 -10 5 -10 10 0 6 5 10 10 10 6 0 10 -4
10 -10z m345 -19 c3 -5 1 -12 -5 -16 -5 -3 -10 1 -10 9 0 18 6 21 15 7z m-315
-85 c0 -3 -4 -8 -10 -11 -5 -3 -10 -1 -10 4 0 6 5 11 10 11 6 0 10 -2 10 -4z
m240 -33 c5 -21 13 -54 16 -74 l6 -35 -62 -17 c-35 -10 -65 -16 -67 -13 -6 6
-33 109 -33 128 0 12 15 22 48 32 72 22 80 21 92 -21z m53 -230 c3 -5 8 -26
11 -48 l7 -40 -53 -13 c-74 -17 -74 -17 -86 28 -11 45 -10 46 52 66 49 15 63
17 69 7z"/>
<path d="M2096 2193 c-3 -21 -6 -72 -6 -114 0 -59 3 -78 15 -83 21 -8 21 -132
-1 -174 -20 -42 -15 -66 16 -70 25 -4 220 -122 220 -134 0 -6 -115 -82 -202
-132 -53 -31 -58 -44 -29 -71 19 -16 21 -16 48 2 15 11 78 52 140 91 l112 71
142 -92 142 -91 19 24 c24 29 34 19 -124 121 -60 38 -108 72 -108 76 0 13 183
121 210 125 19 2 26 10 28 31 2 16 -3 36 -10 45 -10 12 -12 40 -10 95 3 66 6
77 22 77 22 0 30 36 30 145 l0 82 -82 6 c-46 4 -192 7 -324 7 l-241 0 -7 -37z
m493 -203 l64 0 -7 -82 c-4 -45 -8 -83 -10 -85 -1 -2 -105 0 -229 4 l-227 6 0
85 0 85 173 -6 c94 -4 201 -7 236 -7z m-51 -255 c4 -3 -118 -75 -128 -75 -13
0 -129 74 -130 83 0 6 250 -1 258 -8z"/>
<path d="M2840 2063 c0 -249 31 -396 96 -453 30 -26 42 -31 68 -26 61 13 141
116 208 268 37 86 112 317 105 324 -3 3 -433 44 -463 44 -11 0 -14 -29 -14
-157z m240 117 c183 -15 210 -19 210 -35 0 -28 -73 -232 -116 -323 -78 -166
-150 -241 -209 -214 -70 32 -116 263 -107 540 l2 54 48 -6 c26 -3 103 -10 172
-16z"/>
<path d="M2910 2101 c0 -10 48 -21 91 -21 34 0 38 15 7 24 -34 9 -98 7 -98 -3z"/>
<path d="M3095 2081 c-7 -13 4 -17 68 -26 39 -5 47 -3 47 9 0 11 -10 16 -32
16 -18 0 -43 3 -54 6 -12 3 -25 1 -29 -5z"/>
<path d="M2919 2022 c-48 -25 -49 -42 -1 -42 22 0 54 -3 71 -6 36 -7 43 13 14
38 -30 25 -49 27 -84 10z"/>
<path d="M3077 2002 c-28 -30 -20 -41 26 -40 24 0 53 -5 65 -11 47 -25 59 3
17 44 -30 31 -84 34 -108 7z"/>
<path d="M2904 1865 c-11 -28 14 -92 47 -119 51 -44 107 -29 162 42 43 56 34
77 -21 48 -26 -13 -59 -19 -94 -17 -10 1 -33 15 -53 32 -30 27 -36 29 -41 14z"/>
<path d="M3268 1798 c-262 -301 -330 -501 -182 -532 76 -16 304 74 486 193 88
57 92 70 36 130 -108 116 -264 271 -274 271 -6 0 -36 -28 -66 -62z m362 -267
c0 -6 -33 -32 -72 -58 -83 -52 -287 -157 -294 -150 -3 2 0 16 6 31 11 30 13
96 4 121 -15 38 -93 55 -162 35 -29 -8 -33 -7 -28 6 12 31 110 166 179 245
l70 82 149 -150 c81 -83 148 -155 148 -162z m-471 -80 c32 -17 53 -50 58 -90
3 -23 11 -41 17 -41 24 0 -22 -20 -72 -30 -58 -13 -116 -1 -126 26 -11 28 -6
83 10 123 l15 39 41 -10 c22 -5 48 -13 57 -17z"/>
<path d="M3290 1731 c0 -6 23 -17 52 -26 61 -18 58 -18 58 -5 0 12 -27 24 -77
35 -21 4 -33 3 -33 -4z"/>
<path d="M3222 1672 c-8 -6 2 -23 38 -60 28 -29 52 -52 54 -52 2 0 6 8 9 19 8
32 -18 77 -53 90 -18 6 -33 11 -34 11 -1 0 -7 -4 -14 -8z"/>
<path d="M3487 1603 c-8 -13 5 -113 14 -113 5 0 9 27 9 60 0 53 -10 75 -23 53z"/>
<path d="M3347 1543 c-14 -13 -6 -30 18 -41 14 -6 33 -28 42 -47 21 -44 37
-40 41 8 2 28 -3 42 -22 62 -24 24 -65 33 -79 18z"/>
<path d="M1180 1743 c-28 -10 -60 -47 -60 -69 0 -12 13 -47 29 -78 l30 -56
-23 -27 c-50 -61 -59 -108 -28 -154 38 -58 106 -135 143 -162 32 -24 42 -40
59 -96 13 -45 37 -92 70 -136 28 -37 50 -73 50 -79 0 -6 18 -49 40 -96 52
-110 52 -127 0 -147 -22 -9 -40 -21 -40 -27 0 -6 -3 -21 -6 -33 -9 -32 48 -60
85 -43 55 26 293 121 296 118 6 -7 37 -110 34 -112 -11 -7 -170 -66 -179 -66
-24 0 2 -18 34 -24 46 -9 220 58 212 81 -3 8 -6 17 -6 19 0 2 -9 4 -20 4 -24
0 -50 56 -55 116 -1 23 -5 46 -9 52 -11 19 -65 21 -112 5 l-47 -16 -23 28
c-12 16 -28 49 -34 74 -6 25 -23 71 -36 101 -14 30 -29 88 -33 129 -6 46 -20
93 -36 125 -24 46 -27 63 -30 186 -2 74 -8 147 -14 162 -13 35 -50 59 -103 65
-50 7 -68 18 -68 44 0 36 -31 96 -56 108 -27 12 -40 13 -64 4z m62 -25 c9 -7
25 -39 36 -72 22 -66 33 -76 80 -76 18 0 46 -7 62 -15 37 -19 51 -84 51 -232
0 -95 3 -111 25 -148 16 -28 28 -70 35 -126 6 -47 21 -104 34 -130 13 -26 26
-62 30 -80 4 -19 18 -55 31 -81 25 -51 25 -52 -35 -73 -39 -13 -41 -13 -41 6
0 11 -17 54 -39 97 -21 42 -43 93 -50 113 -6 20 -27 54 -46 76 -19 23 -44 71
-58 110 -21 62 -33 80 -109 156 -89 89 -134 160 -122 193 4 10 20 35 36 55 34
44 35 67 6 104 -13 17 -22 43 -22 68 -1 34 3 43 24 54 32 16 52 16 72 1z"/>
<path d="M3760 1720 c0 -20 -5 -30 -15 -30 -9 0 -16 -10 -16 -25 -1 -14 -2
-29 -3 -34 -1 -5 25 -23 57 -40 49 -26 64 -29 107 -24 28 3 50 3 50 -1 0 -4
-9 -19 -20 -34 -26 -36 -39 -122 -18 -122 22 0 43 28 72 94 33 75 33 90 2 82
-39 -10 -76 9 -76 39 0 19 -11 32 -47 55 -27 16 -54 38 -61 49 -18 30 -32 26
-32 -9z"/>
<path d="M1779 1543 c-1 -4 -2 -12 -3 -18 -18 -83 -25 -89 -61 -55 l-21 20
-99 -100 c-87 -87 -97 -101 -83 -112 8 -7 19 -20 24 -30 5 -9 47 -57 94 -108
61 -66 89 -106 100 -139 21 -65 27 -71 65 -71 19 0 42 -8 52 -18 10 -10 35
-24 57 -31 l39 -13 86 86 c77 78 85 88 73 106 -6 11 -12 26 -12 33 0 8 -9 22
-20 32 -19 17 -20 29 -17 211 1 106 0 194 -3 197 -9 8 -270 18 -271 10z m197
-23 c49 0 54 -2 54 -21 0 -22 -2 -22 -117 -15 -65 4 -119 9 -121 11 -3 2 -2
12 2 21 5 14 16 16 68 10 33 -3 85 -6 114 -6z m42 -66 c20 -4 22 -10 20 -62
-1 -53 -2 -54 -5 -12 -5 62 -20 70 -125 70 l-88 0 -20 -32 c-11 -18 -20 -44
-20 -57 0 -13 -3 -22 -6 -18 -3 3 -3 33 1 65 l7 60 106 -5 c59 -2 117 -6 130
-9z m-325 -48 c-15 -16 -38 -38 -51 -49 -12 -10 -38 -35 -57 -55 -29 -31 -37
-34 -45 -22 -14 22 148 184 167 168 11 -9 9 -17 -14 -42z m311 -17 c8 -53 -4
-309 -16 -333 -9 -16 -20 -18 -99 -14 -49 2 -94 9 -100 15 -14 14 -14 34 -6
153 10 128 25 198 45 210 9 5 51 10 93 10 l76 0 7 -41z m-268 9 c-24 -14 -107
-102 -122 -131 -15 -26 -4 -57 37 -112 17 -22 3 -11 -30 25 l-61 65 91 89 c49
48 93 85 97 81 4 -3 -2 -11 -12 -17z m8 -100 c-4 -48 -13 -93 -22 -107 -11
-18 -12 -26 -4 -29 7 -2 12 -15 12 -30 l0 -25 -26 24 c-14 13 -35 38 -47 54
l-21 30 25 -22 c30 -27 44 -29 35 -7 -4 10 1 25 10 35 15 17 15 19 1 19 -9 0
-18 -4 -21 -9 -10 -16 -56 -10 -56 8 0 16 98 139 112 140 4 1 5 -36 2 -81z
m323 -276 l-22 -24 -3 27 c-2 14 2 33 9 42 12 13 14 13 26 -3 11 -15 10 -21
-10 -42z m-292 16 c6 -4 2 -8 -7 -8 -10 0 -18 7 -18 17 0 9 3 12 8 7 4 -5 12
-12 17 -16z m238 -8 c-4 -14 -13 -20 -32 -19 -21 1 -22 2 -6 6 11 3 24 11 28
19 11 20 16 17 10 -6z m-55 -40 c25 0 32 -4 32 -19 0 -26 -11 -28 -125 -22
-96 6 -100 7 -103 30 l-4 24 84 -6 c45 -4 98 -7 116 -7z m-10 -86 c-15 -15
-18 -15 -39 0 -23 16 -23 16 16 16 36 0 38 -1 23 -16z"/>
<path d="M1817 1383 c-11 -10 -8 -63 3 -63 6 0 10 7 10 15 0 8 8 14 18 12 24
-3 31 17 7 22 -11 2 -23 7 -26 12 -3 5 -8 6 -12 2z"/>
<path d="M1900 1303 c0 -19 5 -23 30 -23 25 0 30 4 30 23 0 20 -5 24 -30 24
-25 0 -30 -4 -30 -24z"/>
<path d="M1820 1300 c0 -5 14 -10 30 -10 17 0 30 5 30 10 0 6 -13 10 -30 10
-16 0 -30 -4 -30 -10z"/>
<path d="M1817 1263 c-4 -3 -2 -12 4 -19 7 -8 7 -14 -1 -19 -20 -12 -10 -25
20 -25 30 0 41 14 18 24 -9 3 -8 8 5 16 9 6 15 15 12 21 -7 10 -48 12 -58 2z"/>
<path d="M1900 1261 c0 -5 6 -12 13 -14 9 -4 8 -8 -3 -16 -12 -9 -13 -13 -2
-20 12 -7 12 -12 1 -29 -12 -19 -11 -24 3 -38 9 -9 23 -14 32 -11 20 8 17 114
-4 127 -19 12 -40 13 -40 1z"/>
<path d="M1809 1168 c-9 -17 -9 -23 0 -26 9 -3 8 -9 -3 -21 -19 -21 -9 -37 28
-47 25 -6 28 -4 23 10 -4 9 -2 16 3 16 21 0 9 20 -12 21 l-23 0 23 9 c24 10
29 29 10 48 -18 18 -36 14 -49 -10z m36 -8 c3 -5 1 -10 -4 -10 -6 0 -11 5 -11
10 0 6 2 10 4 10 3 0 8 -4 11 -10z"/>
<path d="M3680 1488 c-19 -17 -128 -115 -242 -217 -115 -102 -208 -191 -208
-198 0 -16 202 -262 215 -262 15 -1 85 72 85 88 0 21 -24 6 -30 -19 -5 -20 -7
-21 -19 -6 -18 22 -30 20 -39 -5 -7 -18 -10 -17 -40 20 -29 36 -31 43 -20 61
7 11 33 28 58 37 25 10 71 42 104 73 55 52 60 55 111 55 l53 0 -14 -35 -14
-35 40 44 c22 24 39 46 36 48 -2 2 9 17 24 33 15 16 43 57 64 90 l36 62 -76
96 c-42 53 -79 98 -83 99 -3 1 -22 -12 -41 -29z"/>
<path d="M863 1480 c-12 -5 -29 -20 -39 -35 -14 -21 -14 -30 -4 -54 10 -24 9
-35 -5 -62 -36 -69 -2 -177 110 -344 72 -106 147 -190 198 -219 33 -19 63 -25
138 -29 92 -6 97 -5 119 18 18 19 21 31 16 57 -4 18 -11 58 -15 88 -11 72 -26
100 -101 185 -34 39 -87 111 -117 160 -64 105 -125 172 -164 180 -15 4 -33 13
-40 21 -11 14 -63 45 -71 43 -2 0 -13 -4 -25 -9z m249 -195 c77 -123 106 -163
155 -217 51 -56 97 -131 91 -149 -2 -5 -25 23 -52 63 -27 40 -105 149 -173
241 -67 92 -123 171 -123 174 0 15 73 -65 102 -112z m-164 75 c12 -11 49 -76
82 -143 57 -119 63 -127 175 -235 138 -135 152 -167 89 -208 -15 -11 -45 -18
-73 -18 -84 0 -164 71 -285 252 -124 186 -145 283 -77 344 37 33 60 35 89 8z"/>
<path d="M2314 1440 c-43 -13 -101 -80 -110 -125 -35 -189 195 -286 310 -131
31 42 29 140 -4 188 -13 20 -36 43 -51 52 -35 21 -105 28 -145 16z m123 -31
c105 -51 111 -197 11 -260 -50 -31 -137 -23 -178 16 -37 35 -55 90 -46 139 10
53 22 44 35 -26 13 -69 30 -128 37 -128 14 0 214 155 211 164 -4 11 -246 48
-259 40 -18 -11 -6 7 20 31 49 47 106 55 169 24z"/>
<path d="M2744 1299 c-14 -15 -26 -19 -49 -15 -34 6 -48 0 -58 -27 -4 -10 -11
-16 -15 -13 -8 5 -312 -603 -312 -623 0 -4 19 -18 43 -31 23 -13 80 -49 127
-80 47 -32 95 -62 107 -69 21 -10 36 4 239 224 119 129 220 235 223 235 3 0 5
-36 3 -79 l-3 -80 -90 -32 c-49 -17 -89 -35 -89 -40 0 -4 21 -10 48 -14 132
-16 137 -17 140 -52 2 -18 8 -33 14 -33 10 0 6 75 -4 86 -3 2 -33 7 -68 11
-57 6 -61 7 -39 18 45 23 69 28 63 12 -3 -10 4 -16 25 -20 27 -6 32 -12 37
-47 4 -22 9 -40 13 -40 3 0 15 17 26 38 19 35 23 37 73 40 58 3 64 12 26 39
-23 17 -24 21 -13 46 16 35 11 39 -34 25 -34 -11 -39 -10 -53 10 -23 33 -34
27 -34 -18 0 -22 -4 -40 -10 -40 -5 0 -9 34 -9 78 l1 77 21 -25 c12 -14 32
-39 44 -55 l21 -30 61 42 c34 23 61 40 61 39 0 -2 -13 -31 -30 -64 -16 -34
-30 -63 -30 -66 0 -10 61 -37 73 -33 7 2 -2 11 -20 20 l-32 17 40 82 c22 48
35 84 29 86 -6 2 -35 -15 -65 -37 -30 -23 -61 -44 -68 -47 -8 -3 -33 18 -60
49 l-46 54 34 32 c29 26 33 35 25 55 -5 14 -7 40 -4 58 6 35 -2 47 -58 89 -16
11 -28 28 -28 38 0 26 -32 51 -66 51 -34 0 -48 8 -57 32 -8 22 -72 35 -91 18
-12 -9 -17 -7 -26 9 -14 27 -32 27 -56 0z m116 -29 c0 -5 -4 -10 -10 -10 -5 0
-10 5 -10 10 0 6 5 10 10 10 6 0 10 -4 10 -10z m-160 -19 c0 -10 -22 -31 -32
-31 -9 0 -11 34 -2 43 7 7 34 -2 34 -12z m60 -1 c8 -5 11 -12 7 -16 -4 -4 -15
0 -24 9 -18 18 -8 23 17 7z m50 0 c0 -5 -5 -10 -11 -10 -5 0 -7 5 -4 10 3 6 8
10 11 10 2 0 4 -4 4 -10z m68 -45 c-3 -3 -9 2 -12 12 -6 14 -5 15 5 6 7 -7 10
-15 7 -18z m-153 5 c-3 -5 -11 -10 -16 -10 -6 0 -7 5 -4 10 3 6 11 10 16 10 6
0 7 -4 4 -10z m218 -5 c1 -5 -6 -11 -15 -13 -11 -2 -18 3 -18 13 0 17 30 18
33 0z m66 2 c6 -8 8 -17 4 -20 -7 -8 -33 11 -33 24 0 13 16 11 29 -4z m-164
-7 c3 -5 2 -10 -4 -10 -5 0 -13 5 -16 10 -3 6 -2 10 4 10 5 0 13 -4 16 -10z
m-45 -10 c0 -5 -4 -10 -10 -10 -5 0 -10 5 -10 10 0 6 5 10 10 10 6 0 10 -4 10
-10z m-40 -20 c0 -5 -7 -7 -15 -4 -8 4 -15 8 -15 10 0 2 7 4 15 4 8 0 15 -4
15 -10z m155 -10 c3 -5 -1 -10 -9 -10 -9 0 -16 5 -16 10 0 6 4 10 9 10 6 0 13
-4 16 -10z m-90 -21 c-8 -12 -35 -12 -35 0 0 11 22 20 33 14 4 -2 5 -9 2 -14z
m210 0 c10 -14 1 -21 -19 -13 -9 3 -13 10 -10 15 7 12 21 11 29 -2z m-367 -8
c19 -11 -87 -219 -141 -278 -28 -31 -40 -54 -44 -85 -6 -48 -67 -178 -83 -178
-6 0 -13 6 -16 14 -6 15 251 536 264 536 4 0 13 -4 20 -9z m197 -32 c11 -17
-1 -21 -15 -4 -8 9 -8 15 -2 15 6 0 14 -5 17 -11z m130 1 c3 -5 1 -10 -4 -10
-6 0 -11 5 -11 10 0 6 2 10 4 10 3 0 8 -4 11 -10z m45 -20 c0 -5 -4 -10 -10
-10 -5 0 -10 5 -10 10 0 6 5 10 10 10 6 0 10 -4 10 -10z m-120 -21 c0 -5 -4
-9 -10 -9 -5 0 -10 7 -10 16 0 8 5 12 10 9 6 -3 10 -10 10 -16z m-132 -15 c31
-21 28 -40 -14 -90 -27 -34 -42 -44 -65 -44 -16 0 -29 4 -29 9 0 12 73 141 80
141 3 0 16 -7 28 -16z m227 -4 c3 -5 -1 -10 -9 -10 -9 0 -16 5 -16 10 0 6 4
10 9 10 6 0 13 -4 16 -10z m95 -45 c0 -8 -2 -15 -4 -15 -2 0 -6 7 -10 15 -3 8
-1 15 4 15 6 0 10 -7 10 -15z m-90 -5 c0 -5 -4 -10 -10 -10 -5 0 -10 5 -10 10
0 6 5 10 10 10 6 0 10 -4 10 -10z m60 -30 c0 -14 -15 -19 -29 -10 -17 10 -5
31 14 23 8 -3 15 -9 15 -13z m-140 -25 c10 -12 4 -24 -31 -65 -39 -47 -44 -50
-56 -34 -18 24 -18 25 23 72 39 46 46 49 64 27z m-186 -56 c47 -13 86 -50 86
-82 0 -59 -85 -117 -172 -117 -104 0 -158 31 -158 90 0 80 133 140 244 109z
m421 -147 c-3 -8 0 -20 6 -28 8 -10 5 -13 -17 -11 -21 1 -31 -4 -41 -23 -7
-14 -13 -20 -13 -13 0 6 -8 19 -17 28 -16 16 -16 18 0 27 9 5 17 15 17 21 0 8
14 13 35 13 27 0 34 -4 30 -14z m-605 -69 c0 -11 -83 -123 -91 -123 -14 0 -10
16 13 57 42 75 48 82 63 77 8 -4 15 -8 15 -11z m110 -50 c-89 -98 -115 -123
-123 -123 -15 0 0 27 54 95 40 49 59 65 78 65 l25 0 -34 -37z"/>
<path d="M2065 921 c-85 -40 -147 -134 -147 -223 0 -63 27 -108 82 -135 78
-40 163 -24 244 47 105 92 108 239 6 307 -42 29 -127 31 -185 4z m175 -17 c91
-54 81 -200 -20 -286 -68 -59 -143 -72 -210 -38 -120 61 -80 255 65 321 50 23
128 24 165 3z"/>
<path d="M2136 888 c-22 -5 -48 -16 -58 -25 -18 -16 -25 -43 -10 -43 4 0 15
-12 24 -27 9 -16 27 -41 40 -57 13 -16 30 -37 38 -48 20 -26 40 -16 73 34 32
50 35 96 7 131 -26 33 -66 46 -114 35z m90 -39 c29 -32 25 -93 -8 -126 -15
-15 -29 -25 -31 -22 -48 61 -97 131 -97 138 0 13 43 30 81 30 24 1 42 -6 55
-20z"/>
<path d="M2142 828 c-17 -17 -15 -24 10 -58 25 -35 43 -38 58 -11 14 27 13 47
-6 65 -18 19 -45 21 -62 4z m48 -29 c7 -11 9 -23 6 -26 -8 -9 -36 17 -36 33 0
21 18 17 30 -7z"/>
<path d="M1972 774 c-26 -18 -28 -32 -6 -63 12 -16 19 -20 27 -12 19 19 36 13
29 -11 -4 -17 -2 -20 11 -15 12 5 17 1 17 -12 0 -11 -6 -21 -12 -23 -23 -8 8
-58 36 -58 31 0 76 52 76 89 0 28 -26 61 -48 61 -7 0 -12 8 -12 18 0 10 -5 23
-12 30 -17 17 -79 15 -106 -4z m91 -35 c-1 -20 5 -27 30 -35 42 -12 47 -45 12
-80 -32 -32 -52 -21 -34 19 10 23 9 31 -16 63 -21 28 -33 35 -51 31 -27 -5
-30 3 -12 21 7 7 26 12 43 10 25 -3 30 -7 28 -29z"/>
<path d="M3144 635 c-21 -32 -9 -47 12 -17 8 12 26 22 39 22 13 0 27 5 30 10
4 6 -8 10 -29 10 -27 0 -40 -6 -52 -25z"/>
<path d="M2246 515 c-3 -8 -16 -15 -28 -15 -13 0 -34 -7 -46 -16 -18 -12 -22
-24 -20 -60 l1 -45 46 3 c41 3 48 7 61 35 10 21 25 34 43 38 15 4 27 11 27 16
0 13 -52 58 -66 59 -7 0 -14 -7 -18 -15z"/>
</g>
</svg>
