<?xml version="1.0" standalone="no"?>
<!DOCTYPE svg PUBLIC "-//W3C//DTD SVG 20010904//EN"
 "http://www.w3.org/TR/2001/REC-SVG-20010904/DTD/svg10.dtd">
<svg version="1.0" xmlns="http://www.w3.org/2000/svg"
 width="1300.000000pt" height="1300.000000pt" viewBox="0 0 1300.000000 1300.000000"
 preserveAspectRatio="xMidYMid meet">

<g transform="translate(0.000000,1300.000000) scale(0.100000,-0.100000)"
fill="#000000" stroke="none">
<path d="M2116 12275 c-8 -8 -17 -23 -20 -33 -14 -46 -69 -354 -101 -558 -19
-126 -42 -264 -50 -308 -8 -43 -15 -80 -15 -82 0 -2 -66 -4 -147 -4 -179 0
-344 -23 -476 -66 -43 -14 -51 -22 -73 -68 -23 -47 -30 -54 -105 -89 -144 -68
-200 -148 -161 -228 19 -38 19 -38 -7 -114 l-26 -77 47 -41 47 -42 36 -395
c20 -217 42 -452 50 -521 20 -169 83 -822 95 -984 6 -71 17 -200 25 -285 8
-85 22 -229 30 -320 8 -91 26 -268 39 -395 14 -126 27 -266 31 -310 10 -126
20 -152 64 -175 76 -38 308 -109 425 -129 297 -52 600 -11 774 105 74 49 88
76 96 192 4 53 18 205 31 337 28 278 49 516 70 805 8 113 29 340 45 505 16
165 39 404 50 530 11 127 32 343 45 480 13 138 29 322 35 410 l11 159 35 38
c42 47 42 67 4 129 -27 44 -29 54 -24 107 10 91 -22 136 -137 196 -41 22 -62
41 -88 83 -26 42 -44 60 -79 75 -59 27 -196 54 -367 74 -77 8 -141 17 -143 19
-2 2 4 43 12 92 16 88 83 499 116 712 26 170 13 191 -115 191 -43 0 -68 -5
-79 -15z m137 -16 c20 -5 37 -14 37 -19 0 -14 -118 -12 -143 2 -21 12 -20 13
18 19 22 3 42 7 45 8 3 0 22 -4 43 -10z m44 -63 c3 -3 -27 -129 -32 -134 -3
-3 -20 5 -38 18 -36 24 -71 70 -81 107 -7 21 -5 21 71 16 43 -3 79 -6 80 -7z
m-147 -136 c19 -28 50 -57 68 -65 25 -13 32 -22 32 -45 0 -17 -5 -30 -10 -30
-23 0 -68 31 -103 69 -30 33 -37 49 -37 81 0 22 3 40 8 40 4 -1 23 -23 42 -50z
m45 -200 c39 -17 41 -20 37 -54 -2 -20 -8 -39 -13 -42 -22 -13 -149 93 -149
125 0 48 11 53 48 20 19 -17 54 -39 77 -49z m-40 -138 c48 -28 50 -31 47 -68
-2 -21 -5 -40 -7 -42 -6 -7 -85 39 -120 69 -35 31 -44 64 -29 104 6 14 10 13
33 -8 14 -14 49 -38 76 -55z m-9 -147 c41 -16 41 -17 34 -51 -5 -20 -10 -37
-12 -39 -6 -7 -142 70 -151 86 -6 9 -7 32 -3 53 l7 37 42 -35 c23 -19 61 -42
83 -51z m-97 -99 c28 -19 64 -37 81 -41 31 -7 31 -8 25 -48 -4 -23 -9 -44 -11
-46 -7 -8 -96 32 -124 56 -25 21 -30 32 -30 69 0 24 2 44 4 44 2 0 27 -15 55
-34z m48 -182 c29 -6 33 -10 33 -39 0 -60 -6 -66 -48 -46 -20 9 -55 29 -77 44
-38 25 -40 30 -37 66 l4 39 46 -29 c25 -16 60 -32 79 -35z m-177 -59 c0 -9
-13 -24 -30 -33 -86 -49 -11 -92 162 -93 97 0 122 4 151 29 24 21 21 40 -8 54
-14 6 -25 20 -25 31 0 19 5 20 98 13 109 -8 255 -35 358 -67 l69 -22 -30 -12
c-131 -54 -877 -56 -1225 -4 -77 11 -130 27 -130 39 0 22 325 70 528 78 70 3
82 1 82 -13z m83 -40 c22 -19 44 -35 49 -35 4 0 8 -4 8 -10 0 -14 -45 -12 -84
4 -29 12 -32 17 -28 45 2 17 6 31 9 31 3 0 23 -16 46 -35z m-693 -89 c0 -6 -6
-31 -14 -56 -23 -77 -27 -100 -17 -100 8 0 41 75 56 128 4 15 12 21 23 18 245
-73 1090 -80 1319 -11 32 10 51 11 59 4 11 -9 54 -121 54 -141 0 -14 -114 -65
-170 -76 -30 -6 -97 -16 -149 -21 -126 -14 -142 -31 -29 -31 106 0 215 20 296
54 72 30 72 30 72 11 0 -37 -128 -76 -330 -101 -149 -18 -634 -20 -816 -4
-153 14 -297 36 -355 56 -37 12 -46 19 -42 33 7 26 -14 36 -22 11 -5 -16 -10
-18 -26 -10 -24 13 -25 56 -3 131 24 81 52 128 75 122 11 -3 19 -10 19 -17z
m-146 -133 c-8 -25 -14 -59 -14 -74 0 -104 296 -165 860 -175 472 -9 770 33
833 118 19 26 19 27 -1 92 -23 77 -17 82 47 35 128 -92 67 -193 -164 -267 -80
-26 -223 -57 -355 -77 -88 -13 -504 -17 -626 -6 -391 37 -664 127 -709 234
-21 51 12 109 85 148 55 29 60 25 44 -28z m-109 -233 c38 -42 270 -114 480
-149 179 -30 319 -41 528 -41 363 0 634 53 844 164 37 20 69 33 72 31 15 -16
-20 -63 -69 -93 -108 -64 -301 -107 -550 -122 -288 -16 -298 -17 -480 -8 -478
23 -789 99 -845 207 -18 35 -7 41 20 11z m-6 -84 c95 -64 324 -126 561 -152
264 -28 729 -29 885 0 11 2 43 7 70 10 91 13 251 54 306 79 30 13 71 38 93 56
40 32 63 33 46 1 -24 -44 -187 -112 -365 -151 -163 -36 -288 -50 -525 -56
-365 -9 -634 19 -876 93 -164 49 -264 103 -264 141 0 20 14 16 69 -21z m278
-187 l49 -12 12 -211 c6 -116 21 -319 32 -451 10 -132 33 -431 50 -665 27
-390 42 -587 55 -745 8 -89 13 -167 20 -290 4 -60 17 -236 30 -390 32 -378 39
-515 27 -515 -24 0 -73 24 -82 41 -11 20 -31 238 -55 594 -9 132 -20 269 -25
305 -5 36 -12 117 -15 180 -3 63 -10 158 -15 210 -5 52 -21 244 -35 425 -14
182 -35 436 -46 565 -11 129 -28 345 -39 480 -11 135 -25 286 -30 337 -18 167
-21 162 67 142z m1428 -136 c-9 -181 -11 -217 -29 -413 -8 -85 -20 -245 -26
-355 -12 -205 -38 -581 -64 -920 -21 -258 -34 -457 -41 -600 -3 -66 -8 -165
-11 -220 -7 -141 -44 -588 -49 -602 -2 -7 -23 -22 -46 -34 l-42 -21 7 143 c16
344 47 867 86 1429 11 157 24 364 30 460 6 96 17 276 25 400 15 247 21 346 35
644 5 109 11 201 14 203 4 5 93 30 110 32 5 1 6 -61 1 -146z m-906 67 l46 0 0
-157 c0 -211 16 -1841 24 -2423 3 -256 5 -518 3 -582 l-3 -117 -37 5 c-78 11
-79 11 -86 54 -3 22 -6 161 -6 308 0 147 -5 521 -10 832 -5 311 -12 709 -15
885 -13 770 -16 918 -21 1059 l-7 149 33 -6 c18 -4 53 -7 79 -7z m443 -221
c-6 -123 -10 -352 -11 -509 -4 -594 -34 -2530 -40 -2547 -1 -2 -14 -3 -31 -3
-16 0 -30 -3 -30 -7 0 -5 -24 -6 -54 -5 l-55 4 4 66 c5 79 13 402 35 1402 6
239 13 541 16 670 3 129 8 332 11 450 3 118 8 323 12 455 l6 240 70 5 c39 3
71 4 73 4 1 -1 -1 -102 -6 -225z"/>
<path d="M2190 10822 c0 -8 90 -6 98 3 3 3 -18 5 -46 5 -29 0 -52 -4 -52 -8z"/>
<path d="M4520 12275 c-18 -22 -4 -57 33 -80 26 -16 51 -57 125 -205 176 -349
317 -611 561 -1040 39 -69 71 -130 71 -136 0 -6 -24 -23 -52 -39 -29 -15 -82
-56 -118 -90 -74 -70 -66 -68 -290 -85 -176 -13 -316 -29 -359 -40 -49 -13
-90 -57 -106 -115 -8 -27 -19 -108 -25 -180 -6 -71 -15 -173 -20 -225 -63
-611 -70 -1132 -25 -1919 20 -342 31 -446 56 -498 39 -80 94 -96 384 -113 266
-15 345 -21 345 -30 0 -5 -61 -138 -135 -297 -135 -287 -149 -329 -125 -374
28 -51 139 -65 213 -28 23 12 127 105 232 208 104 103 261 251 348 329 l158
142 122 -6 c147 -7 1048 -6 1304 2 l183 5 137 -123 c76 -68 231 -215 346 -328
115 -113 221 -213 237 -223 36 -23 117 -24 159 -2 17 9 39 31 48 50 15 32 15
37 -2 81 -10 26 -75 162 -145 303 -107 215 -125 257 -111 263 9 4 151 16 316
27 445 31 427 15 475 421 59 505 75 1135 40 1660 -25 368 -59 726 -76 777 -35
108 -103 158 -237 173 -296 35 -1073 95 -1376 107 -91 3 -429 8 -751 10 l-585
4 -44 44 c-24 24 -68 57 -97 72 -30 15 -54 31 -54 34 0 8 121 177 435 604 149
204 290 398 313 432 27 40 52 65 68 69 27 7 54 39 54 64 0 27 -39 60 -69 60
-40 0 -54 -22 -52 -80 l1 -50 -347 -462 c-190 -255 -361 -485 -379 -513 -70
-106 -56 -99 -202 -100 l-130 0 -238 414 c-132 227 -262 457 -290 510 -29 53
-91 168 -139 256 -63 114 -89 173 -93 205 -2 25 -9 51 -15 58 -13 17 -62 15
-77 -3z m1970 -294 c0 -6 -4 -13 -10 -16 -5 -3 -10 1 -10 9 0 9 5 16 10 16 6
0 10 -4 10 -9z m-872 -1206 c53 -16 178 -94 174 -109 -2 -10 -34 -12 -365 -21
-305 -9 -296 -11 -191 61 111 77 263 104 382 69z m1957 -219 c524 -36 1053
-83 1095 -97 41 -14 76 -44 96 -80 21 -42 32 -135 48 -419 8 -146 20 -359 27
-474 13 -227 6 -967 -10 -1156 -15 -173 -61 -603 -67 -635 -9 -45 -32 -75 -70
-91 -33 -14 -185 -25 -544 -39 -85 -3 -234 -13 -330 -21 -96 -8 -263 -18 -370
-22 -390 -14 -1691 -6 -2055 13 -49 3 -184 10 -300 15 -456 23 -612 35 -631
51 -42 35 -54 110 -79 474 -38 578 -44 1151 -16 1570 21 294 62 751 72 788 5
20 21 44 34 53 44 29 219 49 745 85 269 18 737 24 1375 18 498 -5 665 -11 980
-33z m-2176 -3085 l24 -6 -29 -35 c-16 -19 -48 -57 -73 -85 -51 -58 -101 -133
-101 -153 0 -27 61 30 163 154 63 77 109 124 120 124 10 0 17 -3 15 -8 -1 -4
-126 -154 -276 -334 -253 -303 -275 -326 -300 -322 -38 7 -62 32 -62 66 0 15
23 73 50 128 28 55 87 182 131 283 45 100 83 185 86 190 5 9 219 8 252 -2z
m2638 -61 c240 -485 255 -519 249 -545 -5 -18 -18 -31 -43 -41 -34 -15 -37
-15 -59 8 -41 41 -524 623 -524 631 0 26 39 -8 127 -110 114 -132 150 -169
159 -160 13 13 -10 49 -102 158 l-95 114 68 6 c37 3 95 5 128 5 l60 -1 32 -65z"/>
<path d="M5730 10463 c-449 -9 -1027 -59 -1106 -95 -54 -25 -66 -80 -94 -433
-35 -444 -45 -841 -31 -1285 11 -381 33 -750 47 -818 9 -45 52 -88 100 -101
52 -14 269 -27 789 -48 743 -31 2189 -19 2342 19 23 5 49 18 57 27 35 39 39
122 40 841 1 416 7 818 15 981 17 374 12 709 -13 767 -22 50 -63 87 -114 102
-37 10 -212 22 -622 40 -187 8 -1078 10 -1410 3z m1658 -72 c232 -9 392 -25
392 -37 0 -3 -33 -41 -73 -87 -40 -45 -105 -125 -144 -179 -40 -53 -76 -98
-81 -101 -4 -3 -52 16 -104 42 -233 117 -657 186 -1208 198 -374 8 -664 -17
-840 -73 -112 -35 -234 -87 -302 -129 -31 -19 -58 -35 -61 -35 -8 0 -297 329
-297 338 0 13 114 24 695 66 213 16 1598 13 2023 -3z m467 -401 c-3 -140 -12
-372 -20 -515 -10 -176 -15 -482 -16 -945 -1 -377 -4 -698 -8 -714 l-6 -30
-72 62 c-116 100 -247 228 -262 256 -12 22 -11 32 7 83 59 161 90 462 99 943
6 382 -8 598 -49 737 -18 63 -19 75 -7 90 8 10 79 96 158 192 l145 175 19 -39
c17 -37 18 -60 12 -295z m-3128 192 c48 -59 112 -135 142 -170 l54 -63 -28
-56 c-56 -115 -112 -391 -135 -658 -36 -434 32 -846 176 -1067 l17 -26 -164
-171 c-90 -94 -167 -171 -171 -171 -36 0 -78 683 -78 1263 0 433 47 1180 77
1230 7 12 19 1 110 -111z m1833 -16 c14 -2 48 -6 75 -10 247 -36 421 -74 580
-127 257 -86 271 -105 295 -434 29 -385 23 -788 -16 -1085 -17 -132 -58 -304
-81 -339 -42 -65 -342 -158 -648 -200 -204 -28 -603 -34 -810 -12 -147 16
-398 57 -504 82 -123 30 -380 107 -421 127 -44 21 -90 89 -117 173 -125 383
-122 977 9 1462 22 84 48 118 135 178 130 90 407 164 698 188 100 9 745 6 805
-3z m-1478 -2077 c185 -70 373 -116 596 -148 238 -35 403 -44 688 -38 454 8
733 54 963 157 l89 40 171 -171 c95 -95 169 -174 167 -177 -26 -25 -1951 -36
-2436 -14 -333 15 -644 34 -649 38 -2 2 53 61 122 131 70 71 141 147 159 171
18 23 36 42 39 42 4 0 45 -14 91 -31z"/>
<path d="M5445 10293 c-34 -5 -50 -17 -42 -31 8 -12 139 9 141 23 1 11 -51 15
-99 8z"/>
<path d="M5190 10216 c-81 -34 -172 -81 -200 -104 -48 -39 -10 -34 77 11 48
24 111 52 138 61 28 9 64 25 80 36 l30 20 -35 0 c-19 -1 -60 -11 -90 -24z"/>
<path d="M7759 10178 c-12 -22 -6 -158 7 -180 14 -22 24 21 24 104 0 89 -10
115 -31 76z"/>
<path d="M7766 9933 c-9 -10 -7 -103 3 -103 13 0 21 26 21 65 0 33 -11 51 -24
38z"/>
<path d="M7615 8710 c-7 -23 2 -60 16 -60 5 0 9 18 9 40 0 42 -14 54 -25 20z"/>
<path d="M7606 8552 c-3 -5 -8 -54 -12 -108 -3 -54 -17 -142 -29 -194 -24 -96
-19 -142 8 -78 40 94 74 366 49 382 -6 3 -13 2 -16 -2z"/>
<path d="M6412 10067 c-31 -37 -12 -59 108 -122 153 -80 199 -113 300 -215
105 -106 135 -156 226 -382 95 -232 112 -265 150 -288 62 -39 155 -15 188 47
37 72 52 270 39 507 -11 210 -21 244 -72 270 -53 28 -350 110 -601 166 -129
29 -320 39 -338 17z"/>
<path d="M4990 9010 c0 -166 68 -521 120 -633 30 -65 73 -91 211 -132 131 -38
204 -48 204 -26 0 8 -18 20 -40 27 -22 7 -93 28 -157 48 -105 32 -120 40 -151
77 -25 29 -40 59 -51 107 -27 121 -66 347 -81 476 -16 137 -19 146 -41 146
-11 0 -14 -18 -14 -90z"/>
<path d="M7321 8994 c-13 -9 -36 -37 -52 -62 -47 -75 -37 -195 18 -208 35 -9
70 20 84 68 18 65 18 196 -1 208 -20 13 -22 13 -49 -6z"/>
<path d="M5670 8195 c0 -9 10 -20 23 -25 22 -9 182 -30 227 -30 49 0 -5 31
-86 51 -100 23 -164 25 -164 4z"/>
<path d="M7443 7824 c-13 -3 -23 -12 -23 -20 0 -11 22 -14 114 -14 103 0 143
8 117 24 -13 8 -181 16 -208 10z"/>
<path d="M7250 7795 c0 -16 43 -21 74 -9 31 12 16 24 -29 24 -33 0 -45 -4 -45
-15z"/>
<path d="M8681 10265 c0 -38 4 -117 9 -175 10 -102 40 -622 40 -687 0 -42 29
-47 31 -5 4 87 -20 486 -36 602 -3 19 -10 95 -15 169 -12 151 -29 209 -29 96z"/>
<path d="M8228 10279 c-54 -16 -121 -79 -148 -140 -33 -78 -32 -196 3 -272 30
-65 90 -127 155 -159 70 -34 178 -32 248 4 131 68 179 225 115 371 -29 67
-111 150 -173 177 -60 26 -147 34 -200 19z m200 -65 c147 -73 211 -284 120
-400 -54 -68 -198 -95 -283 -54 -127 61 -199 228 -148 341 24 51 75 106 118
125 51 22 134 17 193 -12z"/>
<path d="M8246 10205 c-42 -15 -94 -60 -83 -71 4 -4 24 4 44 18 21 14 56 29
78 32 67 11 80 17 64 27 -20 12 -58 10 -103 -6z"/>
<path d="M8410 10186 c0 -2 7 -9 15 -16 12 -10 15 -10 15 4 0 9 -7 16 -15 16
-8 0 -15 -2 -15 -4z"/>
<path d="M8285 10161 c-78 -19 -125 -80 -125 -160 0 -62 16 -97 64 -139 115
-101 296 -32 296 112 0 118 -122 215 -235 187z m90 -60 c3 -6 -31 -40 -76 -76
-61 -49 -84 -63 -90 -53 -22 33 5 98 49 122 30 17 108 21 117 7z m59 -40 c6
-9 -117 -129 -162 -159 -20 -13 -25 -13 -33 -1 -10 15 25 51 124 130 51 40 62
45 71 30z m45 -103 c1 -36 -42 -85 -89 -99 -39 -12 -90 -6 -90 11 0 5 37 41
82 81 72 64 83 70 89 53 4 -10 8 -31 8 -46z"/>
<path d="M8401 9929 c-13 -17 -21 -33 -18 -36 11 -10 32 5 50 36 24 41 1 41
-32 0z"/>
<path d="M8095 9516 c-18 -18 -25 -36 -25 -63 0 -21 -5 -155 -10 -298 -5 -143
-10 -418 -12 -612 -1 -284 1 -355 12 -368 12 -14 37 -15 244 -9 127 4 239 11
248 16 10 4 22 18 28 29 26 48 53 494 54 880 1 351 0 378 -17 397 -26 28 -67
34 -364 48 -132 6 -132 6 -158 -20z m30 -1263 c-5 -46 -11 -63 -21 -63 -8 0
-17 6 -20 14 -3 7 -1 298 4 645 8 506 13 635 23 648 12 14 14 -77 17 -583 2
-329 0 -627 -3 -661z m150 1243 c17 -12 18 -25 11 -201 -5 -159 -9 -192 -24
-208 -16 -18 -17 -10 -22 189 -3 142 -9 209 -16 211 -9 3 -13 -64 -16 -239 -4
-225 -6 -246 -26 -283 l-21 -40 -2 65 c-3 85 0 202 7 378 l6 142 42 0 c23 0
50 -6 61 -14z m96 -88 c0 -51 3 -135 5 -185 l4 -93 -30 0 -31 0 2 178 c1 97 3
180 6 185 2 4 13 7 24 7 17 0 19 -8 20 -92z m63 86 c14 -5 16 -32 16 -200 0
-198 -4 -216 -38 -182 -15 15 -17 388 -3 388 5 0 16 -3 25 -6z m84 -264 c2
-232 1 -253 -13 -239 -23 23 -35 175 -28 352 5 128 8 147 22 145 14 -3 16 -34
19 -258z m73 234 c11 -13 11 -102 1 -512 -14 -571 -25 -728 -54 -743 -17 -9
-18 -5 -18 48 0 32 4 105 9 163 16 172 24 446 23 763 -1 243 1 297 12 297 7 0
19 -7 27 -16z m-215 -430 c3 -25 3 -149 -1 -277 -4 -128 -7 -256 -6 -284 3
-85 -7 -123 -34 -123 l-23 0 5 353 c2 193 6 358 8 365 3 6 13 12 24 12 16 0
21 -9 27 -46z m135 -289 c0 -103 -16 -200 -40 -243 -9 -16 -7 135 6 338 l6
105 14 -45 c8 -26 14 -92 14 -155z m-312 -47 c0 -71 -4 -112 -8 -98 -7 24 -3
220 5 220 2 0 4 -55 3 -122z m-15 -270 c20 -47 28 -123 20 -185 -5 -43 -10
-53 -25 -53 -18 0 -19 9 -19 135 0 74 2 135 6 135 3 0 11 -15 18 -32z m306
-110 c-5 -108 -11 -128 -37 -128 -13 0 -15 12 -11 83 4 76 26 147 46 147 4 0
5 -46 2 -102z m-228 5 c30 -27 20 -133 -13 -133 -17 0 -19 8 -19 75 0 41 3 75
7 75 3 0 15 -7 25 -17z m158 -63 c0 -66 -1 -70 -22 -70 -22 0 -23 3 -19 62 3
57 12 77 34 78 4 0 7 -31 7 -70z m-60 2 c0 -51 -12 -72 -43 -72 -18 0 -19 5
-14 50 7 61 12 70 38 70 16 0 19 -7 19 -48z"/>
<path d="M8736 9264 c-8 -20 -8 -148 0 -168 15 -39 24 -9 24 78 0 89 -10 126
-24 90z"/>
<path d="M8086 7966 c-82 -15 -96 -30 -96 -102 0 -78 14 -87 114 -79 122 10
132 21 126 135 -3 64 -18 68 -144 46z m107 -43 c3 -10 5 -32 5 -50 1 -37 -3
-39 -99 -48 l-66 -7 -7 47 c-4 26 -5 49 -2 52 5 5 83 16 148 22 9 0 19 -7 21
-16z"/>
<path d="M4524 7658 c-8 -13 18 -20 114 -28 191 -17 342 -22 342 -12 0 15 -35
22 -180 32 -192 14 -271 16 -276 8z"/>
<path d="M5057 7624 c-15 -15 8 -24 63 -24 58 0 85 12 54 24 -21 8 -109 8
-117 0z"/>
<path d="M5168 7133 c-9 -10 -19 -28 -22 -40 -13 -40 22 -27 44 17 16 31 17
40 7 40 -8 0 -21 -8 -29 -17z"/>
<path d="M7970 7148 c0 -19 38 -78 50 -78 13 0 13 13 -1 43 -13 28 -49 54 -49
35z"/>
<path d="M11011 12258 c-6 -18 -27 -114 -46 -213 -20 -99 -41 -186 -47 -193
-6 -7 -80 -54 -163 -103 -164 -98 -240 -151 -262 -186 -14 -20 -13 -24 11 -47
13 -14 100 -62 191 -107 125 -61 169 -87 175 -105 9 -23 38 -162 80 -379 23
-122 53 -196 95 -237 31 -31 75 -37 95 -13 7 8 44 38 84 67 39 29 111 83 159
121 118 93 126 96 287 81 72 -7 196 -15 276 -19 151 -8 174 -3 174 35 0 18
-173 394 -210 456 -27 48 -26 62 16 136 71 123 144 281 144 310 0 18 -17 53
-47 96 l-48 67 -110 -6 c-60 -3 -183 -10 -272 -14 l-163 -8 -47 44 c-110 103
-313 249 -345 249 -10 0 -21 -13 -27 -32z m224 -174 c190 -166 196 -169 300
-159 44 4 99 8 122 10 56 5 203 25 231 32 29 7 24 -8 -44 -112 -73 -113 -174
-299 -174 -319 0 -28 40 -114 100 -216 96 -162 111 -191 108 -199 -2 -4 -34
-2 -73 5 -308 54 -369 63 -395 58 -20 -4 -87 -59 -202 -165 l-173 -159 -13 47
c-7 27 -15 68 -18 93 -11 101 -36 248 -51 303 -19 69 -31 79 -174 143 -129 58
-202 97 -206 110 -2 5 32 30 74 54 102 57 292 178 319 202 23 20 42 98 69 273
21 138 23 147 38 138 7 -4 80 -66 162 -139z m633 -483 c3 -8 -1 -12 -9 -9 -7
2 -15 10 -17 17 -3 8 1 12 9 9 7 -2 15 -10 17 -17z m-39 -37 c29 -37 26 -50
-6 -29 -33 21 -53 44 -53 62 0 19 32 1 59 -33z m-160 -553 c9 -6 10 -11 2 -15
-6 -4 -11 -1 -11 6 0 10 -2 11 -8 0 -5 -7 -16 -10 -26 -6 -14 5 -15 9 -4 15
17 11 29 11 47 0z m267 -16 c17 -13 14 -14 -37 -15 -83 0 -158 11 -134 21 36
14 150 10 171 -6z m-792 -186 c10 -17 15 -33 12 -36 -3 -4 -6 -1 -6 6 0 7 -4
10 -10 6 -8 -5 -40 43 -40 59 0 14 28 -8 44 -35z m66 5 c0 -8 -6 -11 -16 -7
-13 5 -13 7 -2 14 10 7 10 9 1 9 -7 0 -13 5 -13 11 0 8 5 8 15 -1 8 -7 15 -19
15 -26z"/>
<path d="M11713 11807 c-35 -40 -99 -152 -109 -191 -11 -44 25 -30 49 19 11
22 39 72 63 111 24 40 44 77 44 83 0 20 -17 12 -47 -22z"/>
<path d="M11026 11296 c-7 -30 11 -167 24 -180 19 -19 35 14 33 65 -2 43 -34
139 -46 139 -3 0 -8 -11 -11 -24z"/>
<path d="M11059 11046 c-7 -8 -5 -44 3 -53 14 -17 25 -16 32 3 9 23 -1 51 -19
51 -8 0 -15 -1 -16 -1z"/>
<path d="M9466 11565 c-9 -9 -19 -28 -22 -41 -11 -43 11 -346 27 -371 33 -53
49 -14 49 121 0 44 7 112 15 151 8 38 15 79 15 91 0 45 -55 77 -84 49z"/>
<path d="M9048 11098 c-22 -7 -28 -16 -28 -39 0 -23 6 -32 28 -40 33 -14 223
-5 270 12 29 10 32 14 20 26 -8 7 -25 16 -39 18 -13 2 -64 11 -114 19 -102 18
-100 18 -137 4z"/>
<path d="M9789 11096 c-3 -3 -33 -9 -69 -15 -35 -6 -70 -17 -79 -25 -13 -13
-11 -16 11 -25 45 -17 265 -26 283 -11 22 18 19 46 -7 64 -21 15 -127 23 -139
12z"/>
<path d="M9479 10903 c-12 -32 -27 -119 -36 -210 -6 -70 4 -93 43 -93 39 0 45
30 37 184 -8 144 -21 178 -44 119z"/>
<path d="M10767 9771 c-20 -22 -44 -52 -53 -68 -10 -15 -21 -30 -25 -33 -17
-13 -212 -320 -238 -374 -63 -134 -97 -298 -87 -420 20 -241 98 -434 297 -737
110 -167 153 -247 193 -359 39 -108 56 -187 57 -271 3 -198 -72 -260 -326
-274 -222 -12 -323 -37 -473 -115 -183 -95 -287 -244 -328 -470 -25 -138 -15
-273 34 -480 11 -47 28 -121 37 -165 10 -44 30 -125 46 -180 16 -55 44 -172
63 -260 68 -312 101 -435 117 -435 14 0 404 -138 499 -177 47 -19 167 -79 266
-134 100 -54 217 -115 260 -135 160 -73 163 -72 145 89 -18 156 -70 402 -125
592 -26 88 -49 171 -52 185 -3 14 -12 48 -19 75 -49 171 -69 300 -70 450 0
146 1 152 33 230 61 152 168 260 302 305 71 23 159 35 380 49 235 15 318 54
380 175 35 68 35 71 35 195 -1 250 -65 406 -383 930 -120 197 -142 245 -166
364 -52 248 13 457 234 753 62 82 120 165 130 185 19 36 19 37 -3 56 -35 32
-105 69 -212 111 -93 37 -158 60 -542 193 -169 59 -243 93 -243 113 0 16 -89
76 -112 76 -9 0 -32 -18 -51 -39z m61 -37 c29 -20 28 -45 -4 -83 -22 -26 -28
-29 -44 -18 -30 18 -32 36 -8 78 25 44 26 45 56 23z m141 -73 c41 -21 188 -75
471 -174 324 -113 370 -133 341 -151 -16 -10 -115 -148 -180 -251 -76 -120
-98 -145 -120 -138 -31 10 -798 388 -810 399 -6 5 41 75 91 135 26 32 48 63
48 69 0 5 4 10 10 10 5 0 28 27 52 60 23 33 46 60 50 60 5 0 26 -9 47 -19z
m-231 -123 c-22 -39 -36 -45 -68 -28 -22 12 -18 30 18 78 l24 33 24 -22 24
-22 -22 -39z m-94 -87 c16 -17 16 -22 2 -55 -15 -37 -33 -44 -67 -26 -24 13
-24 21 2 64 24 41 38 44 63 17z m-96 -153 c16 -16 15 -43 -3 -78 -14 -27 -17
-28 -45 -19 -16 6 -30 12 -30 14 0 2 9 24 20 49 19 46 36 56 58 34z m1303 -9
c20 -20 20 -21 2 -51 -25 -43 -47 -55 -67 -39 -21 17 -20 42 2 80 20 36 34 39
63 10z m-994 -105 c407 -198 559 -274 582 -293 l25 -19 -37 -108 c-39 -116
-57 -207 -57 -291 l0 -51 -187 48 c-181 47 -573 163 -593 175 -40 24 -63 292
-36 407 23 98 75 228 91 228 8 0 103 -43 212 -96z m908 -34 c8 -13 -35 -90
-50 -90 -6 0 -19 6 -29 13 -21 16 -16 41 15 81 16 21 24 24 39 16 10 -6 22
-15 25 -20z m-1266 -24 c8 -10 9 -26 2 -56 -12 -53 -15 -56 -49 -44 -23 9 -27
14 -24 44 2 19 8 43 13 52 12 21 42 23 58 4z m1168 -122 c3 -8 0 -28 -7 -44
-9 -23 -19 -30 -39 -30 -50 0 -55 13 -24 62 23 38 31 44 46 36 10 -5 21 -16
24 -24z m-1183 -91 c11 -56 4 -73 -34 -73 l-30 0 0 61 c0 60 0 60 28 57 23 -3
28 -9 36 -45z m1073 -48 c14 -10 20 -22 17 -33 -25 -76 -34 -84 -69 -58 -18
13 -18 15 -1 60 20 51 22 53 53 31z m-1049 -144 c18 -60 15 -78 -13 -85 -36
-9 -41 -3 -49 54 -8 59 -3 70 28 70 18 0 25 -8 34 -39z m1010 -56 c3 -41 -19
-81 -44 -77 -31 6 -37 18 -30 67 7 45 8 46 39 43 27 -3 32 -7 35 -33z m-948
-117 c32 -51 36 -79 15 -95 -32 -22 -45 -15 -70 39 -22 48 -23 54 -8 70 23 26
41 22 63 -14z m445 -109 l371 -111 27 -102 c16 -56 52 -153 81 -216 30 -63 53
-116 52 -117 -4 -5 -131 32 -291 83 -93 31 -210 66 -259 79 -49 14 -90 26 -91
27 -1 2 -10 19 -20 38 -10 19 -59 100 -110 180 -138 218 -156 250 -138 250 5
0 175 -50 378 -111z m479 65 c3 -9 6 -36 6 -60 0 -45 0 -45 -32 -42 -31 3 -32
4 -36 61 l-4 57 30 0 c18 0 32 -6 36 -16z m-794 -210 c0 -19 -17 -34 -39 -34
-5 0 -19 21 -32 46 -24 45 -24 45 -4 60 19 14 22 13 48 -18 15 -18 27 -42 27
-54z m820 -3 c18 -45 10 -85 -19 -89 -31 -5 -41 12 -41 71 0 43 2 47 24 47 17
0 27 -8 36 -29z m-732 -134 c26 -47 27 -48 8 -62 -24 -18 -39 -7 -67 48 -16
31 -18 41 -8 53 19 24 38 12 67 -39z m807 -69 l25 -53 -21 -17 c-29 -25 -36
-23 -59 15 -28 44 -34 75 -20 92 25 30 50 17 75 -37z m-689 -113 c30 -56 28
-70 -10 -77 -37 -6 -87 112 -53 125 27 11 36 5 63 -48z m267 -51 c111 -36 254
-79 317 -95 85 -21 119 -35 132 -51 43 -56 181 -282 206 -340 37 -81 66 -168
58 -175 -4 -4 -541 125 -737 177 l-35 10 -13 101 c-14 111 -51 238 -106 355
-37 81 -38 84 -30 84 3 0 96 -30 208 -66z m525 -32 c23 -42 24 -44 6 -57 -28
-21 -31 -19 -60 30 -22 37 -24 48 -13 61 19 24 42 12 67 -34z m-702 -117 c21
-51 18 -74 -10 -81 -34 -8 -41 -2 -56 52 -11 39 -11 47 1 55 28 18 50 9 65
-26z m820 -113 c-19 -20 -42 -9 -66 30 -49 81 -4 113 48 34 28 -43 30 -52 18
-64z m-761 -130 l0 -57 -38 -3 -38 -3 3 62 c3 58 5 64 28 70 36 9 44 -4 45
-69z m867 3 c25 -46 26 -51 11 -62 -32 -24 -50 -15 -72 38 -25 58 -22 82 11
77 16 -2 32 -19 50 -53z m-893 -144 c10 -7 12 -19 6 -47 -5 -22 -8 -41 -7 -44
0 -3 -14 -23 -32 -45 -33 -39 -33 -39 -60 -22 -33 22 -33 34 4 107 31 61 53
74 89 51z m525 -115 c401 -95 367 -75 367 -216 1 -95 -14 -140 -58 -184 -54
-55 -168 -83 -268 -65 -78 13 -395 93 -650 162 -297 81 -359 99 -369 109 -6 4
30 8 80 8 178 1 304 38 365 108 34 38 69 108 73 146 4 41 13 45 64 30 26 -8
204 -52 396 -98z m447 82 c16 -30 29 -87 20 -92 -3 -2 -18 -6 -33 -10 -26 -6
-28 -3 -43 46 -19 64 -19 57 8 68 32 13 35 12 48 -12z m-1131 -159 c14 -24 15
-23 -29 -38 -55 -18 -108 -14 -114 8 -4 16 4 22 52 34 77 20 79 20 91 -4z
m-207 -31 c8 -29 -7 -38 -69 -38 -50 0 -64 9 -64 40 0 10 30 17 86 19 35 1 43
-2 47 -21z m-205 -25 c3 -19 -3 -23 -44 -29 -39 -6 -49 -4 -61 12 -7 10 -13
21 -13 25 0 11 30 17 75 16 33 -2 41 -6 43 -24z m1607 -6 c4 -18 5 -49 3 -68
-3 -29 -7 -34 -32 -37 -37 -5 -46 10 -46 75 0 41 4 52 18 56 42 11 51 7 57
-26z m-1757 -19 c4 -23 -66 -47 -79 -27 -13 20 -11 27 9 38 25 15 66 9 70 -11z
m-124 -34 c10 -26 8 -30 -35 -59 -33 -21 -43 -24 -50 -13 -15 23 -10 34 28 61
44 31 49 32 57 11z m359 -69 c60 -19 148 -46 195 -59 119 -34 612 -166 620
-166 4 -1 -30 -14 -75 -29 -155 -53 -300 -156 -393 -279 l-25 -33 -430 106
c-236 58 -436 107 -443 110 -9 3 -6 21 12 69 60 159 165 264 311 312 53 18 99
12 228 -31z m-483 -30 c10 -11 6 -22 -17 -54 -15 -23 -31 -41 -34 -41 -3 0
-14 9 -23 19 -16 18 -16 21 14 55 36 40 42 42 60 21z m1967 -21 c12 -3 24 -12
27 -20 8 -21 -22 -97 -52 -134 l-28 -33 -27 24 -28 24 32 73 c32 73 37 76 76
66z m-2073 -117 c17 -13 18 -15 0 -70 -16 -51 -21 -57 -45 -57 -14 0 -32 7
-39 15 -9 10 -9 15 -1 15 6 0 11 7 11 15 0 20 38 95 48 95 5 0 16 -6 26 -13z
m1927 -78 c15 -28 4 -37 -65 -51 -48 -11 -59 -10 -66 2 -17 26 -11 40 18 40
15 1 41 7 57 15 41 18 43 18 56 -6z m-203 -45 c3 -18 -3 -22 -48 -27 -57 -7
-76 -2 -84 20 -11 27 5 34 67 31 54 -3 62 -6 65 -24z m-204 -7 c15 -24 -6 -37
-65 -37 -38 0 -48 4 -52 20 -10 37 95 52 117 17z m-156 -34 c3 -18 -3 -23 -33
-29 -27 -5 -40 -3 -46 7 -14 22 -11 27 19 37 38 15 57 10 60 -15z m-1406 -78
c-3 -59 -10 -68 -46 -59 -22 5 -26 12 -26 41 0 51 16 75 48 71 26 -3 27 -5 24
-53z m1285 29 c2 -12 -11 -28 -37 -46 -38 -26 -40 -27 -50 -8 -14 26 -14 26
27 55 42 28 57 28 60 -1z m-1137 -74 c24 -9 120 -34 170 -44 65 -14 589 -152
594 -157 3 -3 -5 -59 -19 -125 -14 -65 -25 -143 -25 -173 0 -60 27 -237 40
-262 23 -45 -1 -42 -371 46 -200 48 -367 90 -371 94 -8 7 -77 290 -84 346 -3
17 -7 41 -10 54 -12 57 -23 184 -17 212 5 27 8 29 37 24 17 -3 42 -10 56 -15z
m1018 -39 c-55 -71 -53 -70 -78 -51 l-23 17 38 42 c36 39 39 41 56 25 15 -14
17 -20 7 -33z m-1190 -31 c8 0 12 -19 12 -60 0 -57 -1 -60 -25 -60 -30 0 -41
22 -44 89 -2 41 -1 43 21 37 13 -3 29 -6 36 -6z m1080 -78 l22 -17 -22 -58
c-25 -62 -25 -62 -62 -47 -25 9 -25 10 -12 47 20 55 38 93 45 93 3 0 16 -8 29
-18z m-1036 -146 c17 -62 12 -78 -23 -72 -13 3 -27 5 -30 5 -11 2 -32 89 -26
106 4 9 18 15 35 15 26 0 30 -5 44 -54z m993 -86 c-1 -71 -8 -81 -46 -68 -30
10 -31 13 -25 51 8 50 23 69 50 65 18 -3 21 -10 21 -48z m-956 -87 c15 -74 15
-73 -14 -73 -30 0 -51 30 -60 88 l-7 42 35 0 c34 0 34 -1 46 -57z m944 -81
c11 -57 4 -72 -32 -72 -29 0 -29 1 -33 60 l-3 61 30 -3 c26 -3 30 -8 38 -46z
m-926 -40 c14 -9 33 -56 33 -83 0 -14 -7 -19 -25 -19 -28 0 -51 30 -61 78 -6
29 -4 32 17 32 13 0 29 -4 36 -8z m952 -123 c6 -18 11 -45 11 -61 0 -27 -3
-29 -32 -26 -29 3 -34 8 -45 48 -16 56 -11 70 26 70 24 0 31 -6 40 -31z m-443
-100 l352 -82 6 -41 c4 -23 31 -133 60 -246 30 -113 68 -274 86 -359 17 -84
38 -171 46 -193 28 -81 22 -84 -58 -38 -207 117 -410 209 -630 286 l-107 38
-6 45 c-32 237 -90 525 -124 614 -17 44 -14 69 7 64 9 -3 175 -42 368 -88z
m-444 11 c25 -83 24 -92 -14 -88 -31 3 -33 6 -45 57 -22 102 28 128 59 31z
m924 -89 c4 -20 10 -41 15 -47 5 -6 3 -18 -4 -29 -22 -29 -55 -11 -68 38 -6
23 -14 51 -19 62 -7 18 -4 20 31 17 35 -4 39 -7 45 -41z m-887 -73 c4 -13 11
-44 14 -70 6 -46 5 -48 -17 -48 -31 0 -42 15 -54 75 -12 57 -9 65 24 65 16 0
27 -7 33 -22z m926 -81 c18 -26 20 -74 3 -80 -28 -9 -48 7 -62 50 -9 25 -14
49 -11 53 8 13 55 -2 70 -23z m-879 -143 c6 -39 5 -42 -21 -48 -15 -4 -29 -5
-31 -3 -2 2 -7 24 -10 49 -6 43 -5 47 17 50 32 5 37 0 45 -48z m929 -50 c20
-70 17 -88 -16 -92 -24 -3 -28 2 -38 42 -19 79 -14 106 20 106 13 0 22 -15 34
-56z m-899 -90 c8 -43 -2 -54 -38 -47 -25 5 -28 10 -28 44 0 37 2 39 30 39 26
0 30 -4 36 -36z m933 -62 c5 -10 13 -42 17 -70 l7 -52 -30 0 c-26 0 -31 5 -41
39 -16 50 -15 88 1 94 24 10 36 7 46 -11z m45 -204 c3 -13 6 -35 6 -50 0 -24
-4 -28 -29 -28 -26 0 -29 4 -35 42 -5 29 -3 44 6 50 23 14 46 8 52 -14z m30
-154 c3 -9 6 -27 6 -40 0 -20 -5 -24 -29 -24 -30 0 -41 14 -41 56 0 20 5 24
29 24 17 0 31 -6 35 -16z"/>
<path d="M3537 7686 c-8 -8 -22 -45 -31 -82 -23 -91 -39 -118 -113 -196 -76
-78 -76 -82 3 -167 49 -54 104 -148 111 -194 5 -31 23 -57 39 -57 20 0 64 45
64 65 0 43 62 149 120 205 33 32 60 63 60 68 0 6 -25 39 -55 74 -53 59 -79
105 -139 241 -26 60 -35 66 -59 43z m27 -173 c-15 -24 -34 -28 -34 -6 0 26 21
46 34 33 7 -7 7 -16 0 -27z m-54 -97 c0 -14 -12 -38 -26 -55 -26 -31 -54 -41
-54 -20 0 12 67 99 76 99 2 0 4 -11 4 -24z"/>
<path d="M6332 6637 c-19 -23 -22 -62 -14 -194 7 -108 12 -136 27 -153 18 -20
19 -20 26 -2 4 10 8 54 8 98 1 43 6 97 11 119 5 22 10 57 10 77 0 54 -41 88
-68 55z"/>
<path d="M3071 6455 c-160 -37 -304 -143 -366 -269 -38 -78 -61 -195 -50 -253
l6 -35 -38 7 c-20 4 -73 18 -116 32 -44 13 -87 26 -96 28 -9 3 -115 36 -236
75 -121 39 -235 72 -254 73 -31 2 -37 -3 -57 -38 -13 -21 -37 -78 -54 -126
-17 -47 -37 -94 -44 -105 -13 -18 -16 -18 -68 -1 -30 9 -66 17 -80 17 -49 0
-96 -78 -105 -174 -5 -57 -3 -65 18 -85 13 -11 47 -29 77 -38 46 -15 52 -20
48 -38 -7 -29 -35 -95 -40 -95 -14 0 -219 76 -258 96 -26 13 -56 24 -66 24
-50 0 -104 -80 -156 -232 -31 -91 -34 -150 -8 -176 18 -18 145 -70 272 -111
98 -32 94 -26 92 -133 -4 -148 48 -298 138 -401 57 -65 300 -202 515 -292 50
-21 209 -80 354 -131 145 -52 266 -96 269 -99 5 -5 -109 -131 -331 -362 -273
-286 -885 -939 -966 -1031 -76 -87 -81 -95 -81 -138 0 -42 5 -51 43 -89 54
-54 106 -68 153 -39 32 20 208 204 520 545 479 523 603 654 611 645 4 -4 -15
-49 -146 -351 -34 -77 -150 -347 -257 -600 -108 -253 -205 -478 -215 -500 -10
-22 -56 -128 -103 -235 -46 -107 -124 -280 -171 -385 -131 -286 -128 -280
-122 -307 21 -83 144 -142 230 -109 13 5 30 24 37 43 8 18 49 110 93 203 43
94 101 224 129 289 80 192 376 856 503 1131 13 28 52 118 88 200 36 83 90 206
122 275 31 69 88 200 125 292 81 198 87 209 94 188 5 -14 102 -404 111 -446 7
-33 138 -568 200 -814 31 -124 58 -235 61 -247 11 -52 124 -534 134 -572 6
-23 27 -58 48 -80 71 -75 168 -75 242 -1 68 68 74 21 -81 605 -48 182 -115
436 -149 565 -34 129 -115 431 -181 670 -66 239 -118 440 -117 446 2 7 51 -5
138 -33 435 -143 608 -162 835 -89 160 51 331 180 430 325 l47 69 75 -25 c58
-20 80 -23 97 -15 19 8 38 54 104 249 44 131 90 272 102 313 l22 74 -22 18
c-22 18 -81 38 -112 38 -29 0 -30 18 -8 86 16 48 21 82 18 125 -4 53 -11 69
-70 156 -37 54 -77 108 -90 120 -13 12 -69 34 -133 53 -146 41 -268 81 -278
89 -4 4 9 28 28 54 54 71 85 141 103 229 28 145 -7 280 -101 384 -91 101 -202
152 -352 161 -110 7 -220 -17 -334 -73 -55 -27 -76 -34 -79 -24 -3 7 -23 49
-44 93 -95 188 -304 313 -538 323 -61 2 -118 -2 -159 -11z m271 -64 c134 -34
264 -117 333 -211 39 -53 95 -166 95 -192 0 -32 20 -29 94 16 94 57 173 84
272 92 208 16 389 -78 467 -243 29 -61 32 -77 32 -158 0 -61 -6 -107 -18 -142
-32 -93 -127 -220 -199 -267 -25 -16 -30 -16 -100 4 -204 60 -687 213 -958
302 -168 56 -377 122 -464 147 l-160 47 -13 49 c-9 31 -13 88 -11 151 3 90 7
107 36 167 97 197 353 299 594 238z m-1340 -423 l85 -93 -49 -150 c-27 -82
-50 -157 -52 -165 -1 -8 -10 -33 -20 -55 -30 -69 -122 -324 -171 -475 -67
-209 -98 -343 -99 -432 l-1 -77 -23 27 c-73 88 -140 289 -126 379 l6 44 46 -2
c41 -3 47 0 69 31 49 70 102 189 113 253 15 83 2 114 -57 142 -48 22 -49 24
-27 81 l16 41 61 -1 62 -1 30 46 c17 25 39 70 48 101 24 75 13 103 -52 130
l-49 21 34 96 c48 133 55 151 64 151 4 0 46 -42 92 -92z m330 -19 c166 -50
311 -95 320 -100 17 -9 53 -68 46 -74 -2 -1 -17 -10 -34 -18 -38 -19 -77 -11
-276 62 -73 26 -165 56 -205 65 -71 18 -72 18 -122 87 -28 38 -47 69 -42 69 5
0 146 -41 313 -91z m948 -474 c608 -202 1261 -419 1452 -482 l347 -114 -21
-52 c-12 -29 -71 -200 -133 -382 -61 -181 -125 -357 -143 -391 -64 -119 -196
-241 -337 -312 -156 -78 -342 -102 -490 -64 -188 49 -545 159 -738 228 -115
41 -288 97 -385 125 -289 82 -486 150 -713 246 -146 63 -231 110 -292 163 -63
56 -77 86 -77 162 0 55 21 125 156 533 86 259 157 475 159 480 1 6 5 17 8 25
3 8 20 59 38 113 25 76 36 98 48 94 9 -2 513 -170 1121 -372z m-1445 240 c-11
-72 -25 -114 -48 -139 l-22 -24 -77 24 -78 25 29 57 c15 31 32 75 36 97 4 22
9 43 11 47 3 4 38 -5 80 -20 l76 -27 -7 -40z m45 -26 c-14 -50 -55 -135 -70
-144 -15 -9 -12 1 14 53 13 26 27 63 31 82 7 35 24 64 32 56 2 -2 -1 -23 -7
-47z m1005 -14 c139 -42 363 -124 370 -135 6 -10 -204 49 -357 100 -214 71
-224 99 -13 35z m595 -206 c0 -12 -3 -12 -68 7 -65 19 -66 19 -58 33 7 11 126
-26 126 -40z m-2180 -10 l0 -29 -21 21 c-16 16 -18 23 -9 35 17 20 30 8 30
-27z m87 6 c3 -9 3 -18 1 -21 -9 -9 -38 8 -38 22 0 19 29 18 37 -1z m349 -160
c-7 -71 -30 -144 -76 -235 -40 -79 -34 -74 -59 -61 -20 11 -20 12 9 74 17 34
30 68 30 75 0 29 -22 8 -50 -48 -28 -56 -53 -81 -66 -67 -3 3 2 19 10 36 18
34 21 65 6 56 -6 -4 -17 -22 -25 -41 -8 -19 -18 -34 -23 -34 -12 0 -182 57
-188 63 -3 3 11 33 30 68 35 64 69 163 80 230 l6 36 161 -46 160 -46 -5 -60z
m-358 96 c3 -8 -1 -12 -9 -9 -7 2 -15 10 -17 17 -3 8 1 12 9 9 7 -2 15 -10 17
-17z m-107 -80 c-21 -51 -88 -151 -103 -151 -4 0 -8 11 -8 25 0 18 5 25 20 25
24 0 52 42 82 125 13 33 24 53 26 44 1 -9 -6 -39 -17 -68z m94 38 c10 -15 -1
-23 -20 -15 -9 3 -13 10 -10 16 8 13 22 13 30 -1z m-15 -54 c0 -9 -6 -12 -15
-9 -8 4 -15 10 -15 15 0 5 7 9 15 9 8 0 15 -7 15 -15z m3374 -81 c175 -50 230
-73 214 -90 -4 -3 -44 6 -90 19 -192 58 -198 42 -8 -23 69 -23 133 -46 143
-51 27 -15 21 -32 -10 -25 -76 17 -96 19 -89 8 3 -6 31 -16 61 -22 30 -6 65
-20 77 -31 21 -19 21 -20 3 -16 -11 3 -28 8 -39 12 -13 6 -17 4 -14 -5 2 -7
22 -19 43 -27 41 -14 62 -29 54 -38 -4 -3 -658 209 -739 241 -10 3 6 14 43 29
31 13 74 38 95 54 20 17 43 29 51 26 7 -3 100 -30 205 -61z m-3390 31 c-5 -12
-10 -13 -20 -4 -19 15 -18 19 6 19 13 0 18 -5 14 -15z m-24 -35 c0 -5 -7 -10
-15 -10 -8 0 -15 5 -15 10 0 6 7 10 15 10 8 0 15 -4 15 -10z m-20 -42 c0 -6
-7 -7 -16 -4 -9 3 -18 6 -20 6 -3 0 -3 4 1 10 7 11 35 2 35 -12z m-20 -28 c0
-5 -9 -10 -20 -10 -11 0 -20 5 -20 10 0 6 9 10 20 10 11 0 20 -4 20 -10z
m3883 -521 c36 -9 46 -22 28 -33 -5 -3 -26 1 -46 10 -40 16 -51 14 -42 -11 4
-9 19 -15 36 -15 33 0 44 -10 35 -34 -5 -13 -14 -15 -40 -10 -43 8 -45 -9 -4
-26 25 -10 29 -17 24 -34 -9 -29 -10 -29 -32 -17 -12 6 -30 11 -41 11 -31 0
-15 -27 24 -40 29 -10 33 -14 26 -33 -6 -16 -15 -21 -35 -19 -30 4 -35 -14 -6
-23 20 -6 25 -21 14 -48 -5 -14 -10 -14 -46 -1 -22 7 -44 11 -50 8 -16 -10 11
-32 48 -39 30 -5 34 -9 28 -28 -9 -31 -11 -32 -37 -20 -28 13 -55 2 -35 -14 7
-5 21 -13 31 -16 20 -8 23 -47 3 -47 -8 0 -27 5 -42 10 -15 6 -34 8 -42 5 -23
-8 4 -33 44 -41 20 -4 34 -12 34 -20 0 -20 -22 -27 -52 -15 -27 10 -54 -1 -44
-18 4 -6 21 -15 39 -20 l32 -9 -31 -1 c-31 -1 -92 15 -107 29 -6 5 135 435
182 554 12 30 8 30 104 5z m-2245 -695 c7 -5 -20 -78 -54 -146 -18 -36 -55
-92 -82 -125 -54 -63 -281 -312 -396 -433 -39 -41 -237 -254 -440 -473 -311
-335 -372 -397 -395 -397 -30 0 -59 27 -85 78 l-17 33 92 97 c51 53 147 153
214 222 67 69 310 323 541 565 595 625 568 598 596 590 13 -4 25 -9 26 -11z
m73 -52 c-5 -15 -25 -69 -45 -120 -45 -114 -55 -157 -35 -150 12 4 61 117 95
223 19 59 28 70 47 62 13 -5 12 -15 -8 -64 -13 -32 -26 -73 -30 -90 -12 -60
10 -34 44 52 25 62 39 85 50 83 29 -6 23 -36 -38 -180 -86 -206 -392 -895
-547 -1233 -12 -27 -67 -153 -122 -280 -55 -126 -126 -286 -157 -355 -31 -69
-113 -251 -181 -405 -155 -350 -155 -349 -179 -353 -26 -4 -86 36 -95 64 -10
26 3 60 140 374 61 140 150 345 197 455 47 110 96 223 108 250 13 28 48 104
78 170 30 66 112 246 182 400 157 344 351 797 416 967 26 70 53 137 59 148 15
29 30 16 21 -18z m288 -61 l45 -18 63 -249 c133 -520 386 -1456 505 -1869 25
-88 20 -141 -18 -174 -49 -41 -132 -11 -165 60 -21 44 -56 180 -323 1258 -220
887 -224 905 -210 944 16 46 32 67 48 66 6 0 31 -8 55 -18z"/>
<path d="M3094 6346 c-104 -33 -241 -139 -269 -208 -9 -23 -11 -38 -5 -38 5 0
10 4 10 9 0 4 27 38 61 74 137 151 328 190 502 104 90 -45 145 -91 202 -172
60 -83 93 -160 108 -253 8 -45 19 -78 27 -80 37 -13 -31 237 -90 327 -69 109
-213 213 -330 240 -61 14 -166 13 -216 -3z"/>
<path d="M3182 6109 c-43 -28 -62 -67 -62 -125 0 -40 5 -51 38 -84 44 -44 105
-58 167 -38 108 36 114 201 8 253 -45 22 -111 19 -151 -6z m128 -44 c38 -20
60 -53 60 -90 0 -40 -8 -50 -54 -65 -54 -17 -110 0 -136 43 -26 42 -25 69 3
101 26 30 81 35 127 11z"/>
<path d="M4548 5825 c-3 -3 -1 -28 5 -56 10 -50 29 -62 35 -20 4 22 -30 86
-40 76z"/>
<path d="M4160 5808 c-42 -23 -72 -77 -67 -121 13 -97 126 -129 198 -57 24 24
29 37 29 77 0 41 -5 54 -29 77 -34 32 -94 43 -131 24z m64 -48 c39 -14 59 -52
45 -83 -17 -39 -59 -52 -98 -33 -63 33 -49 100 26 125 1 1 13 -3 27 -9z"/>
<path d="M4554 5613 c-41 -103 -72 -152 -126 -204 -32 -30 -58 -59 -58 -62 0
-4 8 -7 19 -7 47 0 170 176 196 283 11 41 -13 34 -31 -10z"/>
<path d="M2219 5728 c-26 -26 -189 -538 -189 -593 1 -42 39 29 71 130 17 55
56 176 86 269 55 172 64 226 32 194z"/>
<path d="M2586 5450 c-79 -70 -143 -265 -117 -358 7 -24 20 -50 30 -58 9 -8
60 -30 112 -48 52 -18 324 -115 604 -215 906 -324 1200 -424 1227 -416 21 7
86 91 116 150 11 22 30 73 42 113 18 60 21 86 15 145 l-6 73 -67 25 c-37 15
-236 81 -442 149 -206 67 -523 171 -705 230 -383 126 -697 225 -741 234 -27 6
-38 2 -68 -24z m854 -261 c432 -144 863 -288 958 -319 95 -32 174 -59 176 -61
2 -2 6 -16 10 -31 10 -43 35 -48 -389 88 -279 90 -1589 525 -1594 530 -7 6 29
54 41 54 7 0 366 -118 798 -261z m219 -173 l923 -308 -5 -35 c-4 -20 -8 -37
-10 -39 -2 -2 -375 120 -828 271 -453 152 -896 300 -984 330 -238 79 -218 68
-199 108 l16 34 82 -26 c44 -15 497 -165 1005 -335z m-103 -76 c876 -292 1001
-336 997 -351 -12 -44 -22 -42 -374 75 -416 139 -1191 389 -1384 446 -119 36
-275 88 -282 94 -8 7 21 77 30 73 7 -2 463 -154 1013 -337z m54 -116 c516
-170 809 -267 898 -299 10 -4 8 -12 -7 -34 l-21 -30 -73 26 c-39 14 -85 29
-102 33 -16 4 -425 141 -909 304 -483 163 -880 296 -882 296 -2 0 -4 15 -4 34
l0 34 238 -79 c130 -44 518 -172 862 -285z m-880 195 c261 -91 608 -208 1225
-415 269 -91 493 -168 498 -173 4 -4 -2 -16 -13 -26 -20 -18 -22 -18 -98 8
-69 23 -583 201 -1237 429 -126 44 -300 104 -386 133 -185 63 -199 70 -199 95
0 11 1 20 3 20 2 0 95 -32 207 -71z"/>
<path d="M1985 5020 c-25 -40 -44 -160 -26 -160 15 0 61 117 61 158 0 14 -26
16 -35 2z"/>
<path d="M2486 4748 c-61 -167 -135 -380 -140 -404 -6 -27 -3 -32 29 -47 46
-22 82 -22 94 1 29 53 151 413 151 444 0 22 -49 48 -89 48 -25 0 -31 -6 -45
-42z m54 -20 c0 -6 -30 -101 -66 -211 -48 -145 -69 -196 -77 -188 -8 8 -8 20
2 44 7 17 35 102 62 187 27 85 51 161 54 168 6 15 25 16 25 0z"/>
<path d="M2702 4717 c-6 -7 -22 -46 -36 -87 -14 -41 -48 -137 -75 -212 -28
-76 -51 -145 -51 -153 0 -18 37 -43 77 -51 26 -5 34 -2 48 19 22 34 157 426
153 446 -3 17 -62 50 -89 51 -9 0 -21 -6 -27 -13z m32 -74 c-4 -16 -24 -75
-45 -133 -21 -58 -49 -138 -61 -177 -12 -40 -26 -73 -30 -73 -14 0 -9 23 36
155 24 72 52 158 61 193 11 38 23 62 32 62 10 0 12 -8 7 -27z"/>
<path d="M2896 4662 c-9 -15 -94 -247 -130 -357 -40 -119 -40 -118 26 -146 37
-15 53 -7 76 38 28 56 142 391 142 418 0 17 -9 27 -40 39 -45 18 -66 20 -74 8z
m34 -61 c0 -5 -27 -89 -60 -187 -33 -97 -60 -185 -60 -195 0 -11 -7 -19 -15
-19 -8 0 -15 3 -15 6 0 8 109 351 121 382 8 22 29 31 29 13z"/>
<path d="M3050 4483 c-49 -134 -120 -343 -120 -354 0 -11 66 -39 94 -39 16 0
30 8 37 22 20 37 149 418 149 439 0 22 -52 49 -93 49 -21 0 -28 -13 -67 -117z
m80 53 c0 -8 -27 -90 -59 -183 -33 -92 -62 -180 -65 -195 -6 -26 -26 -40 -26
-19 0 6 22 77 49 158 26 81 54 172 62 201 7 29 18 52 26 52 7 0 13 -6 13 -14z"/>
<path d="M3440 4440 c0 -9 41 -22 310 -104 227 -68 345 -105 363 -111 9 -4 17
-3 17 3 0 18 -268 112 -533 188 -127 36 -157 40 -157 24z"/>
<path d="M3590 4290 c31 -20 393 -131 476 -145 67 -12 27 11 -77 43 -116 37
-386 112 -402 112 -7 0 -6 -4 3 -10z"/>
<path d="M3666 4171 c24 -24 368 -120 381 -107 9 9 -55 33 -208 76 -140 40
-192 49 -173 31z"/>
<path d="M4681 4120 c-45 -66 -47 -70 -28 -70 24 0 87 86 87 120 0 24 -21 6
-59 -50z"/>
<path d="M4515 3941 c-56 -39 -185 -107 -239 -125 -24 -8 -87 -20 -138 -26
-136 -16 -142 -18 -128 -35 22 -27 166 -13 290 27 120 38 254 119 280 169 16
29 -16 24 -65 -10z"/>
<path d="M1640 5255 c-7 -19 -7 -32 -1 -38 7 -7 14 -1 21 18 7 19 7 32 1 38
-7 7 -14 1 -21 -18z"/>
<path d="M4560 5230 c0 -13 48 -32 69 -27 11 2 6 8 -16 20 -37 19 -53 22 -53
7z"/>
<path d="M2016 2939 c-47 -41 -57 -59 -33 -59 12 0 55 41 86 83 24 31 -5 18
-53 -24z"/>
<path d="M1896 2817 c-25 -17 -346 -366 -346 -378 0 -26 16 -10 339 334 50 52
53 73 7 44z"/>
<path d="M2860 3545 c-6 -19 -10 -43 -8 -52 3 -14 7 -12 20 12 26 51 31 75 14
75 -8 0 -20 -16 -26 -35z"/>
<path d="M3490 2565 c0 -34 31 -166 84 -365 54 -204 70 -253 85 -258 8 -3 11
0 7 6 -3 5 -8 26 -11 46 -2 20 -27 125 -55 234 -29 108 -60 231 -71 272 -21
82 -39 112 -39 65z"/>
<path d="M3675 1848 c-8 -20 26 -130 42 -135 6 -2 7 12 2 44 -4 26 -8 53 -8
59 -1 5 -7 19 -15 30 -13 17 -15 18 -21 2z"/>
<path d="M5982 6249 c-18 -7 -23 -15 -20 -36 3 -24 9 -29 48 -35 37 -7 116 -1
190 14 15 3 20 10 20 26 0 5 -45 16 -100 25 -112 19 -107 19 -138 6z"/>
<path d="M6548 6236 c-60 -12 -93 -31 -67 -40 8 -3 57 -10 110 -16 107 -12
149 -4 149 29 0 41 -72 51 -192 27z"/>
<path d="M8832 6197 c-24 -25 -41 -87 -24 -87 12 0 46 53 57 88 8 28 -6 28
-33 -1z"/>
<path d="M8719 6193 c0 -10 -2 -29 -3 -43 -4 -33 13 -92 24 -85 16 10 24 114
10 130 -17 20 -30 19 -31 -2z"/>
<path d="M8493 6156 c-38 -32 -53 -84 -54 -187 0 -46 -4 -92 -8 -102 -4 -11
-41 -33 -91 -54 -152 -63 -194 -106 -156 -158 8 -11 58 -38 113 -60 l98 -40 5
-115 c5 -111 16 -154 42 -162 34 -12 64 10 145 108 48 57 91 104 97 104 7 0
56 -11 110 -25 97 -25 159 -31 190 -19 35 13 8 103 -58 193 -61 85 -61 81 -1
144 63 68 98 133 93 179 -3 33 -3 33 -63 36 -46 2 -81 -4 -148 -27 l-88 -30
-63 98 c-57 88 -105 141 -127 141 -4 0 -21 -11 -36 -24z m37 -70 c0 -8 -4 -17
-9 -21 -12 -7 -24 12 -16 25 9 15 25 12 25 -4z m10 -167 c0 -40 -4 -58 -14
-62 -25 -10 -36 85 -15 125 17 31 29 5 29 -63z"/>
<path d="M8875 6116 c-16 -7 -39 -23 -49 -35 -19 -21 -19 -21 3 -21 34 0 88
26 101 49 9 18 8 21 -7 21 -10 -1 -31 -7 -48 -14z"/>
<path d="M6352 6098 c-18 -22 -48 -227 -35 -246 13 -22 40 -27 59 -11 12 10
13 33 8 133 -7 124 -13 147 -32 124z"/>
<path d="M8248 5527 c-31 -7 -38 -14 -38 -33 0 -15 6 -24 16 -24 19 0 82 29
89 41 10 16 -30 26 -67 16z"/>
<path d="M8318 5472 c-47 -56 -58 -102 -25 -102 22 0 39 26 47 70 8 45 0 58
-22 32z"/>
<path d="M6288 5239 c-44 -17 -33 -62 33 -134 34 -36 40 -49 35 -72 -8 -38
-34 -568 -41 -843 -9 -336 -9 -340 -50 -367 -19 -13 -44 -41 -55 -62 -19 -38
-23 -40 -77 -46 -83 -9 -141 -33 -190 -78 -93 -86 -128 -220 -120 -462 6 -170
20 -231 70 -297 38 -49 72 -71 182 -114 75 -30 81 -34 91 -71 8 -31 18 -42 54
-59 l44 -22 -2 -123 c-1 -68 -5 -136 -8 -152 -3 -15 -94 -154 -202 -310 -273
-392 -273 -393 -275 -423 -2 -23 5 -32 38 -51 22 -12 60 -30 85 -40 25 -9 155
-64 290 -121 579 -248 602 -255 620 -207 23 60 78 459 109 797 6 62 17 117 25
130 17 26 489 479 701 673 77 71 196 182 265 249 236 227 325 312 505 481 268
253 502 467 533 487 15 10 57 27 94 38 37 12 70 25 73 31 18 28 -90 160 -209
256 -547 442 -1756 895 -2451 918 -88 3 -150 1 -167 -6z m282 -199 c488 -106
1208 -369 1820 -666 192 -93 279 -145 413 -242 l88 -65 -37 -38 c-31 -32 -40
-36 -53 -26 -9 7 -50 37 -92 68 -209 157 -712 410 -1023 514 -90 31 -126 35
-126 16 0 -10 27 -22 214 -93 88 -33 221 -89 294 -124 246 -117 712 -394 712
-423 0 -9 -410 -407 -635 -616 -77 -71 -189 -177 -250 -235 -215 -205 -313
-297 -475 -450 -91 -85 -245 -233 -343 -330 -97 -96 -181 -176 -186 -178 -4
-1 -18 5 -30 15 l-22 18 107 115 c59 63 177 187 264 275 284 290 345 365 297
365 -12 0 -210 -206 -577 -599 -107 -115 -116 -122 -144 -117 -66 13 -68 10
155 283 126 154 168 213 150 213 -15 0 -297 -323 -377 -433 l-20 -29 -55 32
c-143 84 -192 140 -242 275 -35 94 -47 161 -51 280 -4 125 8 541 28 1005 9
195 23 522 31 725 8 204 18 398 21 432 6 58 8 62 28 58 11 -3 64 -14 116 -25z
m-273 -1612 c-7 -313 -25 -749 -32 -756 -8 -8 -44 10 -50 26 -20 46 -7 779 15
907 14 75 46 155 63 155 7 0 8 -103 4 -332z m-127 214 c0 -12 -19 -24 -66 -41
-41 -15 -81 -38 -106 -62 -50 -47 -43 -64 10 -22 50 40 96 63 127 63 44 0 27
-34 -19 -37 -17 -1 -50 -13 -75 -25 -35 -18 -52 -35 -71 -73 -23 -46 -25 -60
-24 -185 0 -145 15 -264 39 -311 18 -35 55 -55 117 -64 l46 -7 4 -49 c4 -58 4
-58 -110 -3 -80 39 -112 76 -138 161 -36 116 -27 351 21 501 36 115 80 149
210 165 17 2 31 5 33 6 1 0 2 -7 2 -17z m-22 -432 c2 -230 0 -290 -10 -290
-35 0 -90 24 -103 44 -9 13 -20 50 -25 82 -13 79 -15 343 -2 374 13 32 43 59
78 70 63 18 59 37 62 -280z m393 -960 c95 -33 258 -106 293 -133 45 -33 -8
-21 -127 28 -70 30 -179 70 -242 90 -63 19 -117 41 -121 47 -12 20 97 2 197
-32z m-163 -25 c2 -2 -16 -34 -39 -71 -49 -81 -109 -202 -109 -222 0 -27 28 7
116 144 47 74 89 134 93 134 15 0 139 -52 267 -112 117 -55 134 -66 134 -87 0
-13 -16 -157 -35 -320 -19 -163 -36 -333 -37 -378 -2 -46 -6 -83 -11 -83 -7 0
-91 36 -654 282 -128 56 -233 107 -233 114 0 7 48 79 107 161 262 363 313 435
313 445 0 8 78 2 88 -7z"/>
<path d="M7165 4726 c11 -9 62 -30 114 -46 96 -32 158 -37 142 -12 -12 20
-149 64 -216 69 -56 5 -59 4 -40 -11z"/>
<path d="M7800 3227 c-121 -91 -255 -246 -177 -206 26 14 247 229 247 241 0
14 -14 7 -70 -35z"/>
<path d="M6172 1848 c-15 -20 -52 -96 -52 -109 0 -6 18 12 39 41 22 29 37 59
34 66 -6 17 -8 17 -21 2z"/>
<path d="M10470 4070 c-262 -33 -476 -110 -685 -248 -330 -218 -564 -574 -647
-984 -32 -159 -33 -456 0 -600 133 -599 578 -1041 1177 -1169 93 -20 137 -24
285 -23 345 2 590 75 866 259 86 57 139 103 229 197 214 225 334 450 397 744
32 153 33 439 0 590 -47 218 -99 339 -237 549 -78 119 -121 173 -209 261 -212
211 -479 353 -767 409 -102 20 -307 27 -409 15z m415 -84 c383 -76 699 -292
908 -619 80 -125 140 -275 179 -448 31 -138 33 -416 4 -549 -63 -291 -190
-525 -395 -729 -248 -246 -555 -385 -931 -420 -399 -38 -876 162 -1127 471
-169 208 -250 382 -310 668 -60 285 -16 582 127 865 203 402 591 687 1040 766
127 22 379 20 505 -5z"/>
<path d="M10595 3873 c-327 -27 -485 -80 -485 -162 0 -23 30 -88 198 -428 25
-51 56 -103 69 -114 l23 -22 101 23 c120 27 192 24 313 -15 43 -14 89 -25 102
-25 27 0 26 -1 106 200 149 373 155 393 120 430 -26 28 -97 57 -193 79 -81 19
-259 43 -296 39 -10 -1 -36 -3 -58 -5z m231 -64 c88 -12 286 -71 292 -87 4
-13 -38 -112 -48 -112 -4 0 -43 12 -86 26 -113 37 -240 64 -304 64 -51 0 -91
-12 -79 -24 2 -3 65 -12 139 -21 119 -15 284 -59 312 -84 10 -9 -13 -82 -28
-88 -6 -2 -51 7 -100 21 -196 57 -347 56 -555 -4 -57 -16 -107 -30 -110 -30
-8 0 -96 187 -104 223 -7 25 -4 29 47 51 70 31 123 45 223 61 101 16 300 18
401 4z"/>
<path d="M9994 3815 c-62 -30 -94 -58 -81 -72 2 -2 35 13 73 33 38 20 79 41
91 47 13 7 23 15 23 20 0 15 -38 5 -106 -28z"/>
<path d="M9726 3628 c-163 -165 -317 -373 -387 -525 -45 -97 -56 -143 -35
-143 9 0 27 27 42 63 91 203 204 366 386 553 71 72 128 134 128 137 0 4 -9 7
-21 7 -13 0 -55 -35 -113 -92z"/>
<path d="M9941 3669 c-43 -17 -154 -105 -223 -177 -52 -54 -68 -77 -68 -99 0
-40 9 -50 140 -144 306 -221 334 -238 371 -239 46 0 125 51 153 98 18 32 18
36 3 68 -24 49 -261 444 -287 477 -22 28 -47 33 -89 16z m121 -149 c31 -58 57
-109 57 -115 1 -5 -23 -27 -52 -47 -29 -20 -77 -58 -106 -84 -61 -55 -46 -59
-183 44 l-88 65 18 29 c33 57 249 222 282 216 8 -2 40 -50 72 -108z"/>
<path d="M11255 3613 c-51 -55 -215 -342 -257 -447 -24 -63 -19 -83 36 -134
82 -76 125 -70 265 34 57 41 147 104 201 139 92 61 150 113 150 136 0 50 -113
184 -225 265 -79 58 -121 60 -170 7z m124 -37 c66 -49 211 -202 211 -223 0
-10 -21 -32 -46 -49 l-45 -32 -107 108 c-59 59 -116 112 -126 118 -17 9 -18
13 -7 40 14 35 47 72 63 72 5 0 31 -16 57 -34z m-75 -167 c27 -24 71 -70 98
-103 l50 -60 -27 -23 -27 -24 -87 84 c-49 47 -98 88 -109 92 -27 8 -27 15 -1
59 24 41 29 40 103 -25z"/>
<path d="M9521 3233 c-47 -50 -111 -193 -146 -327 -58 -227 -57 -467 5 -675
45 -151 85 -222 135 -241 43 -16 25 -26 405 203 136 82 149 92 167 135 12 29
11 44 -12 142 -14 61 -26 137 -26 169 -1 59 21 152 47 203 8 15 14 31 13 34 0
4 4 10 11 14 6 4 12 15 12 26 3 43 -14 74 -55 103 -42 28 -187 103 -187 96 0
-2 -23 12 -51 31 -67 45 -205 112 -247 120 -29 6 -37 2 -71 -33z m172 -66 c59
-32 107 -62 107 -67 0 -4 -23 -53 -50 -107 -71 -139 -100 -261 -100 -417 0
-115 18 -235 39 -260 5 -6 9 -13 8 -16 0 -3 12 -37 28 -77 l28 -72 -24 -20
c-33 -27 -150 -97 -175 -105 -17 -5 -26 2 -46 32 -34 51 -82 193 -109 322 -38
187 -13 444 63 647 38 100 97 205 113 201 5 -2 58 -29 118 -61z"/>
<path d="M11565 3124 c-66 -30 -142 -65 -170 -76 -81 -35 -178 -88 -204 -111
-42 -39 -44 -62 -15 -160 34 -114 30 -220 -10 -346 -24 -71 -26 -87 -16 -112
15 -35 27 -43 267 -164 216 -108 244 -119 277 -104 53 24 130 209 162 389 57
315 -28 740 -147 740 -13 0 -78 -25 -144 -56z m194 -58 c50 -135 78 -371 61
-519 -20 -173 -99 -429 -136 -444 -20 -7 -77 5 -100 21 -18 14 -18 16 15 93
119 280 129 495 34 771 -19 57 -33 105 -30 108 2 2 28 13 58 23 64 23 71 19
98 -53z m-153 -126 l39 -115 -1 -180 c0 -165 -2 -188 -27 -278 -27 -96 -67
-189 -87 -202 -9 -6 -70 20 -70 30 0 3 18 48 40 101 43 104 80 284 80 390 0
65 -27 191 -60 275 -11 30 -20 59 -20 66 0 15 52 44 61 35 4 -4 24 -59 45
-122z"/>
<path d="M10585 2970 c-10 -17 5 -50 23 -50 48 1 57 53 10 58 -14 2 -29 -2
-33 -8z"/>
<path d="M10359 2875 c-25 -13 -59 -69 -59 -95 0 -25 35 -70 64 -82 91 -37
175 31 148 120 -19 63 -92 90 -153 57z"/>
<path d="M10770 2867 c-87 -68 -51 -187 57 -187 36 0 50 6 74 29 65 65 20 171
-73 171 -24 0 -50 -6 -58 -13z"/>
<path d="M10587 2652 c-26 -29 -22 -70 7 -78 58 -14 97 36 61 76 -23 25 -47
25 -68 2z"/>
<path d="M11003 2643 c-19 -7 -16 -50 4 -57 24 -10 51 20 37 41 -12 19 -23 24
-41 16z"/>
<path d="M10196 2614 c-10 -26 19 -52 42 -38 9 6 17 20 17 30 0 26 -50 32 -59
8z"/>
<path d="M10762 2526 c-66 -75 -26 -166 73 -166 61 0 95 31 102 90 6 65 -25
101 -93 107 -48 5 -52 3 -82 -31z"/>
<path d="M10340 2520 c-52 -55 -48 -119 9 -153 33 -19 92 -22 123 -6 21 11 48
66 48 96 0 10 -16 35 -36 56 -30 30 -43 37 -76 37 -31 0 -46 -6 -68 -30z"/>
<path d="M10606 2294 c-9 -8 -16 -19 -16 -24 0 -5 7 -16 16 -24 19 -20 54 -5
54 24 0 29 -35 44 -54 24z"/>
<path d="M11864 2255 c-15 -33 -24 -68 -22 -87 3 -33 3 -33 29 22 30 63 44
120 28 120 -5 0 -21 -25 -35 -55z"/>
<path d="M10023 2213 c-48 -37 -149 -113 -223 -169 -205 -156 -195 -145 -193
-192 2 -55 22 -81 123 -170 81 -72 146 -111 182 -112 31 0 75 49 118 132 24
45 68 121 99 167 149 230 159 280 69 362 -29 26 -61 48 -70 49 -10 0 -57 -30
-105 -67z m-122 -256 c30 -28 76 -70 103 -92 l48 -40 -54 -100 c-64 -116 -75
-122 -145 -74 -48 32 -191 161 -206 185 -14 24 7 46 102 110 53 35 96 64 97
64 0 0 25 -24 55 -53z"/>
<path d="M10260 2271 c0 -29 146 -121 193 -121 32 0 17 18 -29 36 -25 9 -62
29 -83 44 -52 38 -81 53 -81 41z"/>
<path d="M11037 2212 c-31 -33 -57 -63 -57 -67 0 -24 153 -270 198 -317 14
-16 22 -28 18 -28 -10 0 49 -81 86 -119 52 -53 92 -38 216 83 82 80 122 136
122 174 0 11 -13 33 -30 49 -40 39 -436 276 -470 281 -20 3 -36 -8 -83 -56z
m373 -157 c17 -9 30 -20 30 -25 0 -24 -119 -141 -180 -178 l-39 -23 -14 27
c-14 27 -13 28 77 120 50 51 92 93 94 93 2 1 16 -6 32 -14z m165 -115 c7 -11
-140 -177 -190 -216 -45 -34 -73 -28 -107 21 l-28 40 43 35 c23 19 75 70 116
112 l73 77 44 -30 c24 -16 46 -34 49 -39z"/>
<path d="M10540 2131 c0 -13 30 -22 51 -16 31 10 21 25 -16 25 -19 0 -35 -4
-35 -9z"/>
<path d="M10301 2093 c-13 -9 -38 -48 -56 -87 -64 -138 -185 -445 -185 -469 0
-60 78 -106 233 -138 265 -54 571 -22 803 85 78 36 107 69 107 117 0 27 -148
334 -179 369 -7 8 -12 17 -12 20 1 3 -8 23 -20 46 -37 72 -86 83 -202 44 -134
-46 -218 -45 -368 1 -52 16 -95 29 -96 29 -1 0 -12 -7 -25 -17z m777 -318 c11
-23 9 -26 -26 -41 -129 -55 -266 -78 -412 -71 -164 8 -183 26 -29 26 144 1
234 20 358 75 94 42 95 42 109 11z m-778 -89 c149 -61 347 -88 493 -67 43 6
132 28 198 50 l119 39 25 -32 c41 -53 30 -102 -28 -132 -54 -29 -224 -82 -315
-100 -182 -35 -433 -19 -608 39 -94 31 -97 39 -49 139 47 99 55 110 69 104 6
-3 49 -21 96 -40z"/>
<path d="M11794 2069 c-6 -8 -34 -50 -61 -95 -27 -44 -70 -106 -96 -137 -52
-64 -71 -96 -63 -105 9 -9 71 55 126 128 66 90 112 175 108 201 -2 18 -5 20
-14 8z"/>
<path d="M4909 2843 c-39 -47 11 -507 51 -467 17 17 42 198 43 309 0 85 -3
117 -17 143 -19 36 -54 43 -77 15z"/>
<path d="M4620 2549 c0 -36 115 -169 146 -169 14 0 -34 98 -73 146 -21 28 -73
43 -73 23z"/>
<path d="M5151 2439 c-53 -61 -74 -99 -55 -99 14 0 95 54 128 86 38 37 43 53
24 72 -21 21 -34 13 -97 -59z"/>
<path d="M4413 2239 c-50 -15 -39 -72 16 -84 37 -8 228 13 261 28 39 19 31 40
-20 54 -54 14 -212 15 -257 2z"/>
<path d="M5311 2238 c-74 -9 -149 -33 -138 -44 10 -11 221 -43 282 -44 74 0
108 19 103 58 -2 21 -10 28 -33 33 -42 9 -127 8 -214 -3z"/>
<path d="M5100 2047 c0 -19 100 -167 117 -174 23 -9 46 21 38 47 -10 30 -82
108 -116 126 -34 17 -39 17 -39 1z"/>
<path d="M4931 2017 c-6 -16 -11 -49 -11 -75 0 -26 -7 -106 -15 -178 -10 -81
-12 -145 -7 -170 7 -36 11 -39 44 -42 55 -5 63 17 63 173 -1 134 -22 264 -50
301 -13 18 -14 18 -24 -9z"/>
<path d="M4663 1944 c-49 -49 -100 -130 -89 -141 17 -18 56 14 99 82 64 101
60 128 -10 59z"/>
</g>
</svg>
