<?xml version="1.0" standalone="no"?>
<!DOCTYPE svg PUBLIC "-//W3C//DTD SVG 20010904//EN"
 "http://www.w3.org/TR/2001/REC-SVG-20010904/DTD/svg10.dtd">
<svg version="1.0" xmlns="http://www.w3.org/2000/svg"
 width="980.000000pt" height="980.000000pt" viewBox="0 0 980.000000 980.000000"
 preserveAspectRatio="xMidYMid meet">

<g transform="translate(0.000000,980.000000) scale(0.100000,-0.100000)"
fill="#000000" stroke="none">
<path d="M2325 9035 c-749 -116 -1402 -228 -1419 -245 -6 -6 -4 -46 7 -122
l18 -113 -31 -59 c-45 -88 -37 -161 28 -236 l34 -40 2 -328 c2 -304 12 -450
41 -579 6 -28 9 -28 205 -54 212 -27 684 -37 934 -19 256 18 508 48 522 62 15
17 34 211 41 433 6 195 -12 634 -26 648 -19 19 -255 29 -815 35 l-580 7 -7 28
c-5 19 -4 29 4 32 7 1 158 24 337 50 684 99 996 145 1028 150 32 6 32 6 32 65
0 68 -21 182 -48 260 -18 51 -21 55 -53 57 -19 1 -133 -14 -254 -32z m255 -28
c0 -13 -30 -108 -36 -116 -1 -1 -7 0 -13 3 -6 4 -1 29 12 66 21 56 37 77 37
47z m-57 -42 c-15 -46 -26 -55 -40 -32 -7 12 -5 55 4 70 2 4 15 7 28 7 l24 0
-16 -45z m-63 15 c0 -23 -10 -26 -28 -8 -18 18 -15 28 8 28 13 0 20 -7 20 -20z
m92 -168 c42 -31 77 -62 78 -68 0 -7 -34 -17 -81 -23 l-80 -12 -87 80 c-108
98 -177 169 -171 175 2 2 33 8 69 13 l65 9 65 -59 c35 -32 99 -84 142 -115z
m44 93 c-5 -29 -12 -45 -22 -45 -17 0 -17 -3 2 54 20 57 29 53 20 -9z m-466
38 c0 -23 -46 -132 -55 -129 -14 5 -9 34 15 89 18 41 40 62 40 40z m-112 -39
l-11 -24 -25 22 -24 23 29 6 c38 7 44 3 31 -27z m57 19 c-4 -10 -12 -30 -17
-45 -10 -27 -22 -35 -31 -20 -9 13 25 82 40 82 10 0 13 -5 8 -17z m95 -22 c0
-9 -10 -45 -21 -80 -19 -56 -23 -61 -37 -47 -14 13 -14 19 1 58 9 24 21 56 27
71 10 30 30 28 30 -2z m-150 -106 c68 -68 122 -127 119 -130 -3 -3 -43 -10
-88 -17 l-83 -11 -121 121 c-67 67 -118 124 -115 127 3 3 39 12 79 19 41 8 76
14 79 15 3 1 61 -55 130 -124z m196 80 c3 -8 -5 -45 -17 -82 -29 -83 -26 -78
-43 -64 -11 10 -10 23 12 86 25 74 37 89 48 60z m-576 -10 c0 -2 -12 -29 -27
-60 -28 -56 -50 -74 -39 -32 12 50 37 97 51 97 8 0 15 -2 15 -5z m976 -32
c-11 -11 -19 6 -11 24 8 17 8 17 12 0 3 -10 2 -21 -1 -24z m-1076 20 c0 -5 -5
-15 -10 -23 -7 -12 -12 -12 -22 -2 -10 10 -10 15 2 22 18 12 30 13 30 3z m40
3 c0 -16 -24 -66 -32 -66 -6 0 -7 8 -3 18 4 9 10 25 12 35 4 14 23 25 23 13z
m100 -8 c0 -20 -52 -148 -61 -148 -20 0 -15 37 13 95 30 61 48 81 48 53z m564
-86 c-14 -37 -29 -71 -34 -76 -20 -20 -23 7 -6 62 33 102 35 106 51 92 12 -10
11 -21 -11 -78z m-772 33 c93 -105 167 -199 162 -204 -3 -3 -39 -11 -80 -17
-73 -10 -74 -10 -97 15 -33 37 -158 201 -163 216 -5 11 56 27 125 34 7 0 31
-19 53 -44z m238 -39 c-10 -30 -24 -66 -32 -81 -12 -22 -16 -24 -26 -12 -10
12 -8 26 9 68 11 30 25 65 30 78 8 18 12 21 23 11 12 -10 12 -19 -4 -64z
m-510 20 c0 -40 -12 -86 -21 -80 -10 6 -12 64 -3 88 9 24 24 19 24 -8z m1103
-14 c-4 -50 -21 -82 -43 -82 -25 0 -25 -3 1 65 22 59 46 69 42 17z m-1153 1
c-1 -27 -1 -27 -15 -9 -19 25 -19 36 0 36 10 0 15 -10 15 -27z m96 -11 c-3
-15 -8 -46 -11 -69 -7 -42 -18 -55 -28 -30 -3 9 10 89 22 135 1 2 6 0 12 -3 5
-4 8 -19 5 -33z m493 -62 c-36 -87 -36 -87 -49 -74 -7 7 -3 28 13 65 13 30 27
67 31 83 6 25 9 27 22 15 12 -13 10 -24 -17 -89z m-609 -15 c38 -52 70 -97 70
-100 0 -3 -15 2 -32 12 -31 16 -93 20 -168 11 -22 -3 -25 1 -32 47 -4 28 -10
64 -13 82 -5 29 -3 32 22 36 80 12 78 13 153 -88z m1214 41 c-3 -14 -12 -26
-20 -26 -17 0 -17 10 -4 46 14 35 34 18 24 -20z m-1058 -14 c-2 -15 -8 -49
-11 -76 -6 -42 -8 -47 -21 -34 -12 12 -13 24 -3 69 16 77 18 81 30 74 5 -4 8
-19 5 -33z m514 31 c0 -4 -7 -33 -17 -66 -15 -54 -35 -79 -50 -64 -7 8 47 137
59 137 4 0 8 -3 8 -7z m586 -31 c-22 -5 -30 3 -21 18 5 8 11 7 22 -2 15 -12
14 -13 -1 -16z m-547 -6 c9 -11 8 -22 -6 -50 -17 -36 -52 -53 -38 -18 4 9 9
32 12 50 6 35 14 40 32 18z m-515 -29 c0 -9 -1 -36 -2 -59 -2 -44 -16 -77 -27
-66 -11 11 7 149 19 145 6 -2 11 -11 10 -20z m565 -20 c13 -16 5 -27 -21 -27
-20 0 -21 1 -12 24 7 20 18 20 33 3z m-499 -76 c0 -12 -7 -22 -15 -22 -8 -1
-21 -2 -27 -3 -9 -1 -12 12 -9 39 1 22 5 44 8 48 7 12 43 -39 43 -62z m-244
-30 c117 -53 120 -220 4 -278 -24 -13 -58 -23 -75 -23 -71 1 -154 84 -155 155
0 53 40 116 89 142 53 28 83 29 137 4z m147 -186 c-3 -9 -8 -14 -10 -11 -3 3
-2 9 2 15 9 16 15 13 8 -4z m110 -54 c25 -38 43 -72 40 -75 -7 -7 -93 117 -93
134 0 18 6 11 53 -59z m54 26 c13 -28 18 -49 13 -58 -5 -7 -11 -11 -13 -9 -13
16 -67 100 -67 104 0 3 10 6 23 6 17 0 28 -11 44 -43z m49 27 c-3 -9 -6 -20
-6 -25 0 -18 -17 -8 -28 16 -11 23 -10 25 14 25 20 0 25 -4 20 -16z m214 11
c0 -15 -57 -139 -92 -202 l-41 -72 -83 -3 c-46 -2 -84 -1 -84 1 0 3 18 32 39
65 22 34 56 96 77 139 l36 77 74 0 c41 0 74 -2 74 -5z m125 -42 c15 -27 34
-56 42 -65 14 -16 10 -58 -6 -58 -4 0 -15 15 -24 33 -9 17 -30 56 -47 85 -29
48 -30 52 -12 52 13 0 29 -16 47 -47z m68 10 c17 -30 16 -73 -1 -73 -4 0 -22
25 -39 56 l-33 55 27 -3 c18 -2 33 -14 46 -35z m47 33 c0 -2 -3 -12 -6 -20 -5
-13 -9 -14 -20 -5 -20 16 -17 29 6 29 11 0 20 -2 20 -4z m230 -5 c0 -5 -33
-67 -74 -138 l-74 -128 -77 -5 c-42 -3 -78 -3 -80 -1 -2 2 10 26 26 55 29 49
47 85 89 181 l19 45 86 0 c47 0 85 -4 85 -9z m117 -40 c22 -34 28 -53 21 -62
-5 -8 -11 -10 -14 -4 -2 6 -17 30 -34 54 -27 41 -30 61 -11 61 4 0 22 -22 38
-49z m43 32 c0 -5 3 -18 6 -30 9 -34 -13 -28 -31 7 -15 29 -15 30 5 30 11 0
20 -3 20 -7z m40 3 c0 -3 -4 -8 -10 -11 -5 -3 -10 -1 -10 4 0 6 5 11 10 11 6
0 10 -2 10 -4z m197 -10 c4 -3 -110 -169 -148 -217 -29 -37 -33 -39 -89 -39
l-59 0 66 113 c36 61 71 122 79 133 12 19 19 21 81 17 37 -3 69 -6 70 -7z
m-766 -92 c37 -62 48 -89 40 -97 -13 -13 -9 -17 -64 72 -26 44 -42 81 -40 92
3 11 7 19 8 19 2 0 27 -39 56 -86z m457 17 c27 -49 30 -60 18 -70 -11 -9 -20
-2 -45 39 -20 33 -30 59 -26 71 10 30 18 23 53 -40z m-891 -13 c41 -60 49 -84
19 -59 -16 14 -76 104 -76 114 0 19 19 0 57 -55z m1253 40 c0 -16 -3 -19 -11
-11 -6 6 -8 16 -5 22 11 17 16 13 16 -11z m-1427 -112 l-48 -96 -79 0 -79 0 7
38 c3 20 6 45 6 54 0 14 7 16 35 11 53 -9 122 15 164 56 20 20 37 35 39 35 2
-1 -18 -45 -45 -98z m158 23 c17 -27 29 -53 25 -56 -7 -8 -4 -11 -50 54 -20
29 -36 58 -36 64 0 19 26 -8 61 -62z m424 -16 l46 -76 -20 -21 c-20 -19 -21
-19 -21 -2 0 10 -16 44 -35 76 -34 57 -42 80 -28 93 10 10 8 12 58 -70z m444
29 c30 -47 40 -82 23 -82 -12 0 -74 109 -67 120 9 15 10 14 44 -38z m397 31
c7 -10 13 -29 13 -43 l0 -25 -24 28 c-26 30 -33 57 -14 57 7 0 18 -8 25 -17z
m-1296 -72 c25 -37 36 -62 29 -66 -6 -4 -12 -5 -13 -4 -47 61 -79 129 -61 129
2 0 22 -27 45 -59z m1278 9 c17 -21 32 -49 32 -61 0 -18 -8 -12 -40 31 -22 29
-40 57 -40 62 0 17 16 6 48 -32z m-401 -24 c43 -75 26 -92 -21 -21 -33 50 -39
75 -18 75 4 0 22 -24 39 -54z m-433 -78 c-16 -26 -91 79 -79 110 5 13 15 2 44
-43 22 -33 37 -63 35 -67z m-466 43 c18 -32 20 -41 9 -41 -18 0 -65 70 -59 88
6 18 23 2 50 -47z m1277 13 c38 -51 43 -64 20 -64 -14 0 -75 80 -75 99 0 23
20 9 55 -35z m-416 -10 c12 -20 20 -42 18 -48 -5 -16 -57 43 -57 65 0 30 16
22 39 -17z m-470 -9 c19 -33 17 -51 -5 -37 -16 11 -32 45 -27 60 7 17 9 16 32
-23z m837 0 c23 -35 13 -54 -14 -25 -23 25 -29 50 -12 50 5 0 17 -11 26 -25z
m-1273 -10 l18 -25 -35 0 c-34 0 -35 1 -24 25 14 31 18 31 41 0z m863 -6 c7
-12 -15 -31 -28 -23 -9 6 1 34 12 34 5 0 12 -5 16 -11z m-466 -9 c0 -5 -4 -10
-10 -10 -5 0 -10 5 -10 10 0 6 5 10 10 10 6 0 10 -4 10 -10z m838 -8 c2 -7 -3
-12 -12 -12 -9 0 -16 7 -16 16 0 17 22 14 28 -4z m-14 -62 l169 0 -6 -242 c-7
-260 -22 -439 -38 -449 -13 -7 -269 -34 -479 -50 -232 -17 -733 -6 -929 20
-85 12 -156 22 -157 24 -1 1 -10 54 -19 117 -10 69 -19 212 -22 354 l-6 238
659 -6 c363 -3 735 -6 828 -6z"/>
<path d="M998 8500 c-34 -27 -52 -72 -44 -114 11 -57 24 -50 22 10 -1 51 2 58
32 85 17 16 32 31 32 34 0 11 -18 4 -42 -15z"/>
<path d="M1120 8514 c0 -3 13 -17 30 -30 77 -65 29 -194 -71 -194 -38 0 -52
-13 -25 -23 21 -8 85 9 108 30 62 56 64 136 5 201 -19 20 -47 30 -47 16z"/>
<path d="M2014 7906 c-9 -22 15 -459 26 -470 5 -4 113 -2 247 5 l238 14 -1
218 c0 149 -4 221 -11 228 -8 8 -92 14 -252 17 -217 4 -241 3 -247 -12z m473
-30 c4 -3 9 -93 11 -200 l5 -193 -134 -7 c-74 -3 -173 -9 -220 -12 l-87 -6 -6
98 c-3 55 -9 153 -12 218 l-7 119 222 -5 c122 -3 225 -8 228 -12z"/>
<path d="M1170 7827 c0 -12 34 -16 188 -21 375 -12 495 -12 499 1 5 15 -79 21
-414 28 -233 5 -273 4 -273 -8z"/>
<path d="M1233 7683 c-51 -3 -73 -8 -73 -17 0 -10 65 -13 318 -16 174 -1 341
-3 369 -4 67 -1 70 17 4 25 -64 8 -525 17 -618 12z"/>
<path d="M1207 7513 c-10 -3 -17 -9 -15 -14 4 -13 702 -17 706 -4 1 6 -35 13
-85 16 -101 8 -579 9 -606 2z"/>
<path d="M7685 9023 c-14 -26 -31 -41 -53 -49 -30 -9 -32 -12 -17 -24 25 -20
45 -65 45 -99 0 -43 14 -46 29 -5 7 20 29 47 53 64 l40 29 -26 12 c-23 11 -39
41 -48 92 -2 12 -9 7 -23 -20z"/>
<path d="M4708 8964 c-4 -4 -32 -8 -63 -9 -35 -1 -62 -7 -71 -17 -11 -11 -28
-14 -60 -10 -35 4 -50 0 -67 -15 -12 -11 -41 -25 -64 -32 -24 -6 -47 -21 -53
-31 -8 -15 -21 -20 -48 -20 -36 0 -82 -28 -82 -49 0 -4 -18 -15 -40 -24 -39
-15 -80 -65 -80 -99 0 -9 -9 -19 -20 -23 -28 -9 -60 -53 -60 -82 0 -14 -9 -36
-20 -50 -27 -35 -26 -85 4 -120 21 -25 24 -44 35 -198 18 -252 112 -965 136
-1027 11 -27 123 -78 244 -109 99 -27 367 -37 479 -19 99 16 210 57 227 84 7
12 32 91 54 176 68 260 126 578 178 965 16 125 18 131 49 158 33 27 33 28 33
117 -1 74 -4 91 -20 106 -10 9 -19 26 -19 36 0 30 -18 56 -50 73 -17 9 -30 24
-30 34 0 11 -3 27 -6 36 -7 18 -55 45 -79 45 -9 0 -26 12 -39 26 -16 19 -34
28 -60 29 -22 1 -46 11 -60 24 -18 17 -36 22 -77 22 -104 0 -139 -1 -166 -1
-16 -1 -44 2 -63 5 -19 4 -38 3 -42 -1z m76 -63 c29 -19 30 -19 54 0 30 23 50
24 80 4 19 -14 25 -14 50 -1 33 17 57 7 66 -29 7 -27 34 -33 54 -13 17 17 60
-5 64 -34 2 -18 9 -23 28 -21 14 1 35 0 48 -3 20 -4 23 -10 20 -46 -3 -40 -2
-42 31 -49 38 -8 51 -23 51 -60 0 -16 9 -32 22 -41 20 -14 21 -18 10 -43 -9
-20 -10 -31 -2 -39 15 -15 12 -62 -5 -76 -13 -11 -22 -10 -51 3 -47 23 -86 21
-118 -4 l-26 -21 -43 21 c-53 26 -92 27 -139 3 -31 -16 -39 -17 -59 -6 -33 18
-110 17 -137 -1 -20 -14 -26 -14 -71 1 -46 17 -51 17 -93 1 -35 -14 -52 -15
-72 -7 -38 14 -76 12 -109 -5 -26 -13 -32 -13 -65 5 -46 25 -99 25 -136 1 -27
-18 -32 -18 -57 -5 -39 20 -78 18 -117 -6 -38 -23 -52 -19 -52 15 0 15 7 26
20 30 16 5 20 15 20 49 0 47 8 58 55 73 25 8 29 15 27 37 -4 39 22 74 61 81
22 4 38 16 50 37 16 29 20 30 61 25 41 -6 45 -5 56 22 13 31 41 44 77 35 18
-5 25 -1 33 20 11 30 39 34 74 11 23 -15 25 -15 46 15 23 32 47 39 56 15 8
-21 36 -19 57 5 21 25 44 25 81 1z m316 -503 c18 -13 38 -30 43 -39 7 -12 -8
-140 -52 -445 -34 -236 -74 -514 -89 -619 l-27 -190 -53 -14 c-29 -8 -55 -11
-59 -7 -10 10 25 568 67 1051 l20 230 30 28 c37 33 76 35 120 5z m181 12 c25
-14 25 -28 -11 -276 -36 -248 -71 -450 -105 -605 -26 -115 -93 -380 -97 -384
-15 -13 -68 -33 -68 -27 0 23 166 1188 175 1228 7 33 44 74 66 74 11 0 29 -5
40 -10z m-931 -17 c45 -31 60 -55 60 -97 0 -23 13 -291 30 -596 16 -305 30
-569 30 -587 l0 -32 -72 20 c-40 11 -73 21 -74 22 -3 3 -43 365 -59 531 -8 87
-20 282 -26 433 l-11 275 23 24 c26 28 64 31 99 7z m368 -5 l45 -21 -7 -241
c-9 -339 -35 -963 -42 -1013 l-5 -43 -50 0 -49 0 0 563 c0 310 -3 605 -6 654
l-7 91 29 16 c38 20 40 20 92 -6z m191 5 l21 -18 -29 -355 c-27 -330 -43 -544
-59 -830 l-7 -115 -52 -3 -51 -3 4 38 c7 60 33 723 40 1008 7 291 8 295 74
295 21 0 47 -8 59 -17z m-732 -15 c31 -22 33 -26 33 -83 1 -221 33 -672 70
-985 11 -91 20 -168 20 -172 0 -8 -48 11 -78 32 -25 17 -32 51 -81 390 -35
238 -67 527 -77 686 -6 105 -5 113 15 133 27 27 56 27 98 -1z m367 6 l34 -17
7 -131 c3 -72 5 -363 3 -646 l-3 -515 -44 2 c-24 1 -45 3 -46 5 -1 2 -17 290
-36 640 -32 620 -32 638 -14 658 22 24 53 26 99 4z"/>
<path d="M4613 8823 c-19 -2 -37 -12 -43 -23 -12 -23 5 -38 17 -15 5 9 28 16
61 19 29 2 53 8 55 12 2 10 -42 13 -90 7z"/>
<path d="M4890 8815 c-17 -20 -5 -32 15 -15 11 9 18 10 29 1 8 -7 25 -9 42 -5
20 5 30 2 40 -11 17 -23 32 -11 17 13 -6 11 -24 17 -47 18 -19 0 -39 3 -43 7
-11 12 -40 8 -53 -8z"/>
<path d="M5117 8773 c-13 -12 -7 -25 8 -19 10 4 15 -1 15 -14 0 -11 7 -20 15
-20 8 0 15 -7 15 -15 0 -17 16 -20 25 -5 3 5 -6 26 -21 45 -25 34 -43 42 -57
28z"/>
<path d="M4353 8744 c-10 -7 -27 -14 -38 -14 -26 0 -45 -18 -45 -42 0 -25 16
-23 23 3 5 17 11 20 30 15 18 -4 27 -1 31 10 4 11 14 15 31 12 16 -3 25 -1 25
7 0 19 -37 25 -57 9z"/>
<path d="M4779 8689 c-8 -5 -28 -6 -46 -3 -23 4 -36 1 -52 -15 -22 -22 -27
-41 -11 -41 6 0 10 4 10 10 0 17 39 31 58 21 12 -6 23 -5 36 4 13 10 25 11 43
4 18 -7 24 -6 21 2 -6 17 -43 29 -59 18z"/>
<path d="M5157 8653 c-14 -13 -7 -21 14 -16 15 4 22 0 26 -16 3 -13 11 -20 19
-17 17 7 36 -18 28 -38 -3 -9 -1 -16 4 -16 14 0 24 33 17 51 -7 17 -71 59 -89
59 -7 0 -16 -3 -19 -7z"/>
<path d="M4220 8595 c-7 -8 -21 -15 -31 -15 -21 0 -33 -31 -24 -60 10 -32 27
-24 20 10 -6 27 -4 30 18 30 14 0 27 7 31 15 3 8 17 15 31 15 15 0 24 4 20 10
-9 15 -51 12 -65 -5z"/>
<path d="M4943 8604 c-14 -6 -18 -34 -5 -34 4 0 13 5 20 12 8 8 15 8 24 1 7
-6 24 -13 38 -15 14 -2 24 -9 23 -16 -2 -6 4 -12 12 -12 18 0 20 24 3 37 -7 6
-24 13 -38 16 -14 3 -34 8 -45 11 -11 3 -26 3 -32 0z"/>
<path d="M4520 8551 c0 -18 28 -30 70 -29 57 1 80 7 80 20 0 6 -10 8 -23 5
-12 -4 -28 -2 -36 2 -9 6 -21 5 -32 -2 -14 -9 -21 -9 -31 1 -14 14 -28 16 -28
3z"/>
<path d="M8385 8839 c-115 -76 -328 -160 -495 -196 -90 -19 -237 -22 -645 -12
-160 3 -200 1 -255 -14 -127 -34 -258 -115 -244 -151 9 -24 25 -20 81 23 111
83 261 111 510 93 443 -32 679 7 975 160 131 68 147 80 128 103 -15 19 -18 18
-55 -6z"/>
<path d="M8413 8700 c-34 -20 -46 -60 -19 -60 27 0 87 42 84 59 -5 23 -29 24
-65 1z"/>
<path d="M2851 8703 c-3 -27 -63 -83 -97 -89 l-34 -6 23 -32 c17 -23 23 -48
26 -104 l3 -74 29 51 c21 36 42 57 72 72 56 29 55 27 23 52 -23 19 -30 34 -36
82 -4 33 -8 55 -9 48z"/>
<path d="M8212 8616 c-47 -23 -53 -49 -12 -54 30 -3 95 37 95 58 0 22 -34 20
-83 -4z"/>
<path d="M8420 8558 c-52 -33 -99 -66 -103 -72 -15 -20 4 -219 44 -459 21
-130 39 -240 39 -242 0 -13 61 -2 108 20 54 25 162 118 162 140 0 31 -33 23
-78 -18 -26 -24 -63 -53 -83 -65 -35 -21 -69 -29 -69 -16 0 3 -13 85 -29 182
-30 177 -51 344 -51 402 0 27 9 36 95 91 65 42 95 67 93 78 -6 30 -33 21 -128
-41z"/>
<path d="M5560 8570 c0 -33 -28 -79 -60 -99 l-30 -18 25 -11 c29 -13 85 -96
86 -126 0 -21 0 -21 9 -1 5 11 11 32 15 48 3 15 21 45 41 67 l36 39 -36 15
c-34 14 -66 58 -66 91 0 8 -4 15 -10 15 -5 0 -10 -9 -10 -20z"/>
<path d="M8020 8556 c-67 -27 -74 -51 -13 -50 44 1 93 26 93 48 0 24 -24 24
-80 2z"/>
<path d="M7183 8507 c-53 -15 -72 -32 -55 -49 9 -9 26 -9 74 1 75 15 78 17 78
42 0 22 -29 24 -97 6z"/>
<path d="M7403 8513 c-7 -2 -13 -13 -13 -24 0 -15 7 -19 33 -19 17 0 56 -3 85
-7 52 -6 54 -5 50 18 -2 17 -11 26 -33 30 -37 8 -105 9 -122 2z"/>
<path d="M7683 8494 c-9 -23 15 -34 72 -34 57 0 81 11 72 34 -5 12 -21 16 -72
16 -51 0 -67 -4 -72 -16z"/>
<path d="M6912 8449 c-42 -21 -62 -36 -62 -49 0 -30 19 -28 92 8 71 36 76 40
56 60 -16 16 -16 16 -86 -19z"/>
<path d="M8065 8443 c-173 -52 -273 -60 -575 -48 -173 7 -176 7 -220 -17 -43
-24 -45 -27 -44 -69 0 -24 10 -111 22 -194 28 -191 42 -360 42 -500 0 -73 4
-115 12 -123 17 -17 248 -15 374 3 188 28 404 101 539 182 l50 30 -2 119 c-4
193 -47 559 -73 622 -12 27 -23 26 -125 -5z m89 -64 c11 -58 8 -62 -26 -36
-46 34 -58 40 -58 29 0 -6 22 -27 50 -48 29 -22 51 -48 55 -63 9 -44 33 -290
40 -411 l7 -115 -93 -46 c-139 -68 -133 -68 -178 -17 -22 24 -43 40 -47 35 -4
-4 7 -22 24 -40 18 -18 32 -38 32 -44 0 -11 -96 -40 -230 -69 -106 -22 -378
-32 -384 -13 -2 8 -7 91 -11 184 l-6 170 165 -170 c90 -93 167 -167 172 -162
4 4 -46 62 -112 130 -66 67 -140 143 -164 170 -24 26 -49 47 -57 47 -8 0 -13
13 -13 38 0 20 -3 48 -6 62 -5 21 2 17 42 -25 26 -27 114 -120 195 -205 148
-155 216 -217 226 -206 3 3 -37 46 -88 96 l-94 90 62 -32 c78 -39 171 -43 245
-10 l47 20 36 -39 c19 -21 37 -39 40 -39 14 0 1 28 -26 56 l-32 33 36 42 c38
44 67 114 67 161 0 15 2 28 5 28 3 0 25 -16 51 -35 25 -19 53 -35 62 -35 14 1
14 3 -3 15 -79 57 -113 93 -122 128 -13 48 -1 48 49 -3 45 -44 48 -46 48 -26
0 17 -78 86 -97 86 -8 0 -33 20 -55 45 -74 81 -194 119 -290 92 -18 -5 -28 -4
-28 3 0 6 -11 26 -25 44 -14 18 -25 35 -25 37 0 3 17 6 38 6 30 1 44 -5 74
-35 21 -19 41 -32 45 -28 5 5 -2 15 -14 23 -42 28 -27 39 75 51 54 7 137 23
183 36 108 31 105 31 113 -5z m-636 -34 c56 -4 102 -12 102 -17 0 -6 14 -28
31 -50 17 -21 30 -40 28 -42 -2 -1 -21 -12 -41 -25 -50 -30 -92 -80 -113 -135
-24 -63 -17 -179 14 -231 12 -21 20 -39 18 -41 -2 -2 -52 51 -113 118 -60 66
-116 128 -123 136 -12 12 -34 111 -26 119 1 2 35 -36 75 -83 41 -47 76 -81 78
-75 4 12 -134 181 -148 181 -10 0 -16 19 -25 77 -6 37 -4 43 17 54 24 14 96
28 114 24 6 -2 57 -6 112 -10z m338 -150 c199 -59 225 -338 40 -423 -89 -41
-176 -34 -248 21 -147 114 -105 347 72 402 59 18 76 18 136 0z"/>
<path d="M7850 8335 c0 -2 39 -37 88 -76 48 -40 112 -95 142 -122 30 -27 56
-45 58 -39 4 12 -53 66 -178 168 -82 66 -110 84 -110 69z"/>
<path d="M7970 8330 c0 -9 153 -130 164 -130 21 0 -5 27 -73 80 -82 62 -91 67
-91 50z"/>
<path d="M8072 7861 c4 -12 101 -91 111 -91 17 0 2 18 -48 59 -48 40 -70 51
-63 32z"/>
<path d="M8041 7823 c1 -13 100 -85 107 -78 8 8 -78 84 -95 85 -7 0 -13 -3
-12 -7z"/>
<path d="M8010 7781 c0 -16 58 -71 75 -71 12 0 6 11 -24 40 -42 41 -51 46 -51
31z"/>
<path d="M7350 7738 c0 -17 169 -178 187 -178 9 0 -29 43 -83 95 -54 52 -100
95 -101 95 -2 0 -3 -5 -3 -12z"/>
<path d="M7810 7662 c0 -14 59 -66 67 -59 3 4 -6 21 -22 37 -28 30 -45 38 -45
22z"/>
<path d="M7350 7632 c0 -13 91 -85 98 -77 4 4 -13 25 -38 46 -44 38 -60 47
-60 31z"/>
<path d="M7420 8330 c0 -21 125 -157 132 -144 3 5 -25 43 -63 84 -38 41 -69
68 -69 60z"/>
<path d="M7320 8306 c0 -16 143 -171 172 -187 35 -19 31 -1 -8 33 -56 49 -113
109 -132 141 -18 29 -32 35 -32 13z"/>
<path d="M7520 8312 c0 -18 52 -82 67 -82 14 0 13 3 -4 23 -11 12 -26 32 -32
45 -11 21 -31 30 -31 14z"/>
<path d="M7716 8076 c-29 -28 -31 -45 -12 -134 23 -105 64 -127 143 -74 97 64
120 101 93 151 -11 21 -108 66 -162 76 -31 6 -41 3 -62 -19z m137 -59 c29 -12
47 -26 47 -36 0 -20 -106 -95 -124 -88 -15 6 -41 131 -31 147 7 12 44 4 108
-23z"/>
<path d="M8565 8346 c-11 -17 -34 -35 -50 -40 -17 -6 -31 -11 -33 -12 -2 -1 5
-15 15 -30 10 -16 20 -53 23 -84 l5 -55 19 34 c22 41 52 68 85 77 l25 7 -28
22 c-19 15 -29 35 -34 67 l-7 45 -20 -31z"/>
<path d="M6945 8315 c-80 -33 -139 -76 -143 -103 -5 -32 20 -28 77 11 58 40
106 61 124 54 45 -17 114 -472 105 -687 l-3 -74 -78 -28 c-92 -32 -194 -85
-201 -103 -3 -8 1 -18 8 -24 10 -9 31 -2 85 25 39 19 105 48 148 63 90 31 91
32 92 163 3 280 -78 718 -134 725 -11 2 -47 -8 -80 -22z"/>
<path d="M3804 8310 c-12 -5 -25 -13 -29 -19 -3 -6 -17 -11 -29 -11 -48 0 -67
-29 -70 -105 -4 -81 7 -111 45 -131 59 -30 122 -12 145 43 9 21 25 57 35 81
26 60 24 89 -10 123 -30 30 -50 34 -87 19z m54 -52 c17 -17 15 -38 -5 -60 -14
-16 -19 -32 -22 -75 -2 -20 -31 -43 -55 -43 -13 0 -31 9 -42 21 -18 20 -18 21
4 38 24 18 22 45 -4 55 -7 3 -11 12 -8 21 7 17 39 20 49 5 9 -15 35 -12 40 5
3 8 7 22 10 30 5 18 17 19 33 3z"/>
<path d="M5388 8060 c-46 -47 -36 -85 45 -166 74 -75 116 -90 157 -56 21 17
24 29 27 95 3 71 2 77 -23 96 -15 12 -31 21 -36 21 -6 0 -21 9 -35 20 -40 31
-98 27 -135 -10z m104 -43 c2 -18 10 -22 38 -22 40 0 55 -29 21 -40 -27 -8
-28 -45 -1 -52 24 -6 21 -26 -4 -31 -22 -5 -138 114 -134 136 4 20 45 42 64
35 7 -2 14 -14 16 -26z"/>
<path d="M6790 7952 c0 -36 -25 -92 -40 -92 -23 0 -7 -17 26 -29 21 -7 47 -29
65 -53 l29 -41 0 49 c0 31 7 61 20 82 23 38 24 43 8 41 -40 -5 -59 4 -83 38
l-25 38 0 -33z"/>
<path d="M3770 7914 c0 -22 -7 -49 -15 -60 -20 -26 -19 -34 5 -34 11 0 37 -17
58 -39 l37 -39 -3 38 c-2 21 3 50 12 68 l15 30 -32 6 c-20 4 -40 18 -54 39
l-23 32 0 -41z"/>
<path d="M8602 7729 c-180 -166 -378 -287 -568 -347 -172 -54 -201 -57 -429
-53 -461 9 -536 7 -595 -12 -63 -21 -150 -80 -150 -102 0 -26 29 -29 53 -7 12
12 49 33 82 49 59 27 64 28 230 27 94 -1 265 -3 380 -5 176 -3 224 -1 295 14
277 60 528 198 758 419 63 61 74 81 47 92 -10 3 -46 -23 -103 -75z"/>
<path d="M8536 7767 c-45 -25 -55 -44 -31 -53 26 -10 107 33 103 54 -5 25 -28
25 -72 -1z"/>
<path d="M761 7683 c-1 -43 -6 -58 -30 -85 l-29 -34 44 -18 c33 -13 54 -32 80
-70 l34 -51 0 60 c0 45 6 71 25 103 l24 42 -31 0 c-30 0 -76 38 -105 85 -10
17 -12 13 -12 -32z"/>
<path d="M8358 7654 c-30 -16 -39 -54 -13 -54 30 0 75 30 75 50 0 24 -23 25
-62 4z"/>
<path d="M3946 7643 c-3 -4 -27 -8 -52 -8 -50 -2 -94 -34 -94 -68 0 -11 -8
-29 -17 -39 -21 -23 -22 -80 -2 -104 44 -53 131 -48 170 9 12 18 37 48 55 67
46 50 53 92 20 125 -24 24 -65 33 -80 18z m52 -61 c2 -7 -11 -27 -30 -45 -18
-18 -39 -44 -47 -58 -20 -39 -57 -54 -87 -34 -27 17 -26 17 -18 39 3 9 14 16
24 16 23 0 30 19 17 44 -7 15 -5 22 9 33 15 11 21 10 39 -7 28 -26 34 -25 45
6 10 26 40 30 48 6z"/>
<path d="M8208 7564 c-29 -15 -37 -41 -15 -50 23 -9 89 25 85 44 -4 22 -36 25
-70 6z"/>
<path d="M5428 7518 c-15 -16 -38 -28 -51 -28 -24 0 -24 -1 -11 -40 8 -21 11
-54 8 -72 l-5 -33 23 27 c13 15 40 34 62 43 35 15 37 18 23 33 -9 9 -17 35
-19 57 l-3 40 -27 -27z"/>
<path d="M7993 7489 c-23 -7 -33 -16 -33 -29 0 -16 7 -20 34 -20 38 0 83 30
72 48 -8 14 -28 14 -73 1z"/>
<path d="M7207 7426 c-9 -23 14 -36 64 -36 48 0 68 17 46 39 -16 16 -104 14
-110 -3z"/>
<path d="M7743 7433 c-44 -4 -54 -18 -31 -41 27 -27 118 -6 118 28 0 21 2 21
-87 13z"/>
<path d="M7460 7415 c0 -24 54 -41 118 -36 21 2 13 38 -10 45 -45 12 -108 7
-108 -9z"/>
<path d="M6984 7391 c-51 -23 -61 -38 -41 -58 14 -14 18 -14 39 1 12 9 40 21
61 27 28 7 37 15 35 27 -5 24 -46 25 -94 3z"/>
<path d="M4292 5995 c-75 -21 -109 -41 -161 -94 -75 -75 -96 -128 -96 -241 0
-81 4 -103 26 -150 14 -30 47 -75 72 -100 26 -25 47 -48 47 -52 0 -4 -50 -9
-112 -10 l-112 -3 -7 -28 c-39 -145 -32 -888 8 -928 4 -4 82 -16 173 -24 218
-22 207 -19 208 -56 1 -42 27 -78 69 -96 23 -9 113 -19 247 -28 255 -18 346
-18 383 -4 42 16 82 58 89 96 l6 33 133 0 c162 0 194 6 205 35 5 13 14 70 20
126 7 57 14 114 16 126 4 20 16 14 141 -74 162 -113 181 -123 194 -102 7 9 9
158 6 413 -5 435 -4 428 -61 399 -45 -23 -174 -110 -227 -155 -26 -21 -49 -38
-52 -38 -3 0 -8 53 -12 118 -4 64 -12 125 -17 135 -8 15 -25 17 -132 17 -68 0
-144 3 -170 6 l-46 7 36 39 c48 53 66 100 66 169 0 141 -106 248 -247 249
-111 0 -205 -66 -240 -169 -27 -80 -12 -167 41 -237 l29 -37 -79 6 c-43 4
-102 7 -130 7 l-51 0 52 45 c35 30 63 68 84 112 29 57 33 76 33 147 1 70 -3
89 -30 146 -17 36 -49 82 -70 104 -82 82 -224 121 -332 91z m207 -66 c107 -47
175 -153 175 -274 0 -121 -60 -215 -169 -267 -190 -89 -410 39 -423 247 -7
110 38 207 125 266 89 62 194 72 292 28z m564 -213 c39 -17 92 -71 106 -109
17 -45 13 -124 -9 -166 -75 -149 -287 -146 -357 4 -35 76 -28 143 24 213 48
65 157 92 236 58z m-198 -431 c110 -8 284 -18 386 -21 l186 -7 7 -76 c17 -204
18 -527 2 -664 -9 -76 -18 -143 -22 -148 -9 -15 -636 -11 -866 7 -229 17 -556
49 -562 55 -2 2 -10 67 -17 144 -12 138 -6 538 9 665 l7 55 95 6 c136 9 541 1
775 -16z m934 -507 c1 -159 -3 -288 -8 -288 -4 0 -69 42 -142 93 l-134 93 -3
146 -3 146 63 55 c35 30 97 77 138 105 l75 51 6 -57 c4 -31 7 -186 8 -344z
m-1174 -458 c83 -5 219 -10 303 -10 167 0 174 -3 128 -57 -21 -24 -32 -28 -92
-31 -92 -5 -502 24 -537 37 -28 11 -48 46 -39 69 3 9 17 11 46 7 22 -3 109
-10 191 -15z"/>
<path d="M4319 5755 c-35 -19 -62 -77 -54 -116 10 -43 51 -87 89 -94 78 -15
143 49 133 129 -11 79 -96 120 -168 81z m99 -51 c43 -30 15 -114 -38 -114 -22
0 -70 41 -70 60 0 16 21 53 34 62 18 12 50 9 74 -8z"/>
<path d="M4950 5619 c-64 -26 -80 -101 -31 -150 38 -37 88 -39 128 -5 74 64
-6 192 -97 155z m61 -58 c21 -16 22 -22 11 -45 -19 -42 -82 -30 -82 15 0 18
25 49 40 49 4 0 18 -8 31 -19z"/>
<path d="M4155 5260 c-132 -9 -135 -11 -135 -71 0 -27 5 -49 10 -49 6 0 10 15
10 33 0 68 5 69 324 69 156 0 302 -3 324 -7 45 -7 68 10 25 19 -49 9 -454 14
-558 6z"/>
<path d="M4968 5229 c-25 -14 -24 -71 2 -94 39 -36 110 -7 110 44 0 44 -70 75
-112 50z m57 -49 c3 -5 -1 -10 -9 -10 -9 0 -16 5 -16 10 0 6 4 10 9 10 6 0 13
-4 16 -10z"/>
<path d="M5142 5218 c-48 -23 -32 -100 23 -114 36 -9 75 19 75 54 0 33 -8 45
-37 61 -26 13 -31 13 -61 -1z m45 -64 c-9 -9 -28 6 -21 18 4 6 10 6 17 -1 6
-6 8 -13 4 -17z"/>
<path d="M5292 5204 c-45 -31 -14 -114 43 -114 32 0 65 33 65 64 0 27 -42 66
-69 66 -9 0 -27 -7 -39 -16z m55 -60 c-9 -9 -28 6 -21 18 4 6 10 6 17 -1 6 -6
8 -13 4 -17z"/>
<path d="M4106 4968 c-3 -29 -6 -121 -6 -204 0 -192 -1 -190 130 -209 208 -30
715 -47 790 -26 21 6 27 17 38 66 17 80 20 308 4 362 l-12 41 -93 6 c-50 3
-261 8 -468 11 l-376 5 -7 -52z m214 -184 c120 -214 115 -203 98 -200 -27 4
-38 20 -121 164 -47 81 -95 164 -107 185 l-22 37 24 0 c19 -1 39 -29 128 -186z
m-11 104 c21 -46 64 -130 95 -187 92 -171 56 -125 -55 70 -122 214 -115 199
-94 199 10 0 29 -29 54 -82z m114 -116 c61 -120 93 -192 85 -192 -17 0 -180
297 -203 369 -5 17 -4 22 6 19 7 -2 58 -91 112 -196z m-41 181 c21 -24 190
-363 186 -374 -2 -4 -8 -5 -14 -1 -10 7 -204 374 -204 386 0 12 17 6 32 -11z
m104 -70 c112 -236 143 -308 133 -312 -6 -1 -11 -1 -13 0 -7 10 -196 379 -196
384 0 3 9 5 20 5 15 0 29 -19 56 -77z m115 -120 c95 -183 98 -193 76 -193 -18
0 -28 8 -38 33 -7 17 -48 105 -90 195 -110 231 -73 206 52 -35z m53 15 c107
-221 101 -208 83 -208 -9 0 -52 73 -111 189 -53 104 -96 191 -96 195 0 3 8 6
18 6 14 0 40 -44 106 -182z m63 -8 c51 -102 92 -188 93 -192 0 -5 -7 -8 -15
-8 -9 0 -47 64 -101 172 -107 213 -110 221 -87 216 12 -2 49 -66 110 -188z
m62 8 c50 -100 91 -187 91 -195 0 -7 -8 -13 -17 -13 -13 1 -43 52 -108 186
-108 223 -101 204 -77 204 16 0 39 -37 111 -182z m54 1 c48 -99 87 -187 87
-196 0 -36 -25 1 -84 130 -36 75 -79 162 -96 192 -29 50 -30 55 -12 55 15 0
38 -39 105 -181z m59 -9 c48 -102 87 -188 88 -192 0 -5 -6 -8 -14 -8 -7 0 -24
24 -36 53 -13 28 -52 113 -89 187 -36 74 -68 138 -70 143 -2 5 5 7 15 5 13 -2
45 -59 106 -188z m42 28 c42 -90 76 -174 76 -187 0 -17 -3 -22 -10 -15 -9 9
-170 350 -170 360 0 2 6 4 13 4 8 0 48 -71 91 -162z m37 52 c52 -94 57 -109
50 -140 -8 -35 -8 -35 -19 -10 -6 14 -33 74 -61 133 -28 59 -51 113 -51 118 0
29 28 -7 81 -101z m28 28 c18 -33 29 -63 26 -66 -3 -3 -6 -3 -8 -1 -10 12 -77
138 -77 144 0 19 31 -22 59 -77z m19 36 l2 -29 -14 25 c-19 31 -20 43 -3 38 6
-3 13 -18 15 -34z m-793 -81 c33 -59 77 -138 98 -175 56 -99 24 -87 -40 15
-104 166 -152 267 -125 267 4 0 34 -48 67 -107z m-55 -3 c0 -8 52 -100 112
-197 19 -31 19 -33 1 -33 -13 0 -35 32 -75 110 -59 110 -66 130 -48 130 6 0
10 -4 10 -10z m30 -150 c30 -60 37 -86 21 -76 -14 9 -71 114 -71 131 0 27 19
6 50 -55z m-20 -63 c0 -20 -25 1 -28 24 -2 23 -2 23 13 5 8 -11 15 -24 15 -29z"/>
<path d="M4103 4465 c4 -12 48 -22 105 -24 69 -2 48 14 -33 25 -50 6 -74 6
-72 -1z"/>
<path d="M4326 4441 c38 -35 994 -65 994 -30 0 4 -136 8 -302 8 -196 0 -365 5
-478 15 -202 19 -228 19 -214 7z"/>
<path d="M1385 5960 c-245 -37 -443 -172 -601 -410 -119 -179 -161 -322 -151
-510 16 -287 185 -539 442 -661 113 -53 187 -69 364 -80 287 -17 461 30 647
176 133 105 207 155 263 176 79 31 229 36 429 14 150 -17 297 -16 313 3 3 4 2
66 -2 137 -5 72 -12 188 -15 258 -5 102 -9 130 -21 134 -9 4 -23 1 -32 -6 -41
-30 -122 -61 -185 -71 -49 -8 -108 -8 -209 0 -77 6 -143 12 -145 15 -12 12 13
110 39 147 l28 43 -38 8 c-43 9 -62 26 -91 83 l-19 39 -1 -30 c0 -54 -20 -103
-50 -129 l-30 -25 45 -20 c32 -14 53 -33 75 -67 16 -26 28 -49 26 -51 -2 -2
-32 -8 -67 -14 -35 -5 -72 -12 -81 -15 -16 -5 -18 3 -18 66 0 304 -196 602
-478 727 -125 55 -310 82 -437 63z m203 -50 c111 -14 229 -59 326 -124 202
-134 319 -341 333 -590 6 -106 6 -109 -18 -127 -13 -10 -27 -19 -31 -19 -5 0
-8 31 -8 68 0 93 -31 209 -84 317 -102 207 -293 356 -526 410 -95 22 -269 20
-360 -4 -41 -11 -76 -18 -79 -16 -6 6 80 42 147 61 110 32 188 38 300 24z m6
-120 c128 -33 228 -91 332 -195 78 -78 98 -104 137 -185 62 -129 81 -221 75
-363 -8 -191 -78 -348 -213 -482 -395 -391 -1049 -222 -1217 315 -19 64 -23
95 -22 210 0 120 3 144 28 215 82 241 275 424 510 485 100 26 268 26 370 0z
m1430 -741 c-2 -3 -67 -9 -145 -12 -94 -4 -145 -10 -150 -18 -7 -11 -29 -146
-32 -199 -2 -25 -1 -25 78 -25 44 0 122 3 173 7 l92 8 0 -50 c0 -46 -2 -50
-27 -56 -15 -4 -89 -2 -163 6 -205 19 -380 24 -444 10 -82 -17 -178 -69 -286
-156 -119 -95 -205 -147 -300 -179 -88 -30 -111 -28 -49 4 119 62 225 159 300
275 44 66 93 189 104 256 8 53 26 75 79 102 97 50 187 62 367 49 162 -11 270
-1 342 32 l52 24 6 -36 c4 -20 5 -39 3 -42z m-127 -129 l31 -70 -24 0 c-21 0
-30 10 -55 65 -16 35 -29 67 -29 70 0 3 10 5 23 5 18 0 28 -14 54 -70z m52 8
c27 -60 31 -85 10 -72 -9 5 -69 117 -69 129 0 3 7 5 15 5 9 0 27 -26 44 -62z
m59 20 c12 -24 22 -53 22 -65 0 -42 -27 -24 -54 36 -31 69 -31 71 -8 71 10 0
26 -17 40 -42z m22 27 c0 -8 -2 -15 -4 -15 -2 0 -6 7 -10 15 -3 8 -1 15 4 15
6 0 10 -7 10 -15z m-205 -55 c21 -44 26 -63 18 -71 -9 -9 -20 5 -42 49 -34 68
-37 82 -18 82 7 0 26 -27 42 -60z m-25 -72 c1 -18 -18 -6 -28 17 -20 43 -13
63 8 25 11 -19 19 -38 20 -42z"/>
<path d="M1357 5715 c-81 -28 -121 -89 -115 -175 5 -68 33 -112 88 -140 143
-73 298 73 236 221 -34 81 -128 123 -209 94z m82 -69 c-2 -2 -31 -6 -64 -9
-37 -3 -51 -2 -35 3 25 8 107 13 99 6z m38 -12 c-3 -3 -12 -4 -19 -1 -8 3 -5
6 6 6 11 1 17 -2 13 -5z m29 -34 c42 -17 22 -22 -36 -9 -52 11 -124 8 -165 -7
-16 -5 -18 -4 -8 6 27 29 143 35 209 10z m-30 -31 c24 -6 47 -15 49 -19 3 -5
-12 -4 -32 2 -22 6 -74 8 -122 5 -84 -6 -99 -1 -39 13 49 12 94 11 144 -1z
m36 -47 c7 -7 -2 -8 -33 0 -43 10 -137 5 -175 -8 -13 -5 -16 -4 -9 4 6 5 19
12 30 15 33 9 175 1 187 -11z m-102 -23 c-25 -4 -57 -10 -72 -13 -16 -3 -28
-1 -28 4 0 10 37 17 100 17 l45 1 -45 -9z m80 -27 c0 -4 -19 -7 -42 -7 -24 0
-58 -3 -75 -7 -19 -4 -33 -3 -33 2 0 5 12 11 28 13 50 7 122 7 122 -1z m-45
-32 c-3 -5 -21 -10 -38 -9 -27 0 -29 2 -12 9 28 12 57 12 50 0z"/>
<path d="M1704 5481 c-78 -48 -107 -157 -62 -235 46 -79 154 -108 233 -63 58
33 87 88 82 160 -4 64 -23 98 -77 135 -43 29 -131 31 -176 3z m106 -68 c41
-47 72 -116 68 -151 -3 -22 -6 -17 -21 30 -9 31 -35 79 -57 107 -46 59 -38 69
10 14z m44 -4 c37 -55 29 -57 -11 -3 -18 24 -29 44 -24 44 5 0 21 -18 35 -41z
m-24 -106 c11 -31 19 -61 17 -67 -2 -6 -11 12 -20 39 -10 28 -35 74 -57 103
-51 67 -51 80 0 24 22 -24 49 -69 60 -99z m-85 76 c34 -41 61 -95 69 -139 5
-27 1 -21 -18 23 -25 60 -34 74 -75 120 -14 15 -20 27 -14 27 6 0 23 -14 38
-31z m-3 -53 c44 -61 33 -63 -17 -2 -25 31 -45 59 -45 62 0 12 33 -20 62 -60z
m-10 -45 c15 -25 28 -49 28 -55 0 -5 -13 10 -28 35 -16 24 -36 50 -45 58 -9 7
-17 18 -17 23 0 17 32 -15 62 -61z m168 34 c0 -5 -5 -3 -10 5 -5 8 -10 20 -10
25 0 6 5 3 10 -5 5 -8 10 -19 10 -25z m-186 -74 c-7 -7 -34 28 -34 43 1 6 10
0 21 -13 11 -13 17 -27 13 -30z"/>
<path d="M955 5476 c-120 -53 -136 -214 -31 -297 43 -34 132 -38 183 -10 98
56 119 175 45 263 -46 55 -130 74 -197 44z m95 -44 c0 -5 -9 -17 -21 -28 -25
-22 -56 -81 -74 -138 -12 -38 -13 -39 -13 -11 -1 41 17 85 55 139 30 42 53 59
53 38z m-85 -48 c-14 -20 -30 -55 -36 -78 -7 -22 -14 -36 -16 -29 -5 15 32
101 54 125 25 28 25 21 -2 -18z m79 -15 c-19 -28 -42 -76 -51 -108 -9 -31 -19
-48 -21 -38 -6 30 27 113 64 156 20 22 37 41 39 41 2 0 -12 -23 -31 -51z m60
29 c-5 -7 -20 -30 -35 -50 -14 -20 -32 -59 -39 -85 -13 -47 -30 -79 -30 -55 0
25 42 122 70 161 28 38 51 58 34 29z m16 -83 c-11 -21 -23 -54 -26 -72 -3 -18
-11 -33 -16 -33 -5 0 -6 10 -3 23 12 39 55 130 60 125 3 -2 -4 -22 -15 -43z
m-54 -50 c-22 -69 -42 -92 -24 -27 10 35 35 92 41 92 2 0 -6 -29 -17 -65z m70
8 c-8 -15 -15 -22 -16 -15 0 17 20 55 27 49 2 -3 -2 -18 -11 -34z"/>
<path d="M1343 5231 c-47 -22 -83 -79 -83 -132 0 -81 89 -158 168 -145 74 12
126 72 126 146 0 110 -109 178 -211 131z m127 -58 c40 -37 47 -78 20 -121 -20
-33 -54 -52 -92 -52 -31 0 -88 63 -88 97 1 88 96 133 160 76z"/>
<path d="M1747 5065 c-76 -27 -119 -88 -119 -167 2 -148 177 -221 286 -120
133 124 3 348 -167 287z m19 -120 c-14 -30 -27 -55 -30 -55 -3 0 4 19 14 43
11 23 20 51 20 63 0 26 14 41 18 20 2 -9 -8 -41 -22 -71z m52 38 c-17 -64 -79
-163 -101 -163 -5 0 5 18 22 39 34 43 70 116 71 144 0 9 4 17 9 17 6 0 5 -15
-1 -37z m-94 -54 c-15 -33 -31 -59 -34 -59 -4 0 3 21 16 47 13 25 24 54 24 63
0 21 13 35 19 19 2 -6 -9 -38 -25 -70z m130 54 c-12 -51 -41 -109 -74 -146
-40 -46 -54 -41 -15 5 32 37 75 124 75 151 0 9 5 17 10 17 6 0 8 -11 4 -27z
m21 -58 c-11 -38 -30 -71 -57 -101 -51 -56 -63 -50 -14 7 30 36 53 82 72 148
3 8 7 11 10 8 3 -3 -2 -31 -11 -62z m-179 18 c-8 -15 -15 -22 -16 -15 0 17 20
55 27 49 2 -3 -2 -18 -11 -34z m195 -67 c-12 -24 -31 -52 -42 -62 -15 -13 -11
-4 10 28 17 25 34 61 38 80 4 20 9 26 11 15 2 -9 -6 -37 -17 -61z"/>
<path d="M997 5060 c-77 -14 -128 -73 -135 -154 -4 -46 0 -62 22 -100 45 -78
137 -105 222 -67 53 24 86 71 92 132 6 62 -2 90 -34 129 -44 52 -101 72 -167
60z m86 -196 c22 -25 37 -47 34 -50 -8 -8 -86 94 -103 134 -7 19 -14 42 -13
51 0 9 10 -8 21 -37 11 -29 39 -73 61 -98z m-13 132 c0 -7 19 -34 41 -60 23
-26 39 -49 37 -52 -7 -7 -64 60 -83 96 -9 17 -11 30 -5 30 5 0 10 -6 10 -14z
m-10 -157 c49 -58 38 -66 -14 -9 -37 42 -64 95 -72 145 -3 19 4 8 20 -29 13
-32 43 -80 66 -107z m80 108 c0 -6 -9 -2 -20 8 -11 10 -20 23 -20 28 0 6 9 2
20 -8 11 -10 20 -23 20 -28z m-139 -95 c7 -9 27 -32 43 -51 22 -23 25 -30 11
-23 -52 27 -115 127 -115 182 0 17 8 8 24 -33 13 -32 30 -65 37 -75z m139 -6
c0 -16 -54 40 -74 76 -15 27 -10 24 27 -17 25 -27 46 -54 47 -59z m-142 -48
c14 -16 21 -28 14 -28 -12 0 -82 98 -82 115 0 5 10 -6 21 -25 12 -19 33 -47
47 -62z"/>
<path d="M1359 4840 c-133 -40 -163 -237 -47 -308 119 -73 268 6 268 143 0
113 -113 198 -221 165z m66 -50 c-3 -5 -21 -10 -38 -10 -24 0 -28 3 -17 10 20
13 63 13 55 0z m47 -22 c-7 -7 -44 -13 -85 -14 l-72 -3 63 8 c34 4 65 11 69
14 3 4 13 7 22 7 12 0 12 -3 3 -12z m31 -29 c-6 -6 -39 -12 -74 -14 l-64 -4
54 10 c30 5 57 12 60 14 2 3 11 5 20 5 11 0 12 -3 4 -11z m9 -31 c-16 -16
-167 -23 -202 -10 -18 7 -4 8 50 5 41 -3 91 -1 110 5 48 14 56 14 42 0z m18
-27 c0 -13 -82 -31 -137 -31 -26 1 -61 7 -78 15 -21 10 -23 13 -7 9 52 -13
160 -5 220 15 1 1 2 -3 2 -8z m-125 -51 c28 0 66 4 84 10 43 12 54 5 15 -11
-44 -18 -137 -23 -178 -9 -45 14 -48 32 -4 19 18 -5 55 -9 83 -9z m80 -40
c-11 -5 -45 -8 -75 -8 l-55 1 60 7 c87 10 92 10 70 0z m-62 -37 c-7 -2 -19 -2
-25 0 -7 3 -2 5 12 5 14 0 19 -2 13 -5z"/>
<path d="M2321 4979 c-41 -10 -78 -24 -82 -30 -3 -6 -9 -43 -12 -82 -4 -40 -9
-87 -13 -104 -9 -46 11 -50 93 -18 76 31 192 54 269 55 62 0 64 4 64 106 0 71
-1 75 -26 84 -44 17 -212 11 -293 -11z m119 -70 c6 -22 14 -47 17 -55 3 -9 -1
-14 -14 -14 -13 0 -23 14 -36 49 -21 61 -21 61 3 61 14 0 22 -11 30 -41z m50
-12 c20 -53 7 -77 -14 -25 -25 61 -29 81 -16 76 7 -2 20 -25 30 -51z m48 3
c16 -38 18 -50 8 -50 -8 0 -16 6 -19 13 -3 6 -12 29 -21 50 -13 30 -14 37 -2
37 7 0 23 -22 34 -50z m50 0 c4 -52 -8 -47 -33 13 -16 38 -16 38 7 35 20 -3
23 -10 26 -48z m-204 -7 c19 -56 20 -63 3 -63 -14 0 -59 95 -49 104 15 16 32
1 46 -41z m-50 -19 c10 -25 16 -47 13 -50 -6 -6 -47 69 -47 86 0 24 16 7 34
-36z m-30 -26 c22 -43 20 -58 -4 -28 -17 22 -27 60 -16 60 3 0 12 -14 20 -32z"/>
<path d="M2060 5812 c0 -4 16 -16 35 -26 19 -10 46 -36 61 -57 14 -21 31 -36
36 -33 15 10 -51 88 -94 110 -31 16 -38 17 -38 6z"/>
<path d="M8866 5763 c-20 -45 -46 -68 -91 -79 -26 -6 -26 -7 -7 -28 31 -33 41
-60 48 -120 l7 -57 17 38 c16 36 62 83 106 109 18 11 17 12 -8 24 -33 16 -40
30 -47 100 l-6 55 -19 -42z"/>
<path d="M8540 5694 c-60 -14 -282 -56 -800 -154 -186 -35 -226 -39 -424 -44
-205 -5 -222 -7 -272 -30 -57 -26 -64 -38 -37 -68 9 -10 14 -20 12 -22 -2 -2
-56 -20 -119 -41 -118 -38 -199 -86 -200 -117 0 -9 20 -31 45 -49 25 -18 45
-37 45 -42 0 -5 -11 -22 -25 -39 -33 -39 -32 -45 10 -65 40 -19 42 -28 15 -63
-28 -35 -25 -48 15 -67 41 -20 41 -21 15 -73 -27 -52 -26 -58 15 -77 40 -19
42 -29 15 -80 -27 -51 -25 -60 13 -79 17 -9 33 -18 35 -19 2 -2 -4 -17 -12
-34 -24 -46 -20 -66 19 -87 19 -10 35 -20 35 -21 0 -2 -12 -21 -26 -43 -22
-33 -24 -43 -14 -55 7 -8 19 -15 26 -15 20 0 17 -17 -7 -57 -19 -30 -20 -37
-8 -49 12 -12 45 -8 229 26 118 22 278 52 355 68 127 25 151 27 260 21 271
-16 578 -30 890 -39 379 -11 370 -13 337 63 -11 24 -25 48 -31 51 -15 10 -14
26 3 26 7 0 19 7 26 15 11 13 8 21 -18 48 l-32 33 40 39 c46 45 49 57 18 78
l-23 15 34 36 c28 29 32 38 22 50 -7 8 -21 18 -32 21 -25 8 -24 20 6 59 33 43
32 51 -9 79 l-35 23 30 47 c37 60 37 81 -2 97 l-30 13 36 37 c42 43 40 55 -14
96 l-39 29 30 37 c16 21 28 46 27 55 -1 10 1 26 5 35 4 9 5 21 2 26 -3 5 -54
13 -113 16 -60 4 -125 9 -145 12 -37 6 -38 6 -24 33 18 33 12 43 -41 70 -47
24 -50 29 -28 70 8 17 13 45 10 67 -2 22 -4 42 -4 47 -1 10 -35 7 -111 -9z
m43 -86 c7 -4 5 -20 -8 -48 -21 -46 -17 -52 37 -70 21 -6 40 -16 44 -21 3 -6
-6 -28 -21 -50 -31 -48 -28 -65 17 -74 48 -11 48 -11 27 -72 -21 -63 -16 -78
32 -88 36 -8 36 -20 3 -69 -26 -37 -26 -40 -9 -53 11 -7 29 -13 42 -13 28 0
29 -9 2 -55 -24 -40 -20 -65 11 -65 25 0 25 -2 0 -50 -26 -52 -25 -64 6 -79
l27 -12 -22 -20 c-11 -11 -21 -21 -21 -23 0 -2 23 -21 52 -41 38 -28 48 -39
37 -45 -17 -9 -521 -132 -794 -194 -352 -79 -1055 -219 -1063 -211 -2 2 1 12
7 23 16 29 14 62 -3 62 -26 0 -28 19 -7 49 29 41 26 59 -14 78 -38 18 -42 34
-20 73 21 37 18 48 -17 66 -18 9 -34 18 -36 19 -2 2 6 21 17 44 30 57 27 76
-14 100 l-36 21 21 39 c28 56 26 77 -10 90 -35 12 -36 16 -10 56 26 40 26 42
-15 66 l-35 21 25 32 c14 18 25 38 25 44 0 6 -20 25 -45 43 -25 18 -45 36 -45
40 0 36 409 154 845 243 94 19 283 55 420 81 138 25 313 58 390 73 122 24 140
26 144 12 2 -8 8 -18 14 -22z m-1328 -166 c-6 -5 -48 -19 -94 -31 -59 -16 -87
-19 -94 -12 -21 21 12 35 96 42 45 3 86 7 92 7 6 1 6 -1 0 -6z m1576 -165 c31
-55 53 -83 66 -85 12 -2 29 -12 39 -23 17 -19 17 -20 -3 -41 -12 -11 -27 -18
-35 -15 -20 8 -142 247 -126 247 7 0 34 -37 59 -83z m29 41 c20 -45 27 -79 11
-62 -4 5 -21 30 -36 57 -22 39 -24 47 -10 47 9 0 24 -18 35 -42z m40 12 c0
-11 5 -20 10 -20 6 0 10 -4 10 -10 0 -23 -29 -8 -39 20 -8 24 -7 30 5 30 7 0
14 -9 14 -20z m-85 -122 c33 -62 61 -117 61 -123 1 -5 2 -15 3 -21 0 -6 17
-18 36 -27 39 -18 41 -25 22 -51 -12 -16 -19 -9 -75 80 -34 54 -62 109 -62
122 0 12 -7 25 -15 29 -29 10 -62 104 -37 103 4 0 34 -51 67 -112z m-15 -116
c-28 -5 -33 1 -25 29 l8 23 20 -25 19 -24 -22 -3z m80 -92 c18 -28 30 -53 28
-56 -8 -7 -77 89 -72 98 8 13 10 10 44 -42z m-22 -34 c18 -24 32 -51 32 -59 0
-8 16 -25 37 -37 l36 -21 -21 -22 c-12 -11 -23 -19 -25 -16 -33 40 -72 110
-72 129 0 18 -6 26 -22 28 -25 4 -26 4 -17 26 9 24 18 20 52 -28z m11 -124
c19 -31 28 -55 25 -69 -4 -16 2 -25 25 -39 35 -20 37 -27 17 -43 -10 -9 -19
-2 -42 30 -16 23 -27 52 -26 64 2 17 -5 25 -28 35 -17 7 -33 16 -36 21 -5 9
17 49 27 49 4 0 21 -22 38 -48z m-14 -102 c3 -6 -1 -7 -9 -4 -18 7 -21 14 -7
14 6 0 13 -4 16 -10z m78 -139 c4 -4 -8 -22 -27 -40 l-35 -34 -6 36 c-4 20 -4
41 0 47 7 12 53 6 68 -9z m-88 -43 c11 -78 17 -98 25 -98 5 0 10 6 13 13 4 9
7 9 17 0 11 -10 8 -14 -13 -22 -15 -6 -27 -13 -27 -17 0 -3 16 -25 35 -48 51
-62 47 -70 -27 -62 -35 4 -63 8 -64 9 -1 1 -15 57 -31 125 -26 103 -29 124
-17 129 8 3 16 4 18 2 2 -2 18 -55 34 -118 17 -62 33 -116 36 -119 16 -15 12
14 -14 118 -35 137 -35 130 -11 130 15 0 21 -10 26 -42z m-93 -103 c15 -60 28
-114 28 -118 0 -5 -12 -7 -27 -5 -26 3 -29 9 -50 93 -29 121 -29 147 -1 143
19 -3 26 -18 50 -113z m-92 77 c0 -9 11 -59 23 -109 l23 -93 -26 0 c-25 0 -28
5 -43 68 -30 124 -32 150 -11 154 25 6 34 0 34 -20z m-57 -74 c9 -46 20 -94
23 -107 6 -19 3 -22 -12 -19 -14 2 -23 24 -41 97 -12 52 -20 98 -17 103 16 25
31 0 47 -74z m-48 -38 c30 -131 -7 -120 -47 13 -19 68 -20 79 -8 87 22 14 34
-8 55 -100z m-64 3 c27 -81 27 -93 3 -93 -15 0 -33 32 -60 108 -16 46 -16 54
-4 62 25 16 33 7 61 -77z m-69 -8 c24 -70 25 -75 8 -75 -13 0 -24 15 -38 53
-35 93 -35 97 -15 97 13 0 25 -19 45 -75z m-82 61 c0 -2 11 -33 25 -70 24 -63
24 -66 6 -66 -14 0 -26 17 -44 63 -14 34 -23 65 -20 70 4 7 33 10 33 3z m-34
-75 c15 -41 19 -61 11 -59 -15 5 -57 86 -57 111 0 36 23 11 46 -52z m-52 3
c31 -68 31 -64 5 -64 -15 0 -26 14 -43 53 -24 54 -25 52 11 66 1 1 13 -24 27
-55z m-74 17 c5 -11 14 -31 20 -45 8 -22 7 -26 -10 -26 -13 0 -25 12 -35 36
-8 20 -15 40 -15 45 0 17 29 9 40 -10z m-47 -31 c13 -34 13 -40 1 -40 -14 0
-45 59 -37 73 9 16 21 5 36 -33z m-50 -4 c5 -15 6 -30 2 -34 -9 -10 -35 28
-35 51 0 27 22 16 33 -17z m-53 -2 c13 -33 13 -34 -5 -34 -17 0 -39 36 -30 50
11 17 25 11 35 -16z m-52 -11 c2 -9 -7 -13 -27 -13 -21 0 -31 5 -31 16 0 19
51 16 58 -3z m-88 -3 c0 -5 -12 -10 -27 -10 -22 0 -25 2 -13 10 20 13 40 13
40 0z"/>
<path d="M8230 5484 c-331 -36 -677 -96 -961 -168 -252 -63 -349 -94 -349
-112 0 -18 118 -587 150 -721 21 -90 22 -93 50 -93 72 0 729 133 1213 246 299
69 291 67 284 102 -53 244 -91 439 -112 576 -14 94 -28 173 -31 178 -7 11 -96
8 -244 -8z m210 -61 c0 -39 44 -295 86 -502 19 -95 33 -175 31 -177 -24 -24
-1408 -316 -1424 -300 -9 9 -153 690 -153 725 0 14 25 25 133 54 224 62 661
157 722 157 9 0 16 -17 20 -45 9 -58 27 -84 48 -67 13 11 13 20 2 67 l-12 54
26 5 c64 13 403 51 479 54 40 2 42 0 42 -25z"/>
<path d="M8260 5320 c-52 -10 -112 -19 -132 -19 -50 -1 -68 -10 -68 -32 0 -16
8 -19 48 -19 70 0 274 38 283 52 9 14 -8 39 -25 37 -6 -1 -54 -10 -106 -19z"/>
<path d="M7745 5211 c-25 -5 -31 -12 -33 -40 -4 -43 26 -179 40 -183 7 -3 36
5 65 15 38 14 53 25 51 36 -3 12 -14 16 -46 14 -48 -2 -54 10 -14 29 41 20 35
43 -10 42 -31 -1 -38 2 -38 18 0 11 11 23 26 28 16 7 24 16 22 27 -4 20 -20
24 -63 14z"/>
<path d="M7895 5210 c-4 -6 -4 -31 0 -56 5 -34 10 -44 25 -44 26 0 28 8 21 60
-6 44 -30 65 -46 40z"/>
<path d="M7630 5170 c0 -7 -8 -9 -19 -5 -23 7 -36 -12 -46 -70 -11 -60 -15
-61 -47 -10 -32 52 -64 59 -61 14 l1 -26 -36 18 c-75 36 -113 1 -106 -96 l3
-40 -17 50 c-31 90 -50 99 -76 34 l-16 -40 -31 26 c-18 14 -37 24 -43 22 -16
-6 -9 -198 9 -216 22 -23 36 -2 35 53 -2 70 -3 69 22 52 24 -17 48 -6 48 23 1
13 3 12 12 -4 28 -52 39 -64 53 -59 8 4 15 12 15 20 0 10 6 8 20 -6 62 -62
146 -11 138 85 -2 25 -2 45 -1 45 0 0 14 -20 30 -45 20 -33 34 -45 48 -43 16
3 23 19 39 91 10 48 22 87 26 87 3 0 12 -29 19 -64 7 -36 19 -73 26 -83 12
-16 15 -16 29 -3 13 13 13 25 -8 105 -19 77 -25 90 -44 93 -12 2 -22 -2 -22
-8z m-207 -138 c35 -30 13 -112 -26 -96 -21 8 -41 92 -26 110 12 14 22 12 52
-14z"/>
<path d="M8260 5164 c-154 -25 -150 -24 -150 -44 0 -10 4 -21 8 -24 4 -2 69 5
145 17 93 14 138 25 142 35 13 35 -10 38 -145 16z"/>
<path d="M7940 5050 c-9 -5 -11 -19 -6 -46 11 -61 16 -74 31 -74 22 0 27 18
20 70 -7 49 -21 65 -45 50z"/>
<path d="M8240 4980 c-63 -10 -121 -19 -127 -19 -14 -1 -18 -37 -5 -45 5 -3
66 4 138 14 71 11 133 20 137 20 15 0 2 45 -13 46 -8 1 -67 -6 -130 -16z"/>
<path d="M7811 4939 c-24 -4 -49 -14 -57 -20 -9 -8 -18 -8 -26 -2 -9 7 -25 6
-48 -2 l-35 -12 1 -71 2 -70 -30 10 c-37 13 -43 29 -25 65 17 33 12 53 -13 53
-10 0 -23 -12 -30 -30 -14 -35 -26 -38 -33 -10 -5 18 -11 20 -49 14 -56 -9
-75 -19 -84 -46 -6 -19 -7 -19 -16 -5 -11 21 -48 22 -48 3 0 -28 39 -179 49
-189 15 -15 40 10 34 34 -6 20 -5 20 23 6 16 -8 51 -14 79 -13 l50 2 -2 42
c-2 46 2 49 53 27 19 -8 41 -12 49 -9 10 4 15 0 15 -10 0 -24 26 -30 52 -12
12 9 30 16 39 16 23 0 40 23 29 39 -5 10 -19 12 -43 8 -48 -7 -55 4 -15 23 46
21 44 45 -4 44 -34 -1 -38 2 -38 22 0 13 5 24 12 24 6 0 20 7 30 17 11 9 18
11 18 5 0 -7 9 -12 20 -12 19 0 36 -41 55 -137 5 -23 12 -33 25 -33 10 0 21 4
24 9 6 9 -16 119 -30 155 -4 11 3 19 21 26 17 7 25 16 23 27 -4 21 -19 24 -77
12z m-327 -156 c3 -16 8 -38 12 -49 4 -15 0 -23 -12 -28 -27 -10 -54 22 -54
66 0 33 3 38 24 38 18 0 25 -7 30 -27z"/>
<path d="M7975 4879 c-11 -16 4 -96 20 -109 25 -21 38 -1 31 48 -8 60 -34 90
-51 61z"/>
<path d="M8225 4836 c-50 -9 -61 -15 -63 -33 -5 -31 17 -31 176 3 14 3 22 12
22 24 0 17 -6 20 -37 19 -21 -1 -65 -6 -98 -13z"/>
<path d="M7225 4803 c-33 -8 -64 -18 -69 -23 -15 -15 14 -41 42 -38 22 3 27
-3 38 -42 7 -25 16 -57 19 -72 4 -19 12 -28 24 -28 28 0 30 18 12 93 -17 65
-17 67 3 80 12 9 17 19 13 30 -7 19 -3 19 -82 0z"/>
<path d="M8000 4718 c0 -52 11 -78 31 -78 19 0 23 8 20 45 -4 48 -12 65 -31
65 -16 0 -20 -7 -20 -32z"/>
<path d="M5475 5651 c-10 -33 -73 -81 -105 -81 -36 0 -36 -2 -7 -41 18 -25 22
-44 22 -100 0 -66 1 -69 15 -47 35 53 74 89 111 100 l39 11 -32 27 c-31 26
-33 31 -31 89 1 64 -2 74 -12 42z"/>
<path d="M660 5463 c-17 -26 -30 -53 -30 -60 0 -26 17 -12 35 27 10 22 24 45
32 51 15 13 17 29 3 29 -6 0 -24 -21 -40 -47z"/>
<path d="M591 5287 c-23 -76 -36 -184 -27 -232 12 -61 21 -38 22 58 2 81 7
113 39 215 5 13 3 22 -3 22 -6 0 -20 -28 -31 -63z"/>
<path d="M2484 4626 c-54 -17 -104 -47 -104 -63 0 -9 21 -1 58 19 49 28 67 33
125 33 65 0 83 7 51 19 -25 10 -85 6 -130 -8z"/>
<path d="M6683 4551 c8 -41 -10 -97 -38 -119 -26 -20 -23 -32 6 -32 24 0 85
-54 107 -94 l17 -31 6 68 c4 46 12 77 27 97 12 16 22 32 22 35 0 3 -16 5 -35
5 -38 0 -64 20 -90 69 -20 39 -29 40 -22 2z"/>
<path d="M970 4385 c0 -56 -20 -103 -51 -126 l-31 -21 39 -18 c44 -19 87 -66
108 -116 18 -43 28 -44 20 -1 -8 43 8 104 40 151 14 20 25 39 25 41 0 3 -15 5
-33 5 -42 0 -60 14 -91 70 -25 44 -26 44 -26 15z"/>
<path d="M4028 4265 c-4 -43 -11 -62 -32 -84 l-27 -28 24 -7 c35 -8 76 -44
106 -91 l26 -41 0 61 c0 50 5 69 28 103 l27 42 -29 0 c-46 0 -61 10 -91 57
l-28 43 -4 -55z"/>
<path d="M1300 4272 c0 -5 10 -13 23 -17 36 -11 274 -18 294 -9 11 5 -31 11
-117 15 -74 3 -150 10 -167 14 -21 5 -33 4 -33 -3z"/>
<path d="M1791 2959 c-52 -5 -98 -12 -102 -16 -10 -10 -61 -208 -84 -325 l-18
-88 -126 0 c-331 0 -611 -44 -628 -99 -16 -51 -28 -72 -56 -101 -28 -29 -31
-37 -30 -95 0 -34 6 -86 13 -115 10 -43 17 -54 41 -62 33 -11 28 8 75 -308 40
-273 128 -805 147 -890 15 -65 35 -80 153 -111 58 -15 122 -22 244 -26 294
-10 478 35 502 122 31 115 106 640 141 999 l22 221 29 13 c43 21 60 72 52 162
-5 67 -10 78 -40 110 -19 19 -37 46 -41 60 -4 14 -12 31 -17 37 -16 19 -127
51 -208 59 l-72 7 7 36 c3 20 15 75 26 122 l20 86 167 12 c92 6 181 11 197 11
56 0 82 80 51 155 l-15 35 -178 -1 c-98 -1 -220 -6 -272 -10z m423 -55 c10
-27 7 -64 -6 -69 -15 -4 -301 -26 -303 -22 -1 1 -5 26 -9 55 l-7 52 160 0
c136 0 160 -2 165 -16z m-384 -40 c22 -44 19 -78 -3 -39 -6 11 -23 32 -39 47
-34 32 -35 38 -4 38 19 0 29 -10 46 -46z m41 19 c5 -15 9 -38 7 -52 -3 -20 -7
-16 -25 27 -17 42 -18 52 -7 52 8 0 19 -12 25 -27z m-75 -49 c23 -34 15 -37
-31 -14 -21 10 -42 21 -48 23 -5 1 -7 13 -3 25 7 21 9 21 37 7 16 -9 36 -27
45 -41z m-38 -34 c35 -22 48 -69 15 -55 -10 5 -33 13 -51 19 -20 7 -30 16 -27
24 3 8 5 18 5 23 0 15 23 10 58 -11z m4 -78 c15 -15 16 -23 8 -52 -19 -66 -49
-250 -43 -265 9 -26 37 -12 47 23 8 28 13 32 43 32 44 0 185 -29 197 -40 14
-14 -31 -27 -156 -47 -141 -21 -619 -25 -768 -5 -125 17 -210 41 -188 53 54
30 384 63 573 57 l100 -3 -3 -31 c-2 -22 2 -33 13 -38 27 -10 33 0 45 77 15
91 49 247 56 259 8 13 55 0 76 -20z m-779 -386 c250 -51 820 -43 1020 14 51
15 60 4 14 -15 -21 -8 -37 -20 -37 -25 0 -13 1 -13 45 6 26 10 41 12 48 5 13
-13 -50 -41 -143 -64 -253 -64 -640 -72 -922 -21 -68 12 -93 22 -119 45 -18
16 -37 29 -42 29 -6 0 -8 2 -5 5 3 3 24 -4 46 -15 23 -12 47 -18 53 -14 7 4
-5 15 -32 28 -48 24 -67 52 -28 43 13 -3 59 -12 102 -21z m1127 -86 c0 -5 -11
-12 -25 -16 -36 -9 -31 -27 5 -19 42 9 39 -11 -5 -29 -46 -19 -45 -30 3 -22
34 6 36 5 18 -9 -11 -8 -26 -15 -33 -15 -7 0 -13 -6 -13 -14 0 -21 -174 -66
-360 -92 -145 -21 -435 -21 -573 1 -128 19 -296 60 -311 76 -8 7 0 9 27 4 24
-5 37 -3 37 3 0 6 -16 14 -36 18 -19 4 -38 13 -41 21 -9 23 3 26 36 8 45 -23
38 0 -9 30 -22 14 -40 30 -40 35 0 13 -3 14 95 -15 156 -45 289 -60 540 -59
165 0 261 5 341 17 125 19 255 51 293 72 31 17 51 19 51 5z m-84 -282 c-26
-311 -108 -908 -151 -1105 -5 -20 -61 -60 -70 -51 -2 2 2 129 10 283 7 154 18
390 24 525 6 135 14 277 17 317 l6 71 77 20 c42 11 80 20 85 21 5 1 6 -35 2
-81z m-1040 40 c37 -6 68 -17 70 -22 6 -20 95 -1169 90 -1173 -9 -10 -47 9
-61 30 -20 32 -81 384 -165 947 -35 238 -35 244 -15 236 9 -3 45 -11 81 -18z
m824 -33 c0 -30 -11 -32 -34 -6 -13 15 -14 20 -4 24 27 11 38 6 38 -18z m-42
-25 c20 -25 32 -49 30 -62 -3 -18 -9 -13 -45 34 -24 30 -43 58 -43 61 0 19 29
2 58 -33z m-604 -7 c10 -21 46 -81 80 -133 59 -90 83 -140 67 -140 -11 0 -181
286 -181 305 0 17 19 0 34 -32z m89 -62 c32 -50 57 -100 55 -109 -4 -17 -40
34 -110 151 -31 54 -33 60 -15 55 6 -3 38 -46 70 -97z m486 24 c35 -41 61 -80
59 -87 -4 -11 -138 139 -138 155 0 20 23 0 79 -68z m-457 7 c42 -74 29 -86
-15 -14 -39 64 -44 76 -25 70 6 -2 24 -27 40 -56z m21 38 c3 -11 1 -20 -4 -20
-5 0 -9 2 -9 4 0 2 -3 11 -6 20 -3 9 -2 16 4 16 5 0 12 -9 15 -20z m222 -43
c5 -54 22 -945 21 -1082 l-1 -50 -69 -3 c-45 -2 -72 1 -76 9 -4 6 -8 55 -9
108 -1 53 -8 269 -16 481 -13 356 -19 578 -16 590 0 3 37 6 80 7 l79 2 7 -62z
m189 -38 c93 -108 110 -156 22 -61 -68 73 -136 152 -136 158 0 2 6 4 14 4 7 0
52 -45 100 -101z m-449 -171 c36 -56 55 -96 53 -110 -2 -18 -22 8 -85 109 -99
159 -123 205 -123 235 0 16 16 -4 49 -62 27 -47 75 -124 106 -172z m338 230
c8 -13 53 -65 101 -116 52 -57 86 -102 86 -115 0 -18 -8 -14 -51 28 -54 53
-169 200 -169 216 0 16 17 9 33 -13z m141 -238 c33 -32 46 -52 46 -72 0 -15
-4 -28 -8 -28 -10 0 -94 87 -155 161 -37 45 -47 64 -47 93 l0 37 59 -73 c32
-40 79 -93 105 -118z m-514 -28 c55 -87 90 -154 90 -170 0 -23 -6 -18 -43 38
-81 121 -157 258 -156 282 0 18 2 20 10 8 5 -8 50 -80 99 -158z m498 -53 c52
-55 61 -70 54 -88 -7 -20 -13 -15 -72 51 -111 124 -130 149 -130 175 0 24 3
22 42 -23 24 -27 71 -79 106 -115z m-435 -141 c23 -31 41 -98 26 -98 -11 0
-189 315 -189 336 0 10 31 -32 69 -93 38 -62 81 -127 94 -145z m405 89 c57
-60 82 -95 82 -112 0 -14 -2 -25 -5 -25 -20 0 -195 220 -195 245 0 19 0 19 18
0 11 -11 56 -59 100 -108z m-459 -101 c51 -87 91 -166 89 -175 -2 -9 -44 49
-96 131 -66 106 -92 157 -92 180 0 17 2 29 4 27 2 -2 45 -76 95 -163z m484
-13 c38 -42 57 -71 57 -88 0 -14 -4 -25 -8 -25 -11 0 -91 85 -141 148 -28 38
-41 63 -41 85 l0 32 38 -45 c20 -25 63 -73 95 -107z m-479 -87 c49 -79 86
-148 84 -159 -4 -27 -178 246 -178 280 0 15 2 24 3 22 2 -2 43 -67 91 -143z
m468 -2 c33 -34 58 -70 58 -82 0 -17 -9 -11 -48 31 -84 91 -132 154 -132 173
1 14 9 9 33 -21 17 -22 58 -67 89 -101z m-69 9 c25 -32 64 -78 87 -102 22 -25
40 -54 40 -65 0 -17 -5 -16 -36 15 -64 61 -144 166 -144 188 0 11 2 21 4 21 1
0 24 -26 49 -57z m-313 -250 c0 -13 -2 -23 -3 -23 -4 0 -96 136 -141 207 -14
24 -26 55 -26 70 0 23 17 3 85 -102 47 -71 85 -140 85 -152z m298 185 c15 -18
53 -60 84 -94 52 -55 73 -94 49 -94 -9 0 -109 111 -148 164 -22 28 -30 56 -17
56 3 0 17 -15 32 -32z m-370 -146 c46 -69 82 -134 80 -144 -3 -20 -161 207
-173 250 -13 46 12 17 93 -106z m469 -40 c18 -19 33 -44 33 -57 0 -19 -15 -8
-85 65 -65 68 -85 95 -85 116 0 27 3 25 52 -32 29 -32 67 -74 85 -92z m-464
-51 c43 -66 77 -127 75 -135 -5 -26 -155 174 -163 217 -4 21 -3 37 1 37 5 0
44 -54 87 -119z m419 22 c67 -67 96 -113 71 -113 -16 0 -163 156 -163 172 0
10 3 18 7 18 4 0 43 -35 85 -77z m0 -80 c68 -67 93 -103 72 -103 -7 0 -123 89
-146 113 -18 17 -25 67 -11 67 4 0 43 -35 85 -77z m-413 -40 c53 -69 72 -99
69 -118 -3 -22 -11 -15 -77 62 -59 69 -74 94 -78 127 -6 48 -9 50 86 -71z
m480 -129 c1 -42 -11 -53 -56 -54 -21 0 -93 71 -93 91 0 16 11 11 61 -26 34
-25 65 -45 70 -45 23 0 4 20 -60 64 -56 38 -70 52 -74 79 -2 18 -3 35 0 39 2
4 37 -18 78 -50 70 -54 74 -59 74 -98z m-438 -12 c20 -23 34 -44 32 -46 -21
-21 -153 113 -153 156 0 21 5 19 43 -23 23 -25 58 -64 78 -87z m-51 -36 c0 -4
-7 -5 -16 -2 -9 3 -22 6 -30 6 -10 0 -14 12 -14 38 l1 37 29 -35 c16 -19 30
-39 30 -44z m380 -8 c0 -4 -9 -8 -20 -8 -15 0 -20 7 -20 27 0 25 0 26 20 8 11
-10 20 -22 20 -27z"/>
<path d="M7493 2934 c-37 -19 -53 -42 -53 -74 0 -36 26 -68 62 -78 28 -7 34
-18 78 -127 26 -66 46 -123 44 -126 -2 -3 -30 -16 -62 -27 -32 -12 -86 -39
-118 -60 l-60 -39 -139 -7 c-275 -13 -450 -28 -462 -40 -18 -17 -33 -469 -33
-993 0 -248 3 -458 6 -467 5 -12 21 -16 74 -16 38 0 71 -4 74 -9 3 -5 -1 -28
-9 -52 -24 -67 -19 -70 92 -67 l98 3 0 55 0 55 460 3 c253 2 601 0 773 -4
l313 -6 -3 -52 -3 -51 90 -6 c50 -4 93 -5 98 -2 4 2 4 29 1 59 l-7 54 60 0
c32 0 64 5 71 12 9 9 12 72 12 221 0 114 7 344 16 510 16 310 15 720 -2 737
-11 11 -229 35 -464 51 -143 9 -170 14 -200 34 -20 12 -56 32 -80 45 -25 12
-46 23 -47 24 -2 1 21 58 50 126 50 118 54 124 87 133 80 20 106 95 55 156
-34 39 -56 45 -100 27 -25 -11 -40 -26 -51 -52 -14 -34 -14 -41 0 -77 15 -39
15 -40 -36 -163 -28 -68 -55 -124 -60 -124 -6 0 -38 7 -72 16 -61 17 -224 24
-319 14 l-49 -5 -49 124 c-45 112 -48 125 -35 140 9 10 18 31 22 47 11 59 -65
107 -123 78z m63 -48 c26 -20 7 -51 -32 -51 -35 0 -45 30 -17 50 23 18 25 18
49 1z m784 -41 c0 -30 -24 -49 -54 -41 -43 11 -45 69 -3 86 27 10 57 -14 57
-45z m-296 -360 c33 -9 87 -29 120 -45 l61 -28 -362 -1 c-200 -1 -363 1 -363
4 0 13 163 72 238 85 67 13 236 4 306 -15z m301 -135 c231 -12 552 -42 567
-51 21 -13 22 -321 4 -714 -9 -192 -18 -422 -19 -510 l-2 -160 -295 0 c-451 0
-1561 9 -1687 13 l-113 3 0 442 c0 368 14 934 23 943 4 4 302 25 467 33 227
12 859 12 1055 1z m-1323 -1475 c9 -4 13 -17 10 -40 -4 -33 -6 -35 -43 -35
-41 0 -46 8 -33 58 6 22 34 29 66 17z m1738 -46 c0 -29 -2 -30 -37 -27 -33 3
-38 7 -41 31 -3 26 -1 27 37 27 39 0 41 -1 41 -31z"/>
<path d="M7444 2290 c-260 -10 -496 -28 -507 -39 -24 -24 -38 -1242 -14 -1258
13 -9 923 -7 1524 3 302 5 373 9 377 20 3 8 10 240 16 516 5 277 12 546 16
599 4 61 2 99 -4 103 -14 8 -272 33 -477 45 -251 15 -691 20 -931 11z m1006
-66 c207 -14 349 -28 355 -36 2 -3 -10 -543 -21 -934 l-6 -202 -302 -6 c-165
-3 -573 -7 -906 -8 l-605 -3 -3 340 c-2 343 10 820 21 832 4 3 57 10 119 15
368 29 933 30 1348 2z"/>
<path d="M7760 2064 c-109 -29 -199 -106 -248 -212 -24 -50 -27 -70 -27 -157
0 -88 3 -107 27 -157 139 -298 539 -302 695 -7 26 50 28 63 28 164 0 104 -2
113 -31 170 -88 167 -266 247 -444 199z m158 -43 c14 -8 87 -239 78 -248 -17
-18 -40 29 -76 155 -12 45 -27 82 -32 82 -12 0 -4 -40 27 -137 22 -72 22 -80
-2 -65 -13 8 -73 179 -73 206 0 17 54 23 78 7z m-98 -15 c0 -7 11 -48 25 -91
14 -43 23 -80 20 -84 -11 -10 -33 29 -56 98 -12 36 -24 72 -27 79 -2 7 4 12
17 12 12 0 21 -6 21 -14z m-36 -70 c31 -88 31 -88 9 -84 -22 4 -76 140 -59
150 20 13 23 9 50 -66z m201 66 c6 -4 19 -32 29 -62 29 -85 137 -339 147 -346
12 -7 12 -34 0 -34 -16 0 -70 106 -65 127 4 15 -3 25 -29 41 -31 18 -38 30
-62 109 -14 48 -32 107 -40 131 -14 42 -7 54 20 34z m-256 -82 c18 -47 19 -56
7 -69 -12 -12 -19 -5 -45 46 -28 56 -29 61 -13 76 20 21 25 15 51 -53z m329
43 c13 -11 39 -72 67 -153 25 -74 50 -139 55 -144 12 -12 13 -56 1 -56 -10 0
-91 178 -132 291 -29 80 -27 93 9 62z m-370 -108 c62 -121 49 -143 -15 -26
-47 86 -55 111 -35 111 4 0 26 -38 50 -85z m7 -112 c27 -51 46 -95 42 -99 -9
-9 -1 -19 -87 110 -66 99 -71 111 -60 134 l11 26 23 -40 c12 -21 44 -80 71
-131z m460 106 c22 -43 48 -164 33 -149 -7 6 -68 180 -68 192 0 18 11 5 35
-43z m-500 -136 c60 -89 85 -134 83 -152 -3 -20 -15 -8 -80 79 -90 122 -113
162 -105 184 4 9 9 16 11 16 3 0 44 -57 91 -127z m264 34 c51 -23 93 -46 93
-51 0 -10 -197 -126 -212 -126 -8 0 -20 108 -20 183 0 57 -5 57 139 -6z m-318
-64 c64 -89 199 -252 238 -287 27 -25 27 -36 -3 -36 -28 0 -58 34 -206 231
-59 78 -100 143 -100 156 0 13 2 23 4 23 2 0 32 -39 67 -87z m35 -134 c135
-178 129 -169 114 -169 -20 0 -69 57 -147 172 -63 92 -83 128 -70 128 2 0 48
-59 103 -131z m474 45 c30 -47 39 -69 31 -77 -13 -13 -10 -16 -53 65 -30 57
-36 78 -22 78 1 0 21 -30 44 -66z m-34 -34 c32 -62 38 -82 29 -90 -13 -11 -33
18 -79 108 -17 32 -16 62 1 62 4 0 26 -36 49 -80z m-47 -30 c23 -44 41 -85 39
-91 -5 -14 -98 131 -98 153 0 35 17 17 59 -62z m-426 -14 c51 -69 60 -90 25
-60 -33 30 -91 124 -75 124 2 0 24 -29 50 -64z m368 22 c12 -24 33 -58 47 -75
15 -21 22 -39 17 -50 -6 -17 -7 -17 -21 2 -20 26 -94 152 -94 159 0 3 7 6 15
6 8 0 24 -19 36 -42z m-20 -64 c26 -43 43 -81 37 -83 -5 -1 -10 -1 -12 0 -18
27 -96 159 -96 164 0 22 30 -12 71 -81z m-42 -13 c70 -118 50 -127 -28 -11
-35 51 -47 76 -39 81 17 11 21 7 67 -70z m-45 -22 c26 -39 46 -73 44 -75 -2
-2 -33 26 -69 62 -52 53 -61 66 -49 74 8 5 18 10 21 10 3 0 27 -32 53 -71z"/>
<path d="M8624 2009 c4 -39 11 -80 15 -92 14 -39 18 -2 8 81 -12 102 -33 112
-23 11z"/>
<path d="M8480 2038 c0 -22 59 -138 70 -138 14 0 13 12 -3 35 -8 11 -22 41
-32 68 -17 44 -35 62 -35 35z"/>
<path d="M7280 1388 c0 -39 15 -99 37 -150 26 -62 31 -33 7 39 -13 37 -24 85
-24 106 0 20 -4 37 -10 37 -5 0 -10 -15 -10 -32z"/>
<path d="M7160 1401 c0 -5 18 -48 40 -97 30 -64 44 -84 52 -76 8 8 -1 34 -32
96 -37 76 -60 105 -60 77z"/>
<path d="M7210 2735 c-18 -34 -70 -65 -108 -65 l-31 0 21 -36 c17 -30 20 -46
16 -107 -5 -69 -5 -71 11 -47 29 45 58 68 107 86 l49 17 -29 29 c-27 28 -28
33 -23 89 4 32 5 59 4 59 -2 0 -10 -11 -17 -25z"/>
<path d="M2260 2675 c-1 -56 -33 -122 -70 -143 -16 -9 -30 -19 -30 -22 0 -3
17 -14 37 -25 45 -25 66 -53 98 -130 24 -58 25 -59 25 -24 0 58 26 127 65 174
35 43 35 45 13 45 -46 0 -84 35 -111 101 l-26 64 -1 -40z"/>
<path d="M3970 2487 c-196 -88 -397 -228 -568 -394 l-100 -98 -17 -75 c-23
-100 -31 -314 -16 -437 18 -147 49 -271 69 -277 9 -3 76 -13 147 -23 97 -13
199 -17 405 -17 252 0 287 2 418 26 79 14 149 31 154 36 17 17 27 153 27 370
l1 202 38 0 38 0 -4 -143 c-4 -145 12 -415 27 -430 11 -11 204 -44 341 -58
190 -20 711 3 821 37 52 15 100 461 70 640 -23 133 -37 163 -120 247 -159 163
-345 304 -519 391 -96 48 -150 58 -209 35 -67 -25 -130 -121 -102 -155 26 -31
87 -54 145 -54 52 0 65 -5 148 -57 142 -89 298 -194 294 -198 -2 -2 -179 1
-393 6 -360 10 -1125 6 -1325 -7 -85 -5 -85 -5 -63 14 12 11 65 45 118 76 307
181 276 166 345 166 64 0 134 24 160 55 29 34 -29 119 -102 149 -65 28 -123
21 -228 -27z m215 -21 c18 -8 41 -26 51 -41 27 -42 3 -58 -98 -64 -83 -6 -83
-6 -243 -100 -88 -51 -203 -122 -255 -157 -93 -62 -97 -64 -160 -64 l-65 0 35
33 c71 67 217 182 299 235 71 45 259 145 311 165 28 10 91 7 125 -7z m975 -26
c147 -74 371 -241 489 -364 l35 -36 -61 0 c-53 0 -65 4 -99 31 -45 37 -365
249 -411 273 -18 9 -56 16 -87 16 -96 0 -132 33 -83 77 62 56 110 57 217 3z
m-15 -430 c390 -11 586 -25 596 -41 40 -65 47 -446 11 -613 -11 -54 -22 -100
-24 -101 -13 -14 -283 -38 -468 -42 -230 -6 -349 2 -528 34 -84 15 -95 19
-104 42 -7 16 -12 129 -13 282 -1 141 -6 262 -9 268 -10 16 -166 15 -166 -1 3
-161 -8 -560 -15 -567 -6 -5 -68 -20 -140 -33 -115 -20 -160 -23 -400 -23
-200 1 -301 5 -390 18 -65 9 -122 17 -126 17 -21 0 -59 265 -59 415 0 104 26
295 43 311 9 9 289 26 542 33 404 12 869 12 1250 1z"/>
<path d="M3653 1940 c-217 -19 -210 -17 -227 -61 -27 -66 -39 -177 -32 -289 6
-105 35 -253 53 -271 19 -19 258 -41 458 -41 202 0 442 25 467 50 35 35 34
540 -1 575 -29 29 -527 55 -718 37z m178 -127 c89 -125 189 -253 286 -365 46
-53 83 -99 83 -102 0 -12 -63 -5 -74 8 -292 363 -416 521 -416 530 0 5 26 13
47 15 6 0 40 -38 74 -86z m112 -18 c43 -57 139 -176 213 -266 134 -161 143
-178 92 -179 -28 0 -153 143 -324 373 -134 179 -134 177 -92 177 30 -1 40 -11
111 -105z m124 -47 c66 -84 155 -193 197 -242 50 -58 76 -97 76 -113 0 -39
-22 -25 -96 62 -110 130 -344 426 -344 436 0 5 10 9 23 9 18 0 51 -34 144
-152z m-41 144 c5 -4 36 -42 68 -85 58 -77 207 -249 239 -276 18 -14 24 -71 8
-71 -19 0 -351 406 -351 429 0 12 20 14 36 3z m-275 -99 c41 -54 138 -178 216
-275 79 -98 143 -180 143 -183 0 -3 -19 -5 -42 -5 -42 1 -44 2 -128 107 -47
58 -108 136 -135 172 -145 188 -205 270 -205 275 0 3 17 6 39 6 37 0 41 -4
112 -97z m481 -47 c96 -113 118 -146 118 -170 -1 -31 -1 -31 -62 34 -60 64
-147 168 -203 243 l-29 39 29 -4 c24 -2 52 -30 147 -142z m43 44 c51 -60 75
-97 75 -114 0 -14 -3 -26 -7 -25 -8 0 -186 213 -191 228 -1 5 9 6 23 3 17 -3
52 -35 100 -92z m-590 -57 c61 -81 156 -204 212 -275 56 -70 99 -129 95 -131
-34 -17 -57 6 -261 266 -116 147 -211 272 -211 277 0 6 12 10 28 9 23 0 43
-21 137 -146z m627 80 c48 -65 27 -70 -25 -6 -26 32 -47 62 -47 67 0 16 43
-20 72 -61z m-616 -209 c115 -147 209 -269 209 -273 0 -3 -12 -7 -26 -9 -26
-3 -51 25 -279 318 -25 32 -67 85 -93 119 -38 48 -46 65 -41 86 3 14 10 25 14
25 4 0 101 -120 216 -266z m638 250 c4 -9 4 -19 1 -22 -6 -6 -35 18 -35 29 0
16 28 10 34 -7z m-787 -179 c167 -211 263 -335 263 -340 0 -3 -9 -5 -19 -5
-19 0 -119 113 -274 312 -55 72 -74 103 -70 118 3 11 9 20 13 18 4 -2 43 -48
87 -103z m34 -144 c68 -84 132 -164 142 -177 l19 -24 -31 0 c-26 0 -38 10 -84
73 -30 39 -84 110 -120 156 -49 62 -67 92 -67 115 0 17 4 26 8 21 5 -6 65 -79
133 -164z m-10 -88 c38 -51 69 -95 69 -98 0 -8 -53 -6 -66 3 -5 4 -36 41 -66
83 -44 60 -58 88 -63 125 l-6 49 31 -35 c17 -19 63 -76 101 -127z m-63 -47
l33 -46 -26 0 c-26 0 -34 12 -49 73 -9 36 1 30 42 -27z"/>
<path d="M4980 1944 c-89 -7 -292 -33 -297 -38 -28 -28 -29 -554 -1 -581 3 -3
68 -15 144 -27 105 -15 187 -21 334 -21 192 0 464 23 481 40 24 24 52 201 52
328 1 131 -19 241 -47 264 -28 23 -498 47 -666 35z m168 -176 c54 -73 124
-171 157 -218 32 -47 79 -113 103 -147 l44 -63 -31 0 c-25 0 -36 9 -68 56 -21
31 -111 153 -199 272 -163 219 -168 228 -116 231 6 1 56 -59 110 -131z m-6
105 c53 -58 349 -477 365 -518 3 -10 -1 -15 -13 -15 -12 0 -38 29 -74 82 -30
45 -117 166 -192 270 -165 228 -153 208 -130 208 10 0 30 -12 44 -27z m247
-245 c111 -147 201 -270 201 -273 0 -3 -12 -5 -27 -4 -25 0 -39 17 -117 135
-49 74 -133 195 -187 268 -55 74 -99 137 -99 141 0 29 56 -36 229 -267z m43
35 c204 -279 189 -256 178 -272 -5 -10 -64 61 -199 242 -105 140 -191 258
-191 261 0 3 9 6 19 6 14 0 71 -70 193 -237z m-102 227 c27 -14 300 -397 300
-420 0 -11 -4 -20 -8 -20 -5 0 -77 95 -162 210 -84 116 -157 213 -162 216 -8
5 -2 24 8 24 3 0 14 -4 24 -10z m-317 -67 c76 -97 330 -444 351 -480 5 -9 -3
-13 -27 -13 -34 0 -39 6 -231 274 -108 150 -196 276 -196 280 0 3 11 6 25 6
18 0 38 -17 78 -67z m520 -88 c91 -130 108 -159 105 -186 -3 -30 -9 -23 -113
121 -60 85 -120 169 -133 187 l-23 33 28 0 c25 0 41 -19 136 -155z m-35 138
c43 -39 169 -253 148 -253 -7 0 -175 235 -182 254 -8 21 9 20 34 -1z m-420
-265 c137 -191 190 -273 181 -278 -7 -5 -18 -6 -25 -3 -7 2 -62 71 -123 151
-60 81 -153 201 -205 267 -53 66 -96 123 -96 128 0 4 17 7 38 6 l37 0 193
-271z m518 211 c35 -46 65 -119 49 -119 -6 0 -115 168 -115 176 0 17 30 -9 66
-57z m-774 -1 c43 -52 186 -236 306 -395 34 -45 62 -87 62 -92 0 -6 -11 -11
-24 -11 -19 0 -43 22 -100 88 -103 122 -336 433 -336 449 0 7 11 13 24 13 16
0 37 -16 68 -52z m799 23 c11 -27 -6 -19 -22 11 -8 16 -8 19 2 16 6 -2 16 -14
20 -27z m-850 -83 c52 -75 237 -315 291 -377 21 -24 38 -48 38 -52 0 -45 -110
75 -292 319 -60 80 -88 126 -88 145 0 15 2 27 4 27 2 0 23 -28 47 -62z m115
-243 c69 -88 131 -166 136 -172 8 -10 4 -13 -16 -13 -20 0 -40 18 -99 93 -100
126 -197 271 -196 293 0 16 4 14 24 -11 13 -16 81 -102 151 -190z m-96 30 c35
-49 84 -115 108 -145 44 -54 44 -55 21 -59 -29 -4 -72 41 -154 162 -40 60 -55
91 -55 117 0 39 -3 42 80 -75z m38 -193 c-11 -2 -28 4 -39 14 -36 33 -79 110
-79 143 0 31 4 28 69 -61 60 -81 67 -93 49 -96z m-71 11 c-14 -13 -37 8 -37
33 l0 27 21 -27 c12 -15 19 -30 16 -33z"/>
<path d="M3345 2396 c-20 -26 -46 -46 -73 -56 -43 -16 -43 -16 -22 -35 23 -21
40 -74 40 -129 l0 -39 29 40 c29 41 70 74 105 87 18 6 17 9 -12 34 -28 23 -32
34 -34 82 l-3 56 -30 -40z"/>
<path d="M5916 1534 c-7 -50 -26 -82 -61 -101 -18 -10 -16 -12 15 -26 41 -17
70 -47 98 -102 l21 -40 1 43 c0 49 22 107 52 139 l21 23 -27 0 c-42 0 -64 16
-89 67 l-24 46 -7 -49z"/>
<path d="M690 1405 c-1 -59 -33 -121 -75 -146 l-35 -21 40 -20 c47 -23 75 -59
105 -135 l22 -54 6 55 c7 66 30 117 68 154 16 15 29 30 29 33 0 4 -17 9 -38
13 -47 7 -67 27 -98 103 l-24 58 0 -40z"/>
<path d="M9166 1235 c-22 -34 -74 -65 -108 -65 l-27 0 21 -47 c18 -41 20 -56
12 -104 l-10 -57 46 48 c30 32 59 52 88 61 l43 12 -24 26 c-32 35 -36 50 -27
102 5 24 7 45 5 47 -1 1 -10 -9 -19 -23z"/>
</g>
</svg>
