<?xml version="1.0" standalone="no"?>
<!DOCTYPE svg PUBLIC "-//W3C//DTD SVG 20010904//EN"
 "http://www.w3.org/TR/2001/REC-SVG-20010904/DTD/svg10.dtd">
<svg version="1.0" xmlns="http://www.w3.org/2000/svg"
 width="1200.000000pt" height="675.000000pt" viewBox="0 0 1200.000000 675.000000"
 preserveAspectRatio="xMidYMid meet">

<g transform="translate(0.000000,675.000000) scale(0.100000,-0.100000)"
fill="#000000" stroke="none">
<path d="M0 3375 l0 -3375 704 0 704 0 76 313 c330 1341 1311 5286 1504 6045
l100 392 -1544 0 -1544 0 0 -3375z m1700 517 c101 -57 214 -177 283 -299 50
-89 54 -103 25 -103 -19 0 -30 12 -55 63 -60 122 -166 241 -287 321 -30 20
-58 41 -61 47 -11 16 45 -1 95 -29z m-1190 -306 c97 -34 171 -79 235 -141 61
-60 88 -113 87 -171 -3 -120 -117 -192 -290 -182 -51 2 -72 0 -72 -8 0 -18
-30 -26 -46 -13 -8 6 -14 20 -14 30 0 11 -17 28 -44 44 -24 14 -63 46 -85 71
-35 37 -40 47 -31 64 14 27 44 45 106 65 l52 17 7 54 c3 29 10 56 15 59 13 8
30 -21 38 -66 7 -40 10 -44 37 -47 87 -7 117 -15 145 -38 16 -14 30 -33 30
-42 0 -24 -30 -52 -57 -52 -26 0 -31 15 -7 28 28 15 -10 34 -81 40 l-65 5 0
-75 0 -76 43 -6 c56 -9 141 9 193 39 78 46 78 130 -1 214 -79 84 -215 150
-357 172 -87 14 -165 5 -147 -17 9 -12 6 -14 -19 -14 -38 0 -47 12 -30 40 19
31 62 40 178 36 82 -2 121 -9 180 -30z m490 -21 c45 -28 46 -34 25 -75 -23
-44 -82 -80 -130 -80 -23 0 -46 -5 -52 -11 -9 -9 -16 -2 -27 26 -30 71 -13
114 58 146 55 25 79 24 126 -6z m1046 -140 c4 -8 9 -39 13 -68 l6 -52 68 -3
c58 -3 67 -5 67 -22 0 -17 -9 -19 -67 -22 l-68 -3 -3 -55 c-4 -71 -8 -82 -29
-78 -15 3 -18 14 -18 68 l0 65 -67 3 c-60 3 -68 5 -68 22 0 18 7 20 66 20 l67
0 -6 70 c-5 65 -4 70 14 70 11 0 22 -7 25 -15z m-697 -50 c38 -49 49 -174 18
-212 -5 -7 -20 -13 -33 -13 -19 0 -31 13 -56 58 l-33 57 -8 -60 c-10 -70 -19
-84 -43 -64 -14 11 -16 26 -11 85 8 83 21 124 41 124 16 0 59 -48 84 -94 15
-29 17 -29 20 -9 2 12 -4 50 -12 84 -19 73 -19 69 -2 69 8 0 24 -11 35 -25z
m317 -72 c-39 -72 -31 -80 17 -21 47 57 87 79 115 62 23 -15 28 -94 8 -133
-21 -39 -73 -78 -111 -83 -27 -3 -31 -9 -52 -73 -12 -38 -22 -82 -22 -97 -1
-34 -24 -37 -45 -6 -21 30 -20 63 6 144 13 41 21 88 19 116 -3 52 16 102 57
145 22 23 27 25 30 11 2 -9 -8 -38 -22 -65z m-497 58 c30 -19 -7 -38 -85 -44
-100 -7 -114 -22 -30 -30 36 -3 75 -11 86 -17 23 -12 35 -50 26 -85 -17 -69
-182 -70 -214 -1 -12 26 1 56 24 56 8 0 12 5 9 10 -3 6 -15 10 -25 10 -21 0
-28 15 -22 48 7 35 71 62 152 62 36 0 71 -4 79 -9z m425 -14 c15 -24 -6 -37
-61 -37 -32 0 -43 -4 -43 -15 0 -10 11 -15 35 -15 28 0 35 -4 35 -20 0 -15 -7
-20 -24 -20 -36 0 -76 -17 -76 -33 0 -10 13 -13 55 -9 49 4 55 2 55 -15 0 -44
-131 -83 -160 -48 -17 20 -5 123 17 147 15 17 15 20 -6 39 -26 25 -23 30 26
40 65 13 135 6 147 -14z m-690 -4 c2 -10 7 -56 11 -103 7 -93 -5 -127 -38
-114 -15 5 -17 21 -17 113 0 59 3 111 7 114 12 13 32 7 37 -10z"/>
<path d="M322 3290 c-50 -12 -59 -25 -36 -51 23 -25 109 -71 118 -62 3 4 6 33
6 65 0 57 -1 58 -27 57 -16 -1 -43 -5 -61 -9z"/>
<path d="M853 3518 c-24 -32 -24 -41 0 -19 15 14 27 26 27 28 0 8 -19 2 -27
-9z"/>
<path d="M929 3505 c-44 -29 -57 -55 -29 -55 46 0 99 36 100 68 0 20 -32 14
-71 -13z"/>
<path d="M1735 3250 c-21 -28 -35 -53 -32 -56 17 -17 87 54 87 87 0 31 -16 22
-55 -31z"/>
<path d="M1068 3239 c67 -20 9 -43 -72 -28 -31 6 -29 -19 2 -26 32 -7 109 8
125 24 16 16 -3 31 -49 36 l-39 5 33 -11z"/>
<path d="M5478 6168 c-129 -512 -217 -859 -249 -980 l-10 -38 -79 0 -80 0 0
-317 0 -318 -41 -170 c-23 -93 -135 -546 -249 -1005 -115 -459 -212 -851 -215
-870 -3 -19 -89 -370 -191 -780 -314 -1264 -414 -1669 -414 -1680 0 -7 1328
-10 4025 -10 l4025 0 0 3375 0 3375 -3188 0 -3187 0 -147 -582z m3665 -2465
c64 -23 140 -91 175 -157 24 -46 27 -62 27 -151 0 -85 -3 -106 -23 -143 -36
-67 -98 -129 -161 -159 -47 -23 -69 -27 -136 -27 -113 0 -203 43 -265 127
l-29 39 -16 -38 c-9 -22 -28 -52 -43 -68 -47 -50 -76 -56 -257 -56 l-165 0 0
319 c0 257 3 320 13 324 8 3 88 3 178 0 141 -4 169 -8 197 -25 37 -22 82 -83
82 -110 0 -25 15 -22 32 5 83 126 240 174 391 120z m-1215 -111 l3 -123 52 3
52 3 3 123 3 123 72 -2 c119 -4 107 34 107 -330 l0 -319 -90 0 -90 0 0 126 0
125 -52 -3 -53 -4 -3 -122 -3 -122 -94 0 -95 0 0 319 c0 246 3 321 13 325 6 2
48 4 92 3 l80 -2 3 -123z m2589 57 c-12 -88 -98 -178 -171 -179 -27 0 -28 1
-21 38 17 92 102 179 179 181 16 1 18 -4 13 -40z m503 -159 l0 -80 65 0 65 0
0 -55 0 -55 -66 0 -65 0 3 -210 c3 -240 5 -244 83 -245 l45 0 0 -52 c0 -48 -2
-53 -26 -59 -40 -10 -131 3 -167 23 -61 36 -67 61 -67 316 l0 227 -50 0 -50 0
0 55 0 55 50 0 50 0 0 80 0 80 65 0 65 0 0 -80z m-768 -50 c79 -25 90 -25 161
0 31 11 76 20 99 20 48 0 133 -36 162 -68 18 -21 18 -22 -23 -68 -57 -65 -73
-127 -50 -207 10 -36 66 -104 102 -124 17 -9 17 -12 -6 -64 -50 -111 -133
-199 -187 -199 -14 0 -51 9 -83 20 -31 11 -67 20 -80 20 -13 0 -50 -9 -82 -20
-93 -32 -111 -28 -171 34 -97 100 -154 244 -154 386 0 77 4 94 30 147 34 67
80 109 144 129 56 17 65 17 138 -6z m1192 -287 c44 -142 82 -261 85 -265 4 -4
29 63 55 150 27 86 64 205 83 265 l34 107 69 0 70 0 -61 -172 c-33 -95 -86
-246 -117 -336 l-57 -163 -74 3 -74 3 -74 210 c-41 116 -94 265 -118 333 l-43
122 72 0 72 0 78 -257z m-3633 -158 c24 -9 50 -22 60 -30 14 -14 22 -12 74 15
99 52 219 39 293 -33 57 -55 63 -81 69 -309 3 -115 2 -219 -1 -233 -5 -20 -13
-25 -39 -25 -18 0 -43 7 -55 16 -21 15 -22 20 -22 205 0 204 -7 242 -51 273
-30 21 -108 21 -138 0 -45 -32 -51 -68 -51 -289 l0 -205 -35 0 c-25 0 -44 8
-60 25 -25 24 -25 25 -25 222 0 192 -1 199 -23 227 -20 24 -33 30 -79 34 -50
4 -58 2 -89 -26 l-34 -30 -5 -224 -5 -223 -44 1 c-69 2 -71 8 -71 233 0 108 5
212 10 232 35 127 182 193 321 144z m941 -13 l47 -23 20 20 c13 13 34 21 56
21 l35 0 -2 -307 -3 -308 -38 -3 c-29 -3 -42 2 -59 21 l-21 24 -41 -20 c-58
-28 -149 -33 -220 -13 -146 43 -227 220 -182 396 27 105 85 173 173 206 58 21
177 14 235 -14z m396 -79 c42 -62 69 -93 82 -93 13 0 40 31 82 93 l63 92 73 3
c39 2 72 0 72 -3 0 -3 -41 -67 -91 -142 -51 -75 -94 -145 -96 -154 -3 -11 32
-71 91 -158 53 -77 96 -145 96 -151 0 -17 -112 -12 -138 6 -12 8 -45 50 -74
92 -52 78 -65 92 -83 92 -6 0 -35 -37 -65 -81 -73 -108 -88 -119 -162 -119
-51 0 -59 2 -54 16 3 9 47 75 96 148 50 73 90 140 90 150 0 10 -43 80 -95 156
-52 76 -95 141 -95 145 0 3 33 5 73 3 l72 -3 63 -92z m452 82 c0 -12 -4 -13
-19 -6 -10 6 -21 8 -24 5 -3 -3 -8 -1 -12 5 -4 7 5 11 24 11 21 0 31 -5 31
-15z"/>
<path d="M8420 3515 l0 -55 48 0 c58 0 85 17 85 55 0 38 -27 55 -85 55 l-48 0
0 -55z"/>
<path d="M8954 3541 c-62 -28 -89 -73 -89 -147 0 -51 4 -66 27 -96 95 -125
292 -59 292 97 0 120 -121 198 -230 146z m111 -21 c8 0 30 -16 50 -35 30 -30
35 -42 35 -81 0 -85 -51 -137 -133 -137 -72 0 -136 77 -122 149 11 64 91 123
143 108 8 -2 20 -4 27 -4z"/>
<path d="M8664 3412 l-21 -18 24 -17 23 -18 0 36 c0 40 1 40 -26 17z"/>
<path d="M8420 3275 l0 -55 53 0 c61 0 77 11 77 57 0 40 -21 53 -84 53 l-46 0
0 -55z"/>
<path d="M8545 2877 c-61 -29 -95 -94 -95 -184 0 -109 58 -182 152 -191 112
-11 183 64 183 193 0 123 -51 186 -154 192 -33 2 -68 -2 -86 -10z"/>
<path d="M3037 3814 c-14 -15 -6 -26 14 -21 27 7 49 -1 49 -19 0 -9 -11 -14
-28 -14 -32 0 -52 -16 -52 -41 0 -28 24 -40 69 -33 l42 7 -3 61 -3 61 -40 3
c-23 2 -44 0 -48 -4z m63 -89 c0 -8 -9 -15 -20 -15 -11 0 -20 7 -20 15 0 8 9
15 20 15 11 0 20 -7 20 -15z"/>
<path d="M3185 3811 c-3 -2 -5 -31 -5 -63 0 -51 2 -58 20 -58 17 0 20 7 20 49
0 32 5 51 14 54 22 9 36 -14 36 -60 0 -32 4 -43 15 -43 11 0 15 12 15 50 0 47
2 50 25 50 23 0 25 -3 25 -50 0 -43 3 -50 20 -50 17 0 20 7 20 46 0 77 -6 82
-110 81 -50 0 -93 -3 -95 -6z"/>
<path d="M3440 3804 c0 -12 6 -15 21 -11 27 7 49 -1 49 -19 0 -9 -11 -14 -28
-14 -32 0 -52 -16 -52 -41 0 -28 24 -40 69 -33 l41 7 0 51 c0 62 -11 76 -62
76 -28 0 -38 -4 -38 -16z m68 -76 c-5 -15 -48 -24 -48 -10 0 14 12 22 33 22
10 0 17 -5 15 -12z"/>
<path d="M3580 3805 c0 -10 10 -15 30 -15 17 0 30 -4 30 -8 0 -5 -13 -21 -30
-37 -45 -43 -39 -55 25 -55 30 0 55 5 55 10 0 6 -16 10 -36 10 l-35 0 35 44
c20 23 36 48 36 55 0 7 -20 11 -55 11 -42 0 -55 -3 -55 -15z"/>
<path d="M3736 3798 c-49 -70 35 -157 94 -98 26 26 26 81 2 103 -27 25 -78 22
-96 -5z m76 -26 c8 -29 -10 -64 -29 -60 -19 3 -29 38 -19 64 8 20 43 17 48 -4z"/>
<path d="M3894 3811 c-2 -2 -4 -31 -4 -63 0 -51 2 -58 20 -58 17 0 20 7 20 50
0 47 2 50 25 50 23 0 25 -3 25 -50 0 -43 3 -50 20 -50 17 0 20 7 20 46 0 71
-11 84 -71 81 -28 -1 -53 -4 -55 -6z"/>
<path d="M3864 3536 c-11 -28 4 -48 33 -44 22 2 28 8 28 28 0 20 -6 26 -28 28
-18 2 -29 -2 -33 -12z"/>
<path d="M4127 3544 c-4 -4 -7 -28 -7 -54 l0 -46 -52 1 c-48 0 -54 -3 -75 -34
-38 -57 -24 -154 26 -181 26 -13 74 -13 88 1 8 8 16 7 30 -2 11 -7 28 -9 37
-6 15 6 16 25 14 164 l-3 158 -25 3 c-14 2 -29 0 -33 -4z m-23 -140 c12 -5 16
-21 16 -70 l0 -64 -35 0 c-29 0 -37 5 -45 26 -14 36 -12 66 6 92 16 23 30 27
58 16z"/>
<path d="M2861 3524 c0 -11 3 -14 6 -6 3 7 2 16 -1 19 -3 4 -6 -2 -5 -13z"/>
<path d="M2811 3514 c0 -11 3 -14 6 -6 3 7 2 16 -1 19 -3 4 -6 -2 -5 -13z"/>
<path d="M3610 3442 c0 -19 72 -197 85 -211 8 -8 23 -11 37 -8 19 5 30 26 61
109 21 57 37 107 37 111 0 5 -12 7 -27 5 -25 -3 -31 -11 -54 -83 -29 -86 -29
-86 -57 15 -18 61 -21 65 -50 68 -18 2 -32 -1 -32 -6z"/>
<path d="M3865 3437 c-3 -7 -4 -58 -3 -113 l3 -99 30 0 30 0 0 110 0 110 -28
3 c-16 2 -29 -2 -32 -11z"/>
<path d="M4272 3425 c-36 -30 -49 -88 -32 -140 15 -46 44 -65 101 -65 61 0 79
7 79 32 0 17 -5 19 -37 14 -43 -7 -86 10 -91 37 -3 14 5 17 47 17 38 0 56 5
71 20 71 71 -60 151 -138 85z m96 -42 c3 -17 -3 -24 -22 -29 -49 -12 -71 10
-40 41 23 22 58 15 62 -12z"/>
<path d="M4507 3439 c-22 -13 -47 -68 -47 -105 0 -39 28 -90 56 -103 31 -14
89 -14 115 -1 28 16 49 63 49 115 0 38 -5 52 -29 76 -25 24 -37 29 -78 29 -26
0 -56 -5 -66 -11z m93 -49 c40 -40 20 -120 -30 -120 -36 0 -43 12 -43 68 0 32
5 49 18 58 25 18 31 18 55 -6z"/>
<path d="M2655 3430 c28 -12 37 -12 30 0 -3 6 -16 10 -28 9 -21 0 -21 -1 -2
-9z"/>
<path d="M2755 3430 c3 -5 8 -10 11 -10 2 0 4 5 4 10 0 6 -5 10 -11 10 -5 0
-7 -4 -4 -10z"/>
<path d="M3239 3427 c6 -8 7 -18 3 -22 -4 -5 -1 -5 6 -1 10 6 10 11 1 22 -6 8
-14 14 -16 14 -3 0 0 -6 6 -13z"/>
<path d="M3377 3427 c-3 -8 1 -14 8 -14 7 0 11 6 8 14 -3 7 -6 13 -8 13 -2 0
-5 -6 -8 -13z"/>
<path d="M2467 3419 c7 -7 15 -10 18 -7 3 3 -2 9 -12 12 -14 6 -15 5 -6 -5z"/>
<path d="M2718 3423 c7 -3 16 -2 19 1 4 3 -2 6 -13 5 -11 0 -14 -3 -6 -6z"/>
<path d="M3083 3415 c0 -8 4 -12 9 -9 5 3 6 10 3 15 -9 13 -12 11 -12 -6z"/>
<path d="M3345 3420 c-3 -5 -1 -10 4 -10 6 0 11 5 11 10 0 6 -2 10 -4 10 -3 0
-8 -4 -11 -10z"/>
<path d="M3476 3382 l-19 -27 24 22 c12 12 21 24 18 27 -2 2 -13 -8 -23 -22z"/>
<path d="M2933 3310 c0 -47 2 -66 4 -42 2 23 2 61 0 85 -2 23 -4 4 -4 -43z"/>
<path d="M3218 3383 c7 -3 16 -2 19 1 4 3 -2 6 -13 5 -11 0 -14 -3 -6 -6z"/>
<path d="M3400 3335 c0 -8 5 -15 10 -15 6 0 10 5 10 11 0 5 5 7 10 4 6 -3 10
-1 10 4 0 6 -9 11 -20 11 -11 0 -20 -7 -20 -15z"/>
<path d="M2553 3264 c-13 -14 -18 -24 -11 -22 10 4 45 48 37 48 -2 0 -14 -12
-26 -26z"/>
<path d="M3368 3253 c7 -3 16 -2 19 1 4 3 -2 6 -13 5 -11 0 -14 -3 -6 -6z"/>
<path d="M3450 3251 c0 -5 9 -7 20 -4 11 3 20 7 20 9 0 2 -9 4 -20 4 -11 0
-20 -4 -20 -9z"/>
<path d="M2945 3090 c3 -5 8 -10 11 -10 2 0 4 5 4 10 0 6 -5 10 -11 10 -5 0
-7 -4 -4 -10z"/>
<path d="M2970 3076 c0 -2 6 -9 14 -15 11 -9 16 -9 22 0 4 8 3 9 -4 5 -7 -4
-12 -2 -12 3 0 6 -4 11 -10 11 -5 0 -10 -2 -10 -4z"/>
<path d="M3006 3041 c-3 -4 6 -6 19 -3 14 2 25 6 25 8 0 8 -39 4 -44 -5z"/>
<path d="M3986 3022 c-2 -4 7 -8 20 -8 13 -1 24 1 24 5 0 9 -38 12 -44 3z"/>
<path d="M4070 2988 c0 -4 6 -8 14 -8 8 0 17 4 20 8 2 4 -4 8 -15 8 -10 0 -19
-4 -19 -8z"/>
<path d="M4076 2943 c-6 -14 -5 -15 5 -6 7 7 10 15 7 18 -3 3 -9 -2 -12 -12z"/>
<path d="M3558 2923 c7 -3 16 -2 19 1 4 3 -2 6 -13 5 -11 0 -14 -3 -6 -6z"/>
<path d="M3780 2900 c-8 -5 -12 -11 -10 -14 3 -2 14 2 24 10 22 15 10 19 -14
4z"/>
<path d="M3438 2853 c7 -3 16 -2 19 1 4 3 -2 6 -13 5 -11 0 -14 -3 -6 -6z"/>
</g>
</svg>
