<?xml version="1.0" standalone="no"?>
<!DOCTYPE svg PUBLIC "-//W3C//DTD SVG 20010904//EN"
 "http://www.w3.org/TR/2001/REC-SVG-20010904/DTD/svg10.dtd">
<svg version="1.0" xmlns="http://www.w3.org/2000/svg"
 width="800.000000pt" height="800.000000pt" viewBox="0 0 800.000000 800.000000"
 preserveAspectRatio="xMidYMid meet">
<metadata>
Created by potrace 1.16, written by Peter Selinger 2001-2019
</metadata>
<g transform="translate(0.000000,800.000000) scale(0.100000,-0.100000)"
fill="#000000" stroke="none">
<path d="M3725 7023 c-116 -10 -341 -48 -462 -78 -237 -58 -329 -95 -508 -204
-104 -63 -345 -235 -345 -246 0 -2 34 16 76 41 587 347 1328 481 2019 363 508
-86 980 -298 1390 -625 137 -109 355 -327 460 -459 270 -338 469 -734 580
-1155 l25 -95 -5 82 c-3 45 -14 132 -26 195 -42 237 -94 388 -196 573 -504
905 -1408 1502 -2432 1605 -94 9 -480 11 -576 3z"/>
<path d="M3560 6759 c-486 -50 -971 -238 -1361 -528 -166 -123 -221 -180 -324
-335 -437 -656 -572 -1460 -375 -2231 248 -972 1023 -1747 1996 -1995 255 -66
401 -83 684 -84 258 -1 347 7 560 50 351 70 681 206 980 405 169 112 230 173
369 368 256 359 415 756 486 1211 23 143 31 495 16 646 -82 808 -494 1522
-1147 1991 -387 278 -859 455 -1338 502 -126 13 -422 12 -546 0z m671 -1143
c134 -22 235 -53 357 -111 149 -72 247 -140 362 -255 185 -184 301 -401 357
-663 24 -115 24 -372 0 -484 -118 -548 -537 -945 -1087 -1028 -246 -38 -536 7
-749 115 l-61 30 -342 -109 c-189 -60 -352 -113 -362 -117 -15 -6 -18 -4 -14
7 3 8 56 163 118 346 l112 332 -50 103 c-379 779 95 1688 958 1833 102 18 297
18 401 1z"/>
<path d="M3852 5406 c-117 -23 -211 -55 -312 -107 -519 -268 -732 -884 -485
-1406 24 -50 57 -111 73 -136 l31 -44 -65 -188 c-35 -104 -63 -191 -62 -195 2
-4 94 21 204 56 l201 64 59 -35 c234 -141 562 -180 841 -99 297 86 552 303
679 579 281 608 -61 1323 -713 1491 -123 32 -338 41 -451 20z m-140 -495 c28
-28 131 -289 124 -316 -3 -13 -29 -52 -56 -86 -28 -35 -48 -69 -45 -77 26 -69
170 -231 258 -291 68 -46 182 -101 211 -101 18 0 39 20 87 81 78 98 68 98 260
6 97 -46 137 -70 141 -85 7 -26 -10 -118 -27 -153 -38 -72 -151 -136 -257
-145 -67 -6 -83 -3 -200 35 -218 71 -329 138 -482 288 -82 82 -191 220 -245
312 -18 29 -44 88 -58 130 -42 127 -25 236 54 343 46 64 94 87 166 80 29 -2
59 -11 69 -21z"/>
<path d="M2377 6577 c-1137 -699 -1706 -2027 -1425 -3326 196 -908 814 -1703
1648 -2121 787 -395 1664 -441 2500 -133 268 98 618 301 864 499 421 339 769
823 960 1337 159 425 228 944 182 1367 -15 140 -54 372 -73 442 -5 15 -7 -142
-6 -350 4 -540 -13 -764 -77 -1050 -95 -427 -309 -870 -595 -1227 -105 -133
-324 -350 -460 -459 -426 -339 -924 -556 -1460 -637 -177 -26 -520 -36 -695
-20 -608 56 -1161 278 -1640 660 -131 104 -360 334 -464 466 -330 417 -534
873 -621 1389 -150 886 103 1793 692 2476 133 155 613 615 763 732 19 15 33
28 30 28 -3 0 -58 -33 -123 -73z"/>
<path d="M1689 5742 c-331 -410 -533 -896 -595 -1427 -20 -173 -15 -556 10
-708 53 -325 142 -597 281 -865 436 -836 1244 -1384 2184 -1483 166 -17 542
-7 697 20 478 81 865 247 1246 534 60 44 107 82 105 83 -1 2 -64 -29 -139 -67
-432 -219 -873 -318 -1358 -306 -285 8 -501 42 -766 122 -323 98 -670 282
-944 501 -109 87 -347 325 -434 434 -221 277 -416 650 -511 976 -123 424 -147
876 -69 1314 49 272 123 493 254 758 48 94 86 172 86 172 -1 0 -22 -26 -47
-58z"/>
<path d="M7012 4700 c0 -14 2 -19 5 -12 2 6 2 18 0 25 -3 6 -5 1 -5 -13z"/>
</g>
</svg>
